<?xml version="1.0" encoding="utf-8"?>
<!-- Generator: Adobe Illustrator 16.2.1, SVG Export Plug-In . SVG Version: 6.00 Build 0)  -->
<!DOCTYPE svg PUBLIC "-//W3C//DTD SVG 1.1//EN" "http://www.w3.org/Graphics/SVG/1.1/DTD/svg11.dtd">
<svg version="1.1" id="Outline_Version" xmlns="http://www.w3.org/2000/svg" xmlns:xlink="http://www.w3.org/1999/xlink" x="0px"
	 y="0px" width="24px" height="24px" viewBox="0 0 24 24" enable-background="new 0 0 24 24" xml:space="preserve">
<path d="M20,16h-1v-5.092c0.581-0.207,1-0.757,1-1.408v-6C20,1.57,18.43,0,16.5,0h-9C5.57,0,4,1.57,4,3.5v6
	c0,0.651,0.419,1.201,1,1.408V16H4c-1.103,0-2,0.897-2,2v4.5C2,23.327,2.673,24,3.5,24h2h2h9h2h2c0.827,0,1.5-0.673,1.5-1.5V18
	C22,16.897,21.103,16,20,16z M20,17c0.551,0,1,0.449,1,1v1h-2v-2H20z M5,3.5C5,2.122,6.122,1,7.5,1h9C17.878,1,19,2.122,19,3.5v6
	c0,0.276-0.224,0.5-0.5,0.5H17V7.5C17,7.224,16.776,7,16.5,7h-2C14.224,7,14,7.224,14,7.5V10h-4V7.5C10,7.224,9.776,7,9.5,7h-2
	C7.224,7,7,7.224,7,7.5V10H5.5C5.224,10,5,9.776,5,9.5V3.5z M15,8h1v4h-1V8z M8,8h1v4H8V8z M4,17h1v2H3v-1C3,17.449,3.449,17,4,17z
	 M3,22.5V20h2v3H3.5C3.224,23,3,22.776,3,22.5z M6,16.5V11h1v1.5C7,12.776,7.224,13,7.5,13h2c0.276,0,0.5-0.224,0.5-0.5V11h4v1.5
	c0,0.276,0.224,0.5,0.5,0.5h2c0.276,0,0.5-0.224,0.5-0.5V11h1v5.5V23h-1v-5c0-1.103-0.897-2-2-2H9c-1.103,0-2,0.897-2,2v5H6V16.5z
	 M16,19H8v-1c0-0.551,0.449-1,1-1h6c0.551,0,1,0.449,1,1V19z M8,23v-3h8v3H8z M20.5,23H19v-3h2v2.5C21,22.776,20.776,23,20.5,23z"/>
</svg>
