<?xml version="1.0" encoding="utf-8"?>
<!-- Generator: Adobe Illustrator 16.2.1, SVG Export Plug-In . SVG Version: 6.00 Build 0)  -->
<!DOCTYPE svg PUBLIC "-//W3C//DTD SVG 1.1//EN" "http://www.w3.org/Graphics/SVG/1.1/DTD/svg11.dtd">
<svg version="1.1" id="Outline_Version" xmlns="http://www.w3.org/2000/svg" xmlns:xlink="http://www.w3.org/1999/xlink" x="0px"
	 y="0px" width="24px" height="24px" viewBox="0 0 24 24" enable-background="new 0 0 24 24" xml:space="preserve">
<g>
	<path d="M20.5,2.5C19.673,2.5,19,3.173,19,4s-0.673,1.5-1.5,1.5S16,4.827,16,4c0-1.654-1.346-3-3-3s-3,1.346-3,3v2H8.5
		C8.224,6,8,6.224,8,6.5v1.091C4.995,8.808,3,11.742,3,15c0,4.411,3.589,8,8,8s8-3.589,8-8c0-3.258-1.995-6.192-5-7.409V6.5
		C14,6.224,13.776,6,13.5,6H11V4c0-1.103,0.897-2,2-2s2,0.897,2,2c0,1.378,1.121,2.5,2.5,2.5S20,5.378,20,4
		c0-0.276,0.225-0.5,0.5-0.5C20.776,3.5,21,3.276,21,3S20.776,2.5,20.5,2.5z M13.333,8.407C16.124,9.396,18,12.045,18,15
		c0,3.86-3.141,7-7,7s-7-3.14-7-7c0-2.955,1.876-5.604,4.667-6.593C8.866,8.336,9,8.147,9,7.936V7h4v0.936
		C13,8.147,13.134,8.336,13.333,8.407z"/>
	<path d="M7.569,10.078c-2.713,1.892-3.383,5.638-1.491,8.352c0.097,0.14,0.253,0.214,0.41,0.214c0.099,0,0.199-0.029,0.286-0.09
		c0.227-0.158,0.282-0.469,0.124-0.696c-1.576-2.262-1.019-5.384,1.243-6.96c0.227-0.158,0.282-0.47,0.124-0.696
		C8.106,9.976,7.795,9.921,7.569,10.078z"/>
</g>
</svg>
