<?xml version="1.0" encoding="utf-8"?>
<!-- Generator: Adobe Illustrator 16.2.1, SVG Export Plug-In . SVG Version: 6.00 Build 0)  -->
<!DOCTYPE svg PUBLIC "-//W3C//DTD SVG 1.1//EN" "http://www.w3.org/Graphics/SVG/1.1/DTD/svg11.dtd">
<svg version="1.1" id="Outline_Version" xmlns="http://www.w3.org/2000/svg" xmlns:xlink="http://www.w3.org/1999/xlink" x="0px"
	 y="0px" width="24px" height="24px" viewBox="0 0 24 24" enable-background="new 0 0 24 24" xml:space="preserve">
<g>
	<path d="M22.763,2.074c-0.146-0.091-0.332-0.1-0.486-0.022L12.5,6.94L2.724,2.052c-0.155-0.078-0.34-0.069-0.486,0.022
		C2.09,2.165,2,2.326,2,2.499V18c0,0.189,0.107,0.362,0.276,0.447l10,5c0.004,0.002,0.01,0.001,0.014,0.003
		c0.064,0.03,0.134,0.049,0.21,0.049s0.146-0.02,0.21-0.049c0.004-0.002,0.01-0.001,0.014-0.003l10-5C22.893,18.362,23,18.189,23,18
		V2.499C23,2.326,22.91,2.165,22.763,2.074z M3,3.308l9,4.5v14.383l-9-4.5V3.308z M22,17.691l-9,4.5V7.808l9-4.5V17.691z"/>
	<path d="M4.272,1.421l8,4.049c0.07,0.036,0.148,0.054,0.226,0.054s0.155-0.018,0.226-0.054l8-4.049
		c0.247-0.125,0.346-0.426,0.221-0.672c-0.125-0.247-0.427-0.345-0.672-0.221l-7.774,3.935L4.724,0.528
		C4.479,0.405,4.177,0.501,4.052,0.749C3.927,0.995,4.025,1.296,4.272,1.421z"/>
</g>
</svg>
