<?xml version="1.0" encoding="utf-8"?>
<!-- Generator: Adobe Illustrator 16.2.1, SVG Export Plug-In . SVG Version: 6.00 Build 0)  -->
<!DOCTYPE svg PUBLIC "-//W3C//DTD SVG 1.1//EN" "http://www.w3.org/Graphics/SVG/1.1/DTD/svg11.dtd">
<svg version="1.1" id="Outline_Version" xmlns="http://www.w3.org/2000/svg" xmlns:xlink="http://www.w3.org/1999/xlink" x="0px"
	 y="0px" width="24px" height="24px" viewBox="0 0 24 24" enable-background="new 0 0 24 24" xml:space="preserve">
<g>
	<path d="M12,0C5.383,0,0,4.434,0,9.883c0,2.575,1.177,4.987,3.325,6.833l-2.41,4.811c-0.095,0.19-0.06,0.42,0.089,0.573
		C1.1,22.198,1.23,22.25,1.362,22.25c0.071,0,0.144-0.015,0.211-0.047l6.437-2.996c1.278,0.371,2.62,0.559,3.99,0.559
		c6.617,0,12-4.434,12-9.883S18.617,0,12,0z M12,18.766c-1.338,0-2.645-0.192-3.883-0.57c-0.118-0.036-0.245-0.028-0.357,0.025
		l-5.308,2.471l1.946-3.883c0.105-0.211,0.049-0.467-0.135-0.615C2.159,14.511,1,12.27,1,9.883C1,4.985,5.935,1,12,1
		s11,3.985,11,8.883S18.065,18.766,12,18.766z"/>
	<path d="M15.276,5c-0.951,0-2.07,0.492-2.776,1.784C11.794,5.491,10.674,5,9.724,5C8.139,5,6.5,6.322,6.5,8.536
		c0,3.182,5.473,7.199,5.706,7.368C12.293,15.968,12.397,16,12.5,16s0.207-0.032,0.294-0.096c0.233-0.169,5.706-4.186,5.706-7.368
		C18.5,6.322,16.861,5,15.276,5z M12.5,14.876c-1.63-1.247-5-4.255-5-6.34C7.5,6.948,8.63,6,9.724,6c1.086,0,1.942,0.864,2.29,2.312
		c0.108,0.45,0.864,0.45,0.973,0C13.334,6.864,14.19,6,15.276,6C16.37,6,17.5,6.948,17.5,8.536
		C17.5,10.621,14.13,13.629,12.5,14.876z"/>
</g>
</svg>
