<?xml version="1.0" encoding="utf-8"?>
<!-- Generator: Adobe Illustrator 16.2.1, SVG Export Plug-In . SVG Version: 6.00 Build 0)  -->
<!DOCTYPE svg PUBLIC "-//W3C//DTD SVG 1.1//EN" "http://www.w3.org/Graphics/SVG/1.1/DTD/svg11.dtd">
<svg version="1.1" id="Outline_Version" xmlns="http://www.w3.org/2000/svg" xmlns:xlink="http://www.w3.org/1999/xlink" x="0px"
	 y="0px" width="24px" height="24px" viewBox="0 0 24 24" enable-background="new 0 0 24 24" xml:space="preserve">
<g>
	<path d="M4.5,16C3.121,16,2,17.122,2,18.5S3.121,21,4.5,21S7,19.878,7,18.5S5.879,16,4.5,16z M4.5,20C3.673,20,3,19.327,3,18.5
		S3.673,17,4.5,17S6,17.673,6,18.5S5.327,20,4.5,20z"/>
	<path d="M10.342,19.974c0.262,0.089,0.545-0.053,0.633-0.316L11.86,17h1.279l0.886,2.658C14.096,19.868,14.291,20,14.5,20
		c0.053,0,0.105-0.008,0.158-0.026c0.262-0.087,0.403-0.37,0.316-0.632l-1-3C13.906,16.138,13.715,16,13.5,16h-2
		c-0.215,0-0.406,0.138-0.475,0.342l-1,3C9.938,19.604,10.08,19.887,10.342,19.974z"/>
	<rect x="8" y="5" width="1" height="4"/>
	<rect x="10" y="5" width="1" height="4"/>
	<rect x="12" y="5" width="1" height="4"/>
	<rect x="14" y="5" width="1" height="4"/>
	<rect x="16" y="5" width="1" height="4"/>
	<path d="M21.5,17h-3c-0.276,0-0.5,0.224-0.5,0.5v2c0,0.276,0.224,0.5,0.5,0.5h3c0.276,0,0.5-0.224,0.5-0.5v-2
		C22,17.224,21.776,17,21.5,17z M21,19h-2v-1h2V19z"/>
	<path d="M20.5,14H17v-0.5c0-0.276-0.224-0.5-0.5-0.5H16v-2h0.5c1.379,0,2.5-1.122,2.5-2.5v-5C19,3.224,18.776,3,18.5,3h-12
		C6.224,3,6,3.224,6,3.5v5C6,9.878,7.121,11,8.5,11H9v2H8.5C8.224,13,8,13.224,8,13.5V14H3.5C1.57,14,0,15.57,0,17.5v2
		C0,21.43,1.57,23,3.5,23H8v0.5C8,23.776,8.224,24,8.5,24h8c0.276,0,0.5-0.224,0.5-0.5V23h3.5c1.93,0,3.5-1.57,3.5-3.5v-2
		C24,15.57,22.43,14,20.5,14z M3.5,22C2.121,22,1,20.878,1,19.5v-2C1,16.122,2.121,15,3.5,15H8v7H3.5z M7,8.5V4h11v4.5
		c0,0.827-0.673,1.5-1.5,1.5h-8C7.673,10,7,9.327,7,8.5z M10,11h5v2h-5V11z M16,23H9v-9h7V23z M23,19.5c0,1.378-1.121,2.5-2.5,2.5
		H17v-7h3.5c1.379,0,2.5,1.122,2.5,2.5V19.5z"/>
</g>
</svg>
