<?xml version="1.0" encoding="utf-8"?>
<!-- Generator: Adobe Illustrator 16.2.1, SVG Export Plug-In . SVG Version: 6.00 Build 0)  -->
<!DOCTYPE svg PUBLIC "-//W3C//DTD SVG 1.1//EN" "http://www.w3.org/Graphics/SVG/1.1/DTD/svg11.dtd">
<svg version="1.1" id="Outline_Version" xmlns="http://www.w3.org/2000/svg" xmlns:xlink="http://www.w3.org/1999/xlink" x="0px"
	 y="0px" width="24px" height="24px" viewBox="0 0 24 24" enable-background="new 0 0 24 24" xml:space="preserve">
<g>
	<path d="M23.854,14.146L22,12.293V3.5C22,1.57,20.43,0,18.5,0h-13C3.57,0,2,1.57,2,3.5v8.793l-1.854,1.854
		C0.053,14.24,0,14.367,0,14.5V18c0,1.103,0.897,2,2,2h2.211c-0.422,1.031-1.066,2.148-2.064,3.146
		c-0.143,0.143-0.186,0.358-0.108,0.545S2.298,24,2.5,24h19c0.211,0,0.398-0.132,0.47-0.33c0.072-0.198,0.012-0.42-0.149-0.555
		c-1.047-0.873-1.705-2.021-2.119-3.116H22c1.103,0,2-0.897,2-2v-3.5C24,14.367,23.947,14.24,23.854,14.146z M21,3.5V12h-7V8.865
		C14.904,8.231,15.5,7.186,15.5,6S14.904,3.769,14,3.135V1h4.5C19.879,1,21,2.122,21,3.5z M12,2.5c-0.35,0-0.681,0.067-1,0.163V1h2
		v1.663C12.681,2.567,12.35,2.5,12,2.5z M12,3.5c1.379,0,2.5,1.122,2.5,2.5S13.379,8.5,12,8.5S9.5,7.378,9.5,6S10.621,3.5,12,3.5z
		 M12,9.5c0.35,0,0.681-0.067,1-0.163V12h-2V9.337C11.319,9.433,11.65,9.5,12,9.5z M5.5,1H10v2.135C9.096,3.769,8.5,4.814,8.5,6
		S9.096,8.231,10,8.865V12H3V3.5C3,2.122,4.121,1,5.5,1z M2.707,13h18.586l1,1H1.707L2.707,13z M5.975,17h12.047
		c0.058,0.788,0.275,2.387,1.017,4H4.86C5.669,19.325,5.909,17.77,5.975,17z M3.616,23c0.263-0.33,0.49-0.665,0.698-1h15.257
		c0.212,0.342,0.442,0.68,0.716,1H3.616z M22,19h-2.619c-0.221-0.826-0.313-1.546-0.352-2H22v-1h-3.5h-13H2v1h2.967
		c-0.044,0.447-0.151,1.159-0.402,2H2c-0.552,0-1-0.449-1-1v-3h22v3C23,18.551,22.552,19,22,19z"/>
	<path d="M5.75,10.031c0.413,0,0.75-0.336,0.75-0.75s-0.337-0.75-0.75-0.75S5,8.868,5,9.281S5.337,10.031,5.75,10.031z M5.75,9.031
		C5.888,9.031,6,9.144,6,9.281c0,0.275-0.5,0.275-0.5,0C5.5,9.144,5.612,9.031,5.75,9.031z"/>
	<path d="M16.5,5h3C19.776,5,20,4.776,20,4.5V2.531c0-0.276-0.224-0.5-0.5-0.5h-3c-0.276,0-0.5,0.224-0.5,0.5V4.5
		C16,4.776,16.224,5,16.5,5z M17,3.031h2V4h-2V3.031z"/>
</g>
</svg>
