<?xml version="1.0" encoding="utf-8"?>
<!-- Generator: Adobe Illustrator 16.2.1, SVG Export Plug-In . SVG Version: 6.00 Build 0)  -->
<!DOCTYPE svg PUBLIC "-//W3C//DTD SVG 1.1//EN" "http://www.w3.org/Graphics/SVG/1.1/DTD/svg11.dtd">
<svg version="1.1" id="Outline_Version" xmlns="http://www.w3.org/2000/svg" xmlns:xlink="http://www.w3.org/1999/xlink" x="0px"
	 y="0px" width="24px" height="24px" viewBox="0 0 24 24" enable-background="new 0 0 24 24" xml:space="preserve">
<g>
	<path d="M17.5,8h-9C7.673,8,7,8.673,7,9.5V10H5.5C5.224,10,5,10.224,5,10.5v6C5,16.776,5.224,17,5.5,17H7v5.5
		C7,23.327,7.673,24,8.5,24h9c0.827,0,1.5-0.673,1.5-1.5v-13C19,8.673,18.327,8,17.5,8z M7,11v2H6v-2H7z M6,16v-2h1v2H6z M18,22.5
		c0,0.275-0.225,0.5-0.5,0.5h-9C8.229,23,8,22.771,8,22.5v-6v-6v-1C8,9.229,8.229,9,8.5,9h9C17.775,9,18,9.225,18,9.5V22.5z"/>
	<path d="M16.5,21h-7C9.224,21,9,21.224,9,21.5S9.224,22,9.5,22h7c0.276,0,0.5-0.224,0.5-0.5S16.776,21,16.5,21z"/>
	<path d="M16.5,10h-7C9.224,10,9,10.224,9,10.5v9C9,19.776,9.224,20,9.5,20h7c0.276,0,0.5-0.224,0.5-0.5v-9
		C17,10.224,16.776,10,16.5,10z M16,19h-6v-8h6V19z"/>
	<circle cx="13.5" cy="13.5" r="0.5"/>
	<circle cx="13.5" cy="16.5" r="0.5"/>
	<path d="M12,0C5.383,0,0,5.383,0,12v3c0,0.276,0.224,0.5,0.5,0.5H1v1C1,17.327,1.673,18,2.5,18S4,17.327,4,16.5v-3
		C4,12.673,3.327,12,2.5,12S1,12.673,1,13.5V12C1,5.935,5.935,1,12,1s11,4.935,11,11v1.5c0-0.827-0.673-1.5-1.5-1.5
		S20,12.673,20,13.5v3c0,0.827,0.673,1.5,1.5,1.5s1.5-0.673,1.5-1.5v-1h0.5c0.276,0,0.5-0.224,0.5-0.5v-3C24,5.383,18.617,0,12,0z
		 M2,13.5C2,13.229,2.229,13,2.5,13C2.775,13,3,13.225,3,13.5v3C3,16.775,2.775,17,2.5,17C2.229,17,2,16.771,2,16.5V13.5z M22,16.5
		c0,0.275-0.225,0.5-0.5,0.5c-0.271,0-0.5-0.229-0.5-0.5v-3c0-0.271,0.229-0.5,0.5-0.5c0.275,0,0.5,0.225,0.5,0.5V16.5z"/>
</g>
</svg>
