<?xml version="1.0" encoding="utf-8"?>
<!-- Generator: Adobe Illustrator 16.2.1, SVG Export Plug-In . SVG Version: 6.00 Build 0)  -->
<!DOCTYPE svg PUBLIC "-//W3C//DTD SVG 1.1//EN" "http://www.w3.org/Graphics/SVG/1.1/DTD/svg11.dtd">
<svg version="1.1" id="Outline_Version" xmlns="http://www.w3.org/2000/svg" xmlns:xlink="http://www.w3.org/1999/xlink" x="0px"
	 y="0px" width="24px" height="24px" viewBox="0 0 24 24" enable-background="new 0 0 24 24" xml:space="preserve">
<g>
	<path d="M23.5,10.5c-0.276,0-0.5,0.224-0.5,0.5c0,1.858-1.279,3.411-3,3.858V8c0-4.411-3.589-8-8-8S4,3.589,4,8v6.858
		c-1.721-0.447-3-2-3-3.858c0-0.276-0.224-0.5-0.5-0.5S0,10.724,0,11c0,2.757,2.243,5,5,5h14c2.757,0,5-2.243,5-5
		C24,10.724,23.776,10.5,23.5,10.5z M12,1c3.859,0,7,3.14,7,7v4H5V8C5,4.14,8.141,1,12,1z M5,15v-2h14v2H5z"/>
	<polygon points="10.5,22 9.5,24 14.5,24 13.5,22 	"/>
</g>
</svg>
