<?xml version="1.0" encoding="utf-8"?>
<!-- Generator: Adobe Illustrator 16.2.1, SVG Export Plug-In . SVG Version: 6.00 Build 0)  -->
<!DOCTYPE svg PUBLIC "-//W3C//DTD SVG 1.1//EN" "http://www.w3.org/Graphics/SVG/1.1/DTD/svg11.dtd">
<svg version="1.1" id="Outline_Version" xmlns="http://www.w3.org/2000/svg" xmlns:xlink="http://www.w3.org/1999/xlink" x="0px"
	 y="0px" width="24px" height="24px" viewBox="0 0 24 24" enable-background="new 0 0 24 24" xml:space="preserve">
<path d="M17.502,2.5c-0.471,0-0.938,0.083-1.377,0.244C15.381,1.189,13.434,0,11.498,0C9.55,0,7.592,1.189,6.846,2.744
	C6.407,2.583,5.94,2.5,5.471,2.5c-2.207,0-4.002,1.794-4.002,4c0,2.073,1.501,3.731,3.5,3.97v12.967c0,0.276,0.224,0.5,0.5,0.5
	h12.029c0.276,0,0.5-0.224,0.5-0.5V10.47c2-0.239,3.502-1.896,3.502-3.97C21.5,4.294,19.706,2.5,17.502,2.5z M5.969,22.938v-3
	h11.029v3H5.969z M17.498,9.5c-0.276,0-0.5,0.224-0.5,0.5v8.938h-2.01v-3.5c0-0.276-0.224-0.5-0.5-0.5s-0.5,0.224-0.5,0.5v3.5h-2.02
	v-4.5c0-0.276-0.224-0.5-0.5-0.5s-0.5,0.224-0.5,0.5v4.5h-1.99v-3.5c0-0.276-0.224-0.5-0.5-0.5s-0.5,0.224-0.5,0.5v3.5h-2.01V10
	c0-0.276-0.224-0.5-0.5-0.5c-1.683,0-3-1.318-3-3c0-1.654,1.347-3,3.002-3c0.494,0,0.983,0.123,1.415,0.356
	C7.019,3.929,7.18,3.937,7.318,3.876c0.14-0.059,0.245-0.179,0.286-0.325C7.995,2.168,9.777,1,11.498,1
	c1.706,0,3.478,1.168,3.868,2.552c0.041,0.146,0.146,0.266,0.286,0.325c0.141,0.06,0.3,0.052,0.433-0.021
	C16.522,3.62,17,3.5,17.502,3.5c1.653,0,2.998,1.346,2.998,3C20.5,8.182,19.182,9.5,17.498,9.5z"/>
</svg>
