<?xml version="1.0" encoding="utf-8"?>
<!-- Generator: Adobe Illustrator 16.2.1, SVG Export Plug-In . SVG Version: 6.00 Build 0)  -->
<!DOCTYPE svg PUBLIC "-//W3C//DTD SVG 1.1//EN" "http://www.w3.org/Graphics/SVG/1.1/DTD/svg11.dtd">
<svg version="1.1" id="Outline_Version" xmlns="http://www.w3.org/2000/svg" xmlns:xlink="http://www.w3.org/1999/xlink" x="0px"
	 y="0px" width="24px" height="24px" viewBox="0 0 24 24" enable-background="new 0 0 24 24" xml:space="preserve">
<g>
	<path d="M22,0H3.5C3.224,0,3,0.224,3,0.5v10C3,10.776,3.224,11,3.5,11H5v2.5H4.5C4.224,13.5,4,13.724,4,14v1H0.5
		C0.224,15,0,15.224,0,15.5S0.224,16,0.5,16H4v0.5C4,16.776,4.224,17,4.5,17H6v0.5C6,17.776,6.224,18,6.5,18S7,17.776,7,17.5V17h1.5
		C8.776,17,9,16.776,9,16.5V14c0-0.276-0.224-0.5-0.5-0.5H8V11h2v9H0.5C0.224,20,0,20.224,0,20.5v3C0,23.776,0.224,24,0.5,24h23
		c0.276,0,0.5-0.224,0.5-0.5V2C24,0.897,23.103,0,22,0z M8,16H5v-1.5h3V16z M7,13.5H6V11h1V13.5z M1,21h9.5
		c0.276,0,0.5-0.224,0.5-0.5v-10c0-0.276-0.224-0.5-0.5-0.5H4V1h18c0.552,0,1,0.449,1,1v3h-5.5C17.224,5,17,5.224,17,5.5
		S17.224,6,17.5,6H23v1h-5.5C17.224,7,17,7.224,17,7.5S17.224,8,17.5,8H23v1h-5.5C17.224,9,17,9.224,17,9.5s0.224,0.5,0.5,0.5H23v2
		h-4.5c-0.276,0-0.5,0.224-0.5,0.5V23H1V21z M19,23V13h4v10H19z"/>
	<path d="M7,2C5.897,2,5,2.897,5,4s0.897,2,2,2s2-0.897,2-2S8.103,2,7,2z M7,5C6.448,5,6,4.551,6,4s0.448-1,1-1s1,0.449,1,1
		S7.552,5,7,5z"/>
</g>
</svg>
