<?xml version="1.0" encoding="utf-8"?>
<!-- Generator: Adobe Illustrator 16.2.1, SVG Export Plug-In . SVG Version: 6.00 Build 0)  -->
<!DOCTYPE svg PUBLIC "-//W3C//DTD SVG 1.1//EN" "http://www.w3.org/Graphics/SVG/1.1/DTD/svg11.dtd">
<svg version="1.1" id="Outline_Version" xmlns="http://www.w3.org/2000/svg" xmlns:xlink="http://www.w3.org/1999/xlink" x="0px"
	 y="0px" width="24px" height="24px" viewBox="0 0 24 24" enable-background="new 0 0 24 24" xml:space="preserve">
<g>
	<path d="M22,16H2c-1.103,0-2,0.897-2,2v5.5C0,23.776,0.224,24,0.5,24h23c0.276,0,0.5-0.224,0.5-0.5V18C24,16.897,23.103,16,22,16z
		 M23,23H1v-5c0-0.552,0.448-1,1-1h20c0.552,0,1,0.448,1,1V23z"/>
	<path d="M3.326,15h17.348C21.956,15,23,13.879,23,12.5v-10C23,1.121,21.956,0,20.674,0H3.326C2.044,0,1,1.121,1,2.5v10
		C1,13.879,2.044,15,3.326,15z M2,2.5C2,1.673,2.595,1,3.326,1h17.348C21.405,1,22,1.673,22,2.5v10c0,0.827-0.595,1.5-1.326,1.5
		H3.326C2.595,14,2,13.327,2,12.5V2.5z"/>
	<path d="M3.5,13h17c0.276,0,0.5-0.224,0.5-0.5v-10C21,2.224,20.776,2,20.5,2h-17C3.224,2,3,2.224,3,2.5v10
		C3,12.776,3.224,13,3.5,13z M4,3h16v9H4V3z"/>
	<path d="M8.5,18h-6C2.224,18,2,18.224,2,18.5S2.224,19,2.5,19h6C8.776,19,9,18.776,9,18.5S8.776,18,8.5,18z"/>
	<path d="M5.5,20h-3C2.224,20,2,20.224,2,20.5S2.224,21,2.5,21h3C5.776,21,6,20.776,6,20.5S5.776,20,5.5,20z"/>
	<path d="M21.5,18h-9c-0.276,0-0.5,0.224-0.5,0.5v2c0,0.276,0.224,0.5,0.5,0.5h9c0.276,0,0.5-0.224,0.5-0.5v-2
		C22,18.224,21.776,18,21.5,18z M21,20h-8v-1h8V20z"/>
</g>
</svg>
