<?xml version="1.0" encoding="utf-8"?>
<!-- Generator: Adobe Illustrator 16.2.1, SVG Export Plug-In . SVG Version: 6.00 Build 0)  -->
<!DOCTYPE svg PUBLIC "-//W3C//DTD SVG 1.1//EN" "http://www.w3.org/Graphics/SVG/1.1/DTD/svg11.dtd">
<svg version="1.1" id="Outline_Version" xmlns="http://www.w3.org/2000/svg" xmlns:xlink="http://www.w3.org/1999/xlink" x="0px"
	 y="0px" width="24px" height="24px" viewBox="0 0 24 24" enable-background="new 0 0 24 24" xml:space="preserve">
<g>
	<path d="M5.5,9H1.423C1.189,9,1,8.776,1,8.5V8h11.5C12.776,8,13,7.776,13,7.5v-6C13,0.673,12.361,0,11.577,0H1.423
		C0.639,0,0,0.673,0,1.5v7C0,9.327,0.639,10,1.423,10H5.5C5.776,10,6,9.776,6,9.5S5.776,9,5.5,9z M1.423,1h10.154
		C11.811,1,12,1.224,12,1.5V7H1V1.5C1,1.224,1.189,1,1.423,1z"/>
	<path d="M5.5,11h-3C2.224,11,2,11.224,2,11.5S2.224,12,2.5,12h3C5.776,12,6,11.776,6,11.5S5.776,11,5.5,11z"/>
	<path d="M21.9,9h-12.8C7.942,9,7,10.032,7,11.301V19.7C7,20.968,7.942,22,9.101,22H15v1h-3.5c-0.276,0-0.5,0.224-0.5,0.5
		s0.224,0.5,0.5,0.5h8c0.276,0,0.5-0.224,0.5-0.5S19.776,23,19.5,23H16v-1h5.9c1.158,0,2.1-1.032,2.1-2.3v-8.399
		C24,10.032,23.059,9,21.9,9z M8,11.301C8,10.583,8.494,10,9.101,10h12.8c0.606,0,1.1,0.583,1.1,1.301V18H8V11.301z M21.9,21h-12.8
		C8.494,21,8,20.417,8,19.7V19h15v0.7C23,20.417,22.507,21,21.9,21z"/>
	<circle cx="15.5" cy="20" r="0.5"/>
</g>
</svg>
