<?xml version="1.0" encoding="utf-8"?>
<!-- Generator: Adobe Illustrator 16.2.1, SVG Export Plug-In . SVG Version: 6.00 Build 0)  -->
<!DOCTYPE svg PUBLIC "-//W3C//DTD SVG 1.1//EN" "http://www.w3.org/Graphics/SVG/1.1/DTD/svg11.dtd">
<svg version="1.1" id="Outline_Version" xmlns="http://www.w3.org/2000/svg" xmlns:xlink="http://www.w3.org/1999/xlink" x="0px"
	 y="0px" width="24px" height="24px" viewBox="0 0 24 24" enable-background="new 0 0 24 24" xml:space="preserve">
<g>
	<path d="M22.5,3.002h-21c-0.827,0-1.5,0.673-1.5,1.5V16.5c0,0.797,0.615,1.529,1.399,1.665l8.101,1.41v2.069
		c-1.994,0.225-3.797,0.709-5.142,1.414c-0.244,0.128-0.339,0.43-0.211,0.675c0.129,0.245,0.431,0.339,0.676,0.211
		C6.573,23.026,9.189,22.5,12,22.5c0.672,0,1.332,0.032,1.973,0.09c0.01,0,0.018,0.005,0.027,0.005c0.005,0,0.009-0.002,0.013-0.002
		c2.022,0.188,3.841,0.656,5.164,1.35C19.251,23.982,19.331,24,19.409,24c0.18,0,0.354-0.098,0.443-0.268
		c0.128-0.245,0.033-0.547-0.211-0.675c-1.345-0.705-3.147-1.189-5.142-1.414v-2.069l8.101-1.41C23.386,18.029,24,17.297,24,16.5
		V4.502C24,3.675,23.327,3.002,22.5,3.002z M13.5,21.555C13.007,21.522,12.508,21.5,12,21.5s-1.007,0.022-1.5,0.055v-1.807
		l0.43,0.075c0.289,0.05,0.669,0.079,1.07,0.079s0.782-0.028,1.071-0.079l0.429-0.075V21.555z M23,16.5
		c0,0.309-0.267,0.626-0.57,0.679l-8.421,1.465c-0.003,0-0.006-0.002-0.009-0.002c-0.043,0-0.081,0.014-0.121,0.024l-0.979,0.17
		c-0.461,0.082-1.333,0.082-1.798,0l-0.986-0.171c-0.038-0.009-0.074-0.023-0.115-0.023c-0.003,0-0.006,0.001-0.009,0.002
		L1.57,17.179C1.267,17.126,1,16.809,1,16.5V4.502c0-0.276,0.225-0.5,0.5-0.5h21c0.275,0,0.5,0.224,0.5,0.5V16.5z"/>
	<path d="M21.5,5.002h-19c-0.276,0-0.5,0.224-0.5,0.5v10c0,0.276,0.224,0.5,0.5,0.5h19c0.276,0,0.5-0.224,0.5-0.5v-10
		C22,5.226,21.776,5.002,21.5,5.002z M21,15.002H3v-9h18V15.002z"/>
	<circle cx="12" cy="17.5" r="0.5"/>
</g>
</svg>
