<?xml version="1.0" encoding="utf-8"?>
<!-- Generator: Adobe Illustrator 16.2.1, SVG Export Plug-In . SVG Version: 6.00 Build 0)  -->
<!DOCTYPE svg PUBLIC "-//W3C//DTD SVG 1.1//EN" "http://www.w3.org/Graphics/SVG/1.1/DTD/svg11.dtd">
<svg version="1.1" id="Outline_Version" xmlns="http://www.w3.org/2000/svg" xmlns:xlink="http://www.w3.org/1999/xlink" x="0px"
	 y="0px" width="24px" height="24px" viewBox="0 0 24 24" enable-background="new 0 0 24 24" xml:space="preserve">
<g>
	<path d="M22,2H2C0.897,2,0,2.897,0,4v15c0,1.103,0.897,2,2,2h6.807L8.14,23H5c-0.276,0-0.5,0.224-0.5,0.5S4.724,24,5,24h3.5h7h0.02
		H19c0.276,0,0.5-0.224,0.5-0.5S19.276,23,19,23h-3.14l-0.667-2H22c1.103,0,2-0.897,2-2V4C24,2.897,23.103,2,22,2z M9.194,23
		l0.667-2h4.279l0.667,2H9.194z M23,19c0,0.551-0.449,1-1,1h-7.5h-5H2c-0.551,0-1-0.449-1-1V4c0-0.551,0.449-1,1-1h20
		c0.551,0,1,0.449,1,1V19z"/>
	<path d="M21.5,4h-19C2.224,4,2,4.224,2,4.5v12C2,16.776,2.224,17,2.5,17h19c0.276,0,0.5-0.224,0.5-0.5v-12
		C22,4.224,21.776,4,21.5,4z M21,16H3V5h18V16z"/>
	<circle cx="12" cy="18.5" r="1"/>
</g>
</svg>
