<?xml version="1.0" encoding="utf-8"?>
<!-- Generator: Adobe Illustrator 16.2.1, SVG Export Plug-In . SVG Version: 6.00 Build 0)  -->
<!DOCTYPE svg PUBLIC "-//W3C//DTD SVG 1.1//EN" "http://www.w3.org/Graphics/SVG/1.1/DTD/svg11.dtd">
<svg version="1.1" id="Outline_Version" xmlns="http://www.w3.org/2000/svg" xmlns:xlink="http://www.w3.org/1999/xlink" x="0px"
	 y="0px" width="24px" height="24px" viewBox="0 0 24 24" enable-background="new 0 0 24 24" xml:space="preserve">
<g>
	<path d="M14.5,5h-6C8.224,5,8,5.224,8,5.5v4C8,9.776,8.224,10,8.5,10h6c0.276,0,0.5-0.224,0.5-0.5v-4C15,5.224,14.776,5,14.5,5z
		 M14,9H9V6h5V9z"/>
	<path d="M21.5,3H19V1.5C19,1.224,18.776,1,18.5,1h-15C3.224,1,3,1.224,3,1.5V4H2.5C2.224,4,2,4.224,2,4.5S2.224,5,2.5,5H3v2H2.5
		C2.224,7,2,7.224,2,7.5S2.224,8,2.5,8H3v2H2.5C2.224,10,2,10.224,2,10.5S2.224,11,2.5,11H3v2H2.5C2.224,13,2,13.224,2,13.5
		S2.224,14,2.5,14H3v2H2.5C2.224,16,2,16.224,2,16.5S2.224,17,2.5,17H3v2H2.5C2.224,19,2,19.224,2,19.5S2.224,20,2.5,20H3v2.5
		C3,22.776,3.224,23,3.5,23h15c0.276,0,0.5-0.224,0.5-0.5V20h2.5c0.276,0,0.5-0.224,0.5-0.5v-4v-4v-4v-4C22,3.224,21.776,3,21.5,3z
		 M21,11h-2V8h2V11z M19,12h2v3h-2V12z M21,4v3h-2V4H21z M18,22H4v-2h0.5C4.776,20,5,19.776,5,19.5S4.776,19,4.5,19H4v-2h0.5
		C4.776,17,5,16.776,5,16.5S4.776,16,4.5,16H4v-2h0.5C4.776,14,5,13.776,5,13.5S4.776,13,4.5,13H4v-2h0.5C4.776,11,5,10.776,5,10.5
		S4.776,10,4.5,10H4V8h0.5C4.776,8,5,7.776,5,7.5S4.776,7,4.5,7H4V5h0.5C4.776,5,5,4.776,5,4.5S4.776,4,4.5,4H4V2h14v1.5v4v4v4v4V22
		z M21,19h-2v-3h2V19z"/>
</g>
</svg>
