<?xml version="1.0" encoding="utf-8"?>
<!-- Generator: Adobe Illustrator 16.2.1, SVG Export Plug-In . SVG Version: 6.00 Build 0)  -->
<!DOCTYPE svg PUBLIC "-//W3C//DTD SVG 1.1//EN" "http://www.w3.org/Graphics/SVG/1.1/DTD/svg11.dtd">
<svg version="1.1" id="Outline_Version" xmlns="http://www.w3.org/2000/svg" xmlns:xlink="http://www.w3.org/1999/xlink" x="0px"
	 y="0px" width="24px" height="24px" viewBox="0 0 24 24" enable-background="new 0 0 24 24" xml:space="preserve">
<g>
	<path d="M8.5,23h-6C1.673,23,1,22.327,1,21.5V4.487C1.419,4.805,1.935,5,2.5,5H19v4c0,0.276,0.224,0.5,0.5,0.5S20,9.276,20,9V4.5
		C20,4.224,19.776,4,19.5,4h-17C1.673,4,1,3.327,1,2.5S1.673,1,2.5,1h17C19.776,1,20,0.776,20,0.5S19.776,0,19.5,0h-17
		C1.121,0,0,1.122,0,2.5c0,0.114,0.019,0.223,0.033,0.333C0.015,2.886,0,2.941,0,3v18.5C0,22.878,1.121,24,2.5,24h6
		C8.776,24,9,23.776,9,23.5S8.776,23,8.5,23z"/>
	<path d="M15.5,11C11.916,11,9,13.916,9,17.5s2.916,6.5,6.5,6.5s6.5-2.916,6.5-6.5S19.084,11,15.5,11z M15.5,23
		c-3.032,0-5.5-2.467-5.5-5.5s2.468-5.5,5.5-5.5s5.5,2.467,5.5,5.5S18.532,23,15.5,23z"/>
	<path d="M17.146,17.646L16,18.793V15c0-0.276-0.224-0.5-0.5-0.5S15,14.724,15,15v3.793l-1.146-1.146
		c-0.195-0.195-0.512-0.195-0.707,0s-0.195,0.512,0,0.707l1.999,2c0.047,0.046,0.103,0.083,0.163,0.108
		C15.37,20.487,15.435,20.5,15.5,20.5s0.13-0.013,0.191-0.039c0.061-0.025,0.116-0.062,0.163-0.108l1.999-2
		c0.195-0.195,0.195-0.512,0-0.707S17.342,17.451,17.146,17.646z"/>
	<path d="M2.5,2C2.224,2,2,2.224,2,2.5S2.224,3,2.5,3h16C18.776,3,19,2.776,19,2.5S18.776,2,18.5,2H2.5z"/>
</g>
</svg>
