<?xml version="1.0" encoding="utf-8"?>
<!-- Generator: Adobe Illustrator 16.2.1, SVG Export Plug-In . SVG Version: 6.00 Build 0)  -->
<!DOCTYPE svg PUBLIC "-//W3C//DTD SVG 1.1//EN" "http://www.w3.org/Graphics/SVG/1.1/DTD/svg11.dtd">
<svg version="1.1" id="Outline_Version" xmlns="http://www.w3.org/2000/svg" xmlns:xlink="http://www.w3.org/1999/xlink" x="0px"
	 y="0px" width="24px" height="24px" viewBox="0 0 24 24" enable-background="new 0 0 24 24" xml:space="preserve">
<g>
	<path d="M14.52,18c-0.201-0.023-0.34,0.078-0.436,0.222l-0.562,0.843l-1.094-1.823c-0.18-0.301-0.678-0.301-0.857,0l-1.094,1.823
		l-0.562-0.843C9.82,18.078,9.682,17.979,9.48,18c-0.174,0.006-0.331,0.103-0.416,0.255C8.803,18.72,7.5,21.087,7.5,22
		c0,1.103,0.897,2,2,2h5c1.103,0,2-0.897,2-2c0-0.913-1.303-3.28-1.564-3.745C14.851,18.104,14.693,18.007,14.52,18z M14.5,23h-5
		c-0.552,0-1-0.449-1-1c0-0.349,0.491-1.465,1.045-2.531l0.539,0.808c0.095,0.142,0.256,0.224,0.428,0.223
		c0.172-0.004,0.329-0.096,0.417-0.243L12,18.472l1.071,1.786c0.088,0.147,0.245,0.238,0.417,0.243
		c0.164,0.003,0.333-0.08,0.428-0.223l0.539-0.809C15.009,20.535,15.5,21.65,15.5,22C15.5,22.551,15.052,23,14.5,23z"/>
	<path d="M19.5,5H18V3h0.5C18.776,3,19,2.776,19,2.5S18.776,2,18.5,2h-1h-3.051C14.217,0.86,13.208,0,12,0S9.783,0.86,9.551,2H6.5
		h-1C5.224,2,5,2.224,5,2.5S5.224,3,5.5,3H6v2H4.5C4.224,5,4,5.224,4,5.5S4.224,6,4.5,6H6v7.5C6,14.878,7.121,16,8.5,16h7
		c1.379,0,2.5-1.122,2.5-2.5V6h1.5C19.776,6,20,5.776,20,5.5S19.776,5,19.5,5z M12,1c0.651,0,1.201,0.419,1.408,1h-2.816
		C10.799,1.419,11.349,1,12,1z M17,13.5c0,0.827-0.673,1.5-1.5,1.5h-7C7.673,15,7,14.327,7,13.5V3h10V13.5z"/>
</g>
</svg>
