<?xml version="1.0" encoding="utf-8"?>
<!-- Generator: Adobe Illustrator 16.2.1, SVG Export Plug-In . SVG Version: 6.00 Build 0)  -->
<!DOCTYPE svg PUBLIC "-//W3C//DTD SVG 1.1//EN" "http://www.w3.org/Graphics/SVG/1.1/DTD/svg11.dtd">
<svg version="1.1" id="Outline_Version" xmlns="http://www.w3.org/2000/svg" xmlns:xlink="http://www.w3.org/1999/xlink" x="0px"
	 y="0px" width="24px" height="24px" viewBox="0 0 24 24" enable-background="new 0 0 24 24" xml:space="preserve">
<path d="M23.854,0.854c0.195-0.195,0.195-0.512,0-0.707s-0.512-0.195-0.707,0L16.293,7H7H6V5.5C6,5.224,5.776,5,5.5,5h-3
	C2.224,5,2,5.224,2,5.5V7H0.5C0.224,7,0,7.224,0,7.5v3C0,10.776,0.224,11,0.5,11H2v10.5C2,21.776,2.224,22,2.5,22H13v1.5
	c0,0.276,0.224,0.5,0.5,0.5h3c0.276,0,0.5-0.224,0.5-0.5V22h1.5c0.276,0,0.5-0.224,0.5-0.5v-3c0-0.276-0.224-0.5-0.5-0.5H17V7.707
	L23.854,0.854z M3,6h2v1H3V6z M1,10V8h1h0.5h3H7h9v10h-2v-7.5c0-0.065-0.014-0.13-0.038-0.191c-0.051-0.123-0.148-0.22-0.271-0.271
	C13.63,10.013,13.565,10,13.5,10h-8h-3H1z M6,11h6.293L6,17.293V11z M13,11.707V18H6.707L13,11.707z M14,23v-1h2v1H14z M18,19v2
	h-1.5h-3H3V11h2v7.5c0,0.065,0.014,0.13,0.038,0.191c0.051,0.123,0.148,0.22,0.271,0.271C5.37,18.987,5.435,19,5.5,19h8h3H18z"/>
</svg>
