<?xml version="1.0" encoding="utf-8"?>
<!-- Generator: Adobe Illustrator 16.2.1, SVG Export Plug-In . SVG Version: 6.00 Build 0)  -->
<!DOCTYPE svg PUBLIC "-//W3C//DTD SVG 1.1//EN" "http://www.w3.org/Graphics/SVG/1.1/DTD/svg11.dtd">
<svg version="1.1" id="Outline_Version" xmlns="http://www.w3.org/2000/svg" xmlns:xlink="http://www.w3.org/1999/xlink" x="0px"
	 y="0px" width="24px" height="24px" viewBox="0 0 24 24" enable-background="new 0 0 24 24" xml:space="preserve">
<path d="M21.948,20.223C23.243,19.004,24,17.31,24,15.5c0-3.584-2.916-6.5-6.5-6.5c-0.963,0-1.884,0.215-2.749,0.62
	C14.058,9.294,13.3,9.087,12.5,9.025V7.949C13.916,7.71,15,6.483,15,5c0-1.654-1.346-3-3-3S9,3.346,9,5
	c0,1.483,1.084,2.71,2.5,2.949v1.076C10.7,9.087,9.942,9.294,9.248,9.62C8.383,9.215,7.461,9,6.5,9C2.916,9,0,11.916,0,15.5
	c0,1.81,0.757,3.504,2.052,4.723C1.37,20.572,1.011,21.286,1.011,22c0,0.994,0.683,2,1.989,2h18c1.306,0,1.989-1.006,1.989-2
	C22.989,21.286,22.631,20.572,21.948,20.223z M12,3c0.929,0,1.706,0.64,1.929,1.5h-3.858C10.294,3.64,11.071,3,12,3z M10.071,5.5
	h3.858C13.706,6.36,12.929,7,12,7S10.294,6.36,10.071,5.5z M1,15.5C1,12.467,3.467,10,6.5,10c0.573,0,1.128,0.095,1.663,0.266
	C6.552,11.45,5.5,13.352,5.5,15.5c0,0.738,0.123,1.464,0.366,2.157c0.091,0.26,0.377,0.399,0.637,0.306
	c0.26-0.091,0.397-0.376,0.306-0.637C6.604,16.74,6.5,16.125,6.5,15.5c0-3.033,2.467-5.5,5.5-5.5s5.5,2.467,5.5,5.5
	c0,0.637-0.109,1.264-0.324,1.862c-0.093,0.26,0.042,0.546,0.302,0.64c0.056,0.02,0.113,0.029,0.169,0.029
	c0.205,0,0.397-0.127,0.471-0.331c0.254-0.707,0.383-1.447,0.383-2.2c0-2.148-1.052-4.05-2.663-5.234
	C16.372,10.095,16.926,10,17.5,10c3.033,0,5.5,2.467,5.5,5.5c0,1.796-0.872,3.468-2.34,4.5H3.34C1.872,18.968,1,17.296,1,15.5z
	 M21,23H3c-0.73,0-0.989-0.539-0.989-1c0-0.461,0.259-1,0.989-1h0.186h17.629H21c0.73,0,0.989,0.539,0.989,1
	C21.989,22.461,21.73,23,21,23z"/>
</svg>
