<?xml version="1.0" encoding="utf-8"?>
<!-- Generator: Adobe Illustrator 16.2.1, SVG Export Plug-In . SVG Version: 6.00 Build 0)  -->
<!DOCTYPE svg PUBLIC "-//W3C//DTD SVG 1.1//EN" "http://www.w3.org/Graphics/SVG/1.1/DTD/svg11.dtd">
<svg version="1.1" id="Outline_Version" xmlns="http://www.w3.org/2000/svg" xmlns:xlink="http://www.w3.org/1999/xlink" x="0px"
	 y="0px" width="24px" height="24px" viewBox="0 0 24 24" enable-background="new 0 0 24 24" xml:space="preserve">
<g>
	<path d="M2,4c0,1.103,0.897,2,2,2h1.5c0.821,0,1.544-0.403,2-1.015C7.956,5.597,8.679,6,9.5,6H11c1.103,0,2-0.897,2-2
		c0.276,0,0.5-0.224,0.5-0.5v-1C13.5,2.224,13.276,2,13,2c-0.062,0-0.119,0.015-0.174,0.035C12.423,0.855,11.314,0,10,0H7.5H5
		C3.686,0,2.578,0.855,2.174,2.035C2.119,2.015,2.062,2,2,2C1.724,2,1.5,2.224,1.5,2.5v1C1.5,3.776,1.724,4,2,4z M12,3v1
		c0,0.551-0.448,1-1,1H9.5C8.673,5,8,4.327,8,3.5V1h2C11.103,1,12,1.897,12,3z M3,3c0-1.103,0.897-2,2-2h2v2.5
		C7,4.327,6.327,5,5.5,5H4C3.448,5,3,4.551,3,4V3z"/>
	<path d="M22,9.351V7.5C22,7.224,21.776,7,21.5,7h-0.557c-0.245-1.111-1.281-2-2.443-2h-1C15.145,5,14,6.309,14,9v7.75
		C14,20.897,12.065,23,8.25,23C4.804,23,2,20.196,2,16.75V13c0-1.787,1.352-3.25,3.084-3.458C5.322,10.381,6.087,11,7,11
		c1.103,0,2-0.897,2-2S8.103,7,7,7C6.055,7,5.265,7.661,5.057,8.545C2.786,8.771,1,10.67,1,13v3.75C1,20.748,4.252,24,8.25,24
		c4.353,0,6.75-2.575,6.75-7.25V9c0-2.637,1.201-3,2.5-3h1c0.548,0,1.16,0.412,1.396,1H19.5C19.224,7,19,7.224,19,7.5v1.851
		c-1.178,0.564-2,1.758-2,3.149V22c0,1.103,0.897,2,2,2h3c1.103,0,2-0.897,2-2v-9.5C24,11.109,23.178,9.915,22,9.351z M7,8
		c0.552,0,1,0.449,1,1s-0.448,1-1,1S6,9.551,6,9S6.448,8,7,8z M18,13h5v8h-5V13z M20,9V8h1v1H20z M20.5,10
		c1.208,0,2.217,0.86,2.449,2h-4.898C18.283,10.86,19.292,10,20.5,10z M22,23h-3c-0.552,0-1-0.449-1-1h5C23,22.551,22.552,23,22,23z
		"/>
</g>
</svg>
