<?xml version="1.0" encoding="utf-8"?>
<!-- Generator: Adobe Illustrator 16.2.1, SVG Export Plug-In . SVG Version: 6.00 Build 0)  -->
<!DOCTYPE svg PUBLIC "-//W3C//DTD SVG 1.1//EN" "http://www.w3.org/Graphics/SVG/1.1/DTD/svg11.dtd">
<svg version="1.1" id="Outline_Version" xmlns="http://www.w3.org/2000/svg" xmlns:xlink="http://www.w3.org/1999/xlink" x="0px"
	 y="0px" width="24px" height="24px" viewBox="0 0 24 24" enable-background="new 0 0 24 24" xml:space="preserve">
<path d="M20.5,2C18.57,2,17,3.57,17,5.5c0,0.169,0.019,0.335,0.042,0.5H7.727L4.376,2.171C4.281,2.062,4.144,2,4,2H0v1h3.773
	l2.625,3H4.5C4.298,6,4.115,6.122,4.038,6.309C3.96,6.496,4.003,6.71,4.146,6.854L12,14.707V23H8.5C8.224,23,8,23.224,8,23.5
	S8.224,24,8.5,24h8c0.276,0,0.5-0.224,0.5-0.5S16.776,23,16.5,23H13v-8.293l6.032-6.032C19.491,8.886,19.99,9,20.5,9
	C22.43,9,24,7.43,24,5.5S22.43,2,20.5,2z M19.293,7L12.5,13.793L5.707,7H19.293z M20.5,8c-0.236,0-0.469-0.035-0.694-0.099
	l1.047-1.047c0.143-0.143,0.186-0.358,0.108-0.545C20.885,6.122,20.702,6,20.5,6h-2.445C18.022,5.837,18,5.671,18,5.5
	C18,4.122,19.122,3,20.5,3S23,4.122,23,5.5S21.878,8,20.5,8z"/>
</svg>
