<?xml version="1.0" encoding="utf-8"?>
<!-- Generator: Adobe Illustrator 16.2.1, SVG Export Plug-In . SVG Version: 6.00 Build 0)  -->
<!DOCTYPE svg PUBLIC "-//W3C//DTD SVG 1.1//EN" "http://www.w3.org/Graphics/SVG/1.1/DTD/svg11.dtd">
<svg version="1.1" id="Outline_Version" xmlns="http://www.w3.org/2000/svg" xmlns:xlink="http://www.w3.org/1999/xlink" x="0px"
	 y="0px" width="24px" height="24px" viewBox="0 0 24 24" enable-background="new 0 0 24 24" xml:space="preserve">
<g>
	<path d="M20,3h-0.64l-0.886-2.658C18.406,0.138,18.215,0,18,0H6C5.785,0,5.594,0.138,5.526,0.342L4.64,3H4
		C3.724,3,3.5,3.224,3.5,3.5v4C3.5,7.776,3.724,8,4,8h0.53l0.971,15.531C5.518,23.795,5.736,24,6,24h12
		c0.264,0,0.482-0.205,0.499-0.469L19.47,8H20c0.276,0,0.5-0.224,0.5-0.5v-4C20.5,3.224,20.276,3,20,3z M6.36,1H17.64l0.667,2H5.694
		L6.36,1z M17.53,23H6.47l-0.312-5h11.686L17.53,23z M17.905,17H6.095l-0.312-5h12.436L17.905,17z M18.28,11H5.72L5.532,8h12.936
		L18.28,11z M19.5,7H19H5H4.5V4H5h14h0.02h0.48V7z"/>
	<path d="M9.5,15h5c0.276,0,0.5-0.224,0.5-0.5S14.776,14,14.5,14h-5C9.224,14,9,14.224,9,14.5S9.224,15,9.5,15z"/>
</g>
</svg>
