<?xml version="1.0" encoding="utf-8"?>
<!-- Generator: Adobe Illustrator 16.2.1, SVG Export Plug-In . SVG Version: 6.00 Build 0)  -->
<!DOCTYPE svg PUBLIC "-//W3C//DTD SVG 1.1//EN" "http://www.w3.org/Graphics/SVG/1.1/DTD/svg11.dtd">
<svg version="1.1" id="Outline_Version" xmlns="http://www.w3.org/2000/svg" xmlns:xlink="http://www.w3.org/1999/xlink" x="0px"
	 y="0px" width="24px" height="24px" viewBox="0 0 24 24" enable-background="new 0 0 24 24" xml:space="preserve">
<path d="M22,23.418V0.5c0-0.072-0.017-0.14-0.044-0.202c-0.001-0.001,0-0.003-0.001-0.005c-0.003-0.006-0.01-0.009-0.013-0.015
	c-0.035-0.07-0.087-0.126-0.149-0.172c-0.017-0.013-0.032-0.024-0.051-0.034C21.669,0.03,21.59,0,21.5,0h-18
	C3.41,0,3.331,0.03,3.258,0.071c-0.019,0.01-0.034,0.021-0.051,0.034C3.145,0.151,3.093,0.208,3.058,0.277
	c-0.003,0.006-0.01,0.009-0.013,0.015c-0.001,0.002,0,0.004-0.001,0.005C3.017,0.36,3,0.428,3,0.5v23
	c0,0.074,0.018,0.142,0.046,0.205c0.001,0.002,0,0.005,0.001,0.007c0.003,0.007,0.011,0.01,0.015,0.017
	c0.035,0.067,0.085,0.122,0.146,0.167c0.017,0.013,0.032,0.024,0.051,0.035C3.332,23.971,3.411,24,3.5,24h18c0.007,0,0.014,0,0.02,0
	c0.276,0,0.5-0.224,0.5-0.5C22.02,23.471,22.005,23.446,22,23.418z M6,20c-0.148,0-0.289,0.066-0.384,0.18L4,22.119V1.84
	l2.146,2.475C6.646,4.931,7.843,4.994,8.091,5H12v15H6z M13,5h3.909c0.004,0,0.009,0,0.013,0c0.235-0.006,1.431-0.069,1.92-0.672
	L21,1.84v20.279l-1.616-1.939C19.289,20.066,19.148,20,19,20h-6V5z M20.405,1l-2.329,2.685C17.94,3.854,17.35,3.986,16.902,4H8.105
	C7.656,3.987,7.061,3.854,6.913,3.672L4.595,1H20.405z M4.567,23l1.667-2h12.531l1.667,2H4.567z"/>
</svg>
