<?xml version="1.0" encoding="utf-8"?>
<!-- Generator: Adobe Illustrator 16.2.1, SVG Export Plug-In . SVG Version: 6.00 Build 0)  -->
<!DOCTYPE svg PUBLIC "-//W3C//DTD SVG 1.1//EN" "http://www.w3.org/Graphics/SVG/1.1/DTD/svg11.dtd">
<svg version="1.1" id="Outline_Version" xmlns="http://www.w3.org/2000/svg" xmlns:xlink="http://www.w3.org/1999/xlink" x="0px"
	 y="0px" width="24px" height="24px" viewBox="0 0 24 24" enable-background="new 0 0 24 24" xml:space="preserve">
<path d="M17.5,8H16V4.5C16,2.019,14.206,0,12,0S8,2.019,8,4.5V8H6.5C6.224,8,6,8.224,6,8.5S6.224,9,6.5,9H8v8.5
	c0,1.846,0.986,3.425,2,4.114V23.5c0,0.276,0.224,0.5,0.5,0.5h3c0.276,0,0.5-0.224,0.5-0.5v-1.886c1.014-0.688,2-2.268,2-4.114V9
	h1.5C17.776,9,18,8.776,18,8.5S17.776,8,17.5,8z M9,4.5C9,2.57,10.346,1,12,1s3,1.57,3,3.5V8H9V4.5z M15,17.5
	c0,1.716-1.012,3.014-1.73,3.389C13.104,20.975,13,21.146,13,21.332V23h-2v-1.668c0-0.187-0.104-0.357-0.27-0.443
	C10.012,20.514,9,19.216,9,17.5V16h1.5c0.276,0,0.5-0.224,0.5-0.5S10.776,15,10.5,15H9v-1h1.5c0.276,0,0.5-0.224,0.5-0.5
	S10.776,13,10.5,13H9v-1h1.5c0.276,0,0.5-0.224,0.5-0.5S10.776,11,10.5,11H9V9h6V17.5z"/>
</svg>
