<?xml version="1.0" encoding="utf-8"?>
<!-- Generator: Adobe Illustrator 16.2.1, SVG Export Plug-In . SVG Version: 6.00 Build 0)  -->
<!DOCTYPE svg PUBLIC "-//W3C//DTD SVG 1.1//EN" "http://www.w3.org/Graphics/SVG/1.1/DTD/svg11.dtd">
<svg version="1.1" id="Outline_Version" xmlns="http://www.w3.org/2000/svg" xmlns:xlink="http://www.w3.org/1999/xlink" x="0px"
	 y="0px" width="24px" height="24px" viewBox="0 0 24 24" enable-background="new 0 0 24 24" xml:space="preserve">
<g>
	<path d="M15.719,0.056C15.652,0.022,15.58,0,15.5,0c-0.276,0-0.509,0.223-0.509,0.499c0,0.016,0.007,0.029,0.009,0.045V23.5
		c0,0.276,0.224,0.5,0.5,0.5s0.5-0.224,0.5-0.5V16h2.5c0.276,0,0.5-0.224,0.5-0.5C19,9.376,17.832,0.634,15.719,0.056z M16,15V1.699
		c0.825,1.75,1.944,6.629,1.998,13.301H16z"/>
	<path d="M11.5,0C11.224,0,11,0.224,11,0.5v5c0,1.207-0.86,2.217-2,2.449V0.5C9,0.224,8.776,0,8.5,0S8,0.224,8,0.5v7.449
		C6.86,7.717,6,6.707,6,5.5v-5C6,0.224,5.776,0,5.5,0S5,0.224,5,0.5v5c0,1.758,1.309,3.204,3,3.449V23.5C8,23.776,8.224,24,8.5,24
		S9,23.776,9,23.5V8.949c1.691-0.245,3-1.691,3-3.449v-5C12,0.224,11.776,0,11.5,0z"/>
</g>
</svg>
