<?xml version="1.0" encoding="utf-8"?>
<!-- Generator: Adobe Illustrator 16.2.1, SVG Export Plug-In . SVG Version: 6.00 Build 0)  -->
<!DOCTYPE svg PUBLIC "-//W3C//DTD SVG 1.1//EN" "http://www.w3.org/Graphics/SVG/1.1/DTD/svg11.dtd">
<svg version="1.1" id="Outline_Version" xmlns="http://www.w3.org/2000/svg" xmlns:xlink="http://www.w3.org/1999/xlink" x="0px"
	 y="0px" width="24px" height="24px" viewBox="0 0 24 24" enable-background="new 0 0 24 24" xml:space="preserve">
<g>
	<path d="M5.5,5C4.673,5,4,5.673,4,6.5V18H1.5C1.224,18,1,18.224,1,18.5S1.224,19,1.5,19H4v4H0.5C0.224,23,0,23.224,0,23.5
		S0.224,24,0.5,24h4h2C6.776,24,7,23.776,7,23.5v-17C7,5.673,6.327,5,5.5,5z M5,23V6.5C5,6.224,5.225,6,5.5,6S6,6.224,6,6.5V23H5z"
		/>
	<path d="M23.8,16.1L22,14.75V9.5C22,8.122,20.879,7,19.5,7h-2C12.262,7,8,11.262,8,16.5V22c0,0.276,0.224,0.5,0.5,0.5h2.136
		c0.633,0.904,1.679,1.5,2.864,1.5s2.231-0.596,2.864-1.5h1.848c0.387,0.881,1.266,1.5,2.288,1.5s1.901-0.619,2.288-1.5H23.5
		c0.276,0,0.5-0.224,0.5-0.5v-5.5C24,16.343,23.926,16.194,23.8,16.1z M9,21.5v-3.293l4-4l0.146,0.146
		c0.098,0.098,0.226,0.146,0.354,0.146s0.256-0.049,0.354-0.146c0.195-0.195,0.195-0.512,0-0.707l-1-1
		c-0.195-0.195-0.512-0.195-0.707,0s-0.195,0.512,0,0.707l0.146,0.146L9,16.793V16.5C9,11.813,12.813,8,17.5,8h2
		C20.327,8,21,8.673,21,9.5v5h-2.359l0.845-3.379c0.066-0.268-0.096-0.539-0.364-0.606c-0.273-0.068-0.54,0.095-0.606,0.364
		L17.609,14.5H16c-0.133,0-0.26,0.053-0.354,0.146l-2.377,2.377C11.449,17.145,10,18.649,10,20.5c0,0.35,0.067,0.681,0.163,1H9z
		 M13.5,23c-1.379,0-2.5-1.122-2.5-2.5s1.121-2.5,2.5-2.5s2.5,1.122,2.5,2.5S14.879,23,13.5,23z M20.5,23
		c-0.698,0-1.281-0.481-1.447-1.128c-0.008-0.027-0.012-0.056-0.023-0.081C19.011,21.697,19,21.6,19,21.5c0-0.827,0.673-1.5,1.5-1.5
		s1.5,0.673,1.5,1.5c0,0.1-0.011,0.197-0.029,0.292c-0.012,0.025-0.016,0.053-0.023,0.081C21.781,22.519,21.198,23,20.5,23z
		 M23,21.5c0-1.378-1.121-2.5-2.5-2.5S18,20.122,18,21.5h-1.163c0.096-0.319,0.163-0.65,0.163-1c0-1.567-1.043-2.882-2.467-3.326
		l1.674-1.674h5.127L23,16.75V21.5z"/>
</g>
</svg>
