<?xml version="1.0" encoding="utf-8"?>
<!-- Generator: Adobe Illustrator 16.2.1, SVG Export Plug-In . SVG Version: 6.00 Build 0)  -->
<!DOCTYPE svg PUBLIC "-//W3C//DTD SVG 1.1//EN" "http://www.w3.org/Graphics/SVG/1.1/DTD/svg11.dtd">
<svg version="1.1" id="Outline_Version" xmlns="http://www.w3.org/2000/svg" xmlns:xlink="http://www.w3.org/1999/xlink" x="0px"
	 y="0px" width="24px" height="24px" viewBox="0 0 24 24" enable-background="new 0 0 24 24" xml:space="preserve">
<path d="M19.426,10.738l-3.854-6.264l1.876-3.751c0.078-0.155,0.069-0.339-0.022-0.486S17.173,0,17,0H5.5
	C5.318,0,5.151,0.099,5.062,0.258C4.975,0.417,4.979,0.611,5.076,0.765l2.336,3.737l-3.838,6.236
	c-0.089,0.145-0.099,0.325-0.025,0.479l6,12.5C9.632,23.89,9.808,24,10,24h3c0.192,0,0.368-0.11,0.451-0.283l6-12.5
	C19.524,11.063,19.515,10.883,19.426,10.738z M16.191,1l-1.5,3H8.277L6.402,1H16.191z M11.5,12c-0.827,0-1.5-0.673-1.5-1.5
	S10.673,9,11.5,9S13,9.673,13,10.5S12.327,12,11.5,12z M12.686,23H12V12.949c1.14-0.232,2-1.241,2-2.449C14,9.121,12.878,8,11.5,8
	S9,9.121,9,10.5c0,1.208,0.86,2.217,2,2.449V23h-0.686L4.569,11.029L8.279,5h6.441l3.71,6.029L12.686,23z"/>
</svg>
