<?xml version="1.0" encoding="utf-8"?>
<!-- Generator: Adobe Illustrator 16.2.1, SVG Export Plug-In . SVG Version: 6.00 Build 0)  -->
<!DOCTYPE svg PUBLIC "-//W3C//DTD SVG 1.1//EN" "http://www.w3.org/Graphics/SVG/1.1/DTD/svg11.dtd">
<svg version="1.1" id="Outline_Version" xmlns="http://www.w3.org/2000/svg" xmlns:xlink="http://www.w3.org/1999/xlink" x="0px"
	 y="0px" width="24px" height="24px" viewBox="0 0 24 24" enable-background="new 0 0 24 24" xml:space="preserve">
<path d="M13.5,6.35V5H14c0.229,0,0.429-0.156,0.485-0.379l1-4c0.038-0.149,0.004-0.308-0.091-0.429S15.154,0,15,0H8
	C7.846,0,7.701,0.071,7.606,0.192S7.478,0.472,7.515,0.621l1,4C8.571,4.844,8.771,5,9,5h0.5v1.35c-2.327,0.827-4,3.044-4,5.65
	c0,3.138,4.862,11.404,5.069,11.754C10.66,23.906,10.823,24,11,24h1c0.165,0,0.318-0.081,0.412-0.216
	C13.638,22.006,17.5,14.798,17.5,12C17.5,9.394,15.827,7.177,13.5,6.35z M8.641,1h5.719l-0.75,3H9.391L8.641,1z M10.5,5h2v1.09
	C12.174,6.035,11.841,6,11.5,6s-0.674,0.035-1,0.09V5z M11.5,14c-0.551,0-1-0.448-1-1s0.449-1,1-1s1,0.448,1,1S12.051,14,11.5,14z
	 M12,22.575v-7.646c0.86-0.224,1.5-1,1.5-1.929c0-1.103-0.897-2-2-2s-2,0.897-2,2c0,0.929,0.64,1.705,1.5,1.929v7.568
	C9.805,20.393,6.5,14.36,6.5,12c0-2.757,2.243-5,5-5s5,2.243,5,5C16.5,14.211,13.481,20.15,12,22.575z"/>
</svg>
