<?xml version="1.0" encoding="utf-8"?>
<!-- Generator: Adobe Illustrator 16.2.1, SVG Export Plug-In . SVG Version: 6.00 Build 0)  -->
<!DOCTYPE svg PUBLIC "-//W3C//DTD SVG 1.1//EN" "http://www.w3.org/Graphics/SVG/1.1/DTD/svg11.dtd">
<svg version="1.1" id="Outline_Version" xmlns="http://www.w3.org/2000/svg" xmlns:xlink="http://www.w3.org/1999/xlink" x="0px"
	 y="0px" width="24px" height="24px" viewBox="0 0 24 24" enable-background="new 0 0 24 24" xml:space="preserve">
<g>
	<path d="M12,0C5.383,0,0,5.383,0,12s5.383,12,12,12s12-5.383,12-12S18.617,0,12,0z M12,23C5.935,23,1,18.065,1,12S5.935,1,12,1
		s11,4.935,11,11S18.065,23,12,23z"/>
	<path d="M18.363,5.637c-0.195-0.195-0.512-0.195-0.707,0l-4.646,4.646C12.712,10.108,12.37,10,12,10c-1.103,0-2,0.897-2,2
		s0.897,2,2,2s2-0.897,2-2c0-0.37-0.108-0.712-0.283-1.01l4.646-4.646C18.559,6.148,18.559,5.832,18.363,5.637z M12,13
		c-0.551,0-1-0.449-1-1s0.449-1,1-1s1,0.449,1,1S12.551,13,12,13z"/>
	<path d="M4.943,12.186c0-0.276-0.224-0.5-0.5-0.5h-2c-0.276,0-0.5,0.224-0.5,0.5s0.224,0.5,0.5,0.5h2
		C4.72,12.686,4.943,12.462,4.943,12.186z"/>
	<path d="M4.879,14.408l-1.848,0.765c-0.255,0.105-0.376,0.398-0.271,0.653c0.08,0.192,0.266,0.309,0.462,0.309
		c0.064,0,0.129-0.012,0.191-0.038l1.848-0.765c0.255-0.105,0.376-0.398,0.271-0.653C5.427,14.424,5.134,14.303,4.879,14.408z"/>
	<path d="M20.967,15.174l-1.847-0.766c-0.254-0.104-0.548,0.015-0.653,0.271c-0.106,0.255,0.015,0.547,0.271,0.653l1.847,0.766
		c0.062,0.026,0.127,0.038,0.191,0.038c0.196,0,0.382-0.116,0.462-0.309C21.343,15.572,21.222,15.28,20.967,15.174z"/>
	<path d="M21.5,11.501l-2-0.001c-0.276,0-0.5,0.224-0.5,0.5c0,0.276,0.224,0.5,0.5,0.5l2,0.001c0.276,0,0.5-0.224,0.5-0.5
		C21.999,11.725,21.775,11.501,21.5,11.501z"/>
	<path d="M18.467,9.321c0.08,0.192,0.266,0.309,0.462,0.309c0.064,0,0.129-0.012,0.191-0.038l1.848-0.765
		c0.255-0.105,0.376-0.398,0.271-0.653c-0.105-0.255-0.399-0.375-0.653-0.271l-1.848,0.765C18.482,8.773,18.361,9.066,18.467,9.321z
		"/>
	<path d="M14.679,5.532c0.062,0.026,0.127,0.038,0.191,0.038c0.196,0,0.382-0.116,0.462-0.309l0.766-1.847
		c0.106-0.255-0.015-0.547-0.271-0.653c-0.253-0.105-0.548,0.015-0.653,0.271l-0.766,1.847C14.302,5.134,14.423,5.426,14.679,5.532z
		"/>
	<path d="M11.943,5.186c0.276,0,0.5-0.224,0.5-0.5v-2c0-0.276-0.224-0.5-0.5-0.5s-0.5,0.224-0.5,0.5v2
		C11.443,4.962,11.667,5.186,11.943,5.186z"/>
	<path d="M8.668,5.262C8.748,5.454,8.934,5.57,9.13,5.57c0.064,0,0.129-0.012,0.191-0.038c0.255-0.105,0.376-0.398,0.271-0.653
		L8.827,3.031C8.722,2.776,8.428,2.655,8.174,2.761C7.919,2.866,7.798,3.159,7.903,3.414L8.668,5.262z"/>
	<path d="M7.05,6.343L5.637,4.929c-0.195-0.195-0.512-0.195-0.707,0c-0.195,0.195-0.195,0.512,0,0.707L6.343,7.05
		C6.44,7.147,6.568,7.196,6.696,7.196S6.952,7.147,7.05,7.05C7.245,6.855,7.245,6.538,7.05,6.343z"/>
	<path d="M5.262,8.668L3.415,7.902C3.161,7.798,2.867,7.917,2.762,8.173C2.656,8.428,2.777,8.72,3.032,8.826l1.847,0.766
		C4.941,9.618,5.006,9.63,5.07,9.63c0.196,0,0.382-0.116,0.462-0.309C5.638,9.066,5.517,8.774,5.262,8.668z"/>
	<path d="M16.5,16h-9C7.224,16,7,16.224,7,16.5v3C7,19.776,7.224,20,7.5,20h9c0.276,0,0.5-0.224,0.5-0.5v-3
		C17,16.224,16.776,16,16.5,16z M16,19H8v-2h8V19z"/>
</g>
</svg>
