<?xml version="1.0" encoding="utf-8"?>
<!-- Generator: Adobe Illustrator 16.2.1, SVG Export Plug-In . SVG Version: 6.00 Build 0)  -->
<!DOCTYPE svg PUBLIC "-//W3C//DTD SVG 1.1//EN" "http://www.w3.org/Graphics/SVG/1.1/DTD/svg11.dtd">
<svg version="1.1" id="Outline_Version" xmlns="http://www.w3.org/2000/svg" xmlns:xlink="http://www.w3.org/1999/xlink" x="0px"
	 y="0px" width="24px" height="24px" viewBox="0 0 24 24" enable-background="new 0 0 24 24" xml:space="preserve">
<g>
	<path d="M10.501,17.484c4.687,0,8.5-3.812,8.5-8.499c0-4.687-3.813-8.5-8.5-8.5s-8.5,3.813-8.5,8.5
		C2.001,13.672,5.814,17.484,10.501,17.484z M10.501,1.485c4.136,0,7.5,3.364,7.5,7.5c0,4.135-3.364,7.499-7.5,7.499
		s-7.5-3.364-7.5-7.499C3.001,4.85,6.365,1.485,10.501,1.485z"/>
	<path d="M18.633,17.117c4.364-4.365,4.468-11.386,0.336-15.892l0.371-0.372c0.195-0.195,0.195-0.512,0-0.707s-0.512-0.195-0.707,0
		l-1.414,1.414c-0.195,0.195-0.195,0.512,0,0.707c0.098,0.098,0.226,0.146,0.354,0.146s0.256-0.049,0.354-0.146l0.336-0.335
		c3.741,4.116,3.638,10.503-0.336,14.478c-3.975,3.975-10.361,4.077-14.478,0.334l0.335-0.334c0.195-0.195,0.195-0.512,0-0.707
		s-0.512-0.195-0.707,0l-0.703,0.702c-0.001,0.001-0.003,0.001-0.004,0.003s-0.002,0.003-0.003,0.004l-0.704,0.704
		c-0.195,0.195-0.195,0.512,0,0.707c0.098,0.098,0.226,0.146,0.354,0.146s0.256-0.049,0.354-0.146l0.372-0.372
		c1.929,1.769,4.313,2.768,6.76,2.98v0.605c-1.909,0.181-3.719,0.876-5.282,2.047c-0.172,0.129-0.242,0.354-0.175,0.559
		c0.068,0.204,0.26,0.342,0.475,0.342h11.964c0.215,0,0.406-0.138,0.475-0.342c0.067-0.205-0.003-0.429-0.175-0.559
		c-1.563-1.17-3.372-1.866-5.281-2.047v-0.605C14.104,20.207,16.646,19.104,18.633,17.117z M6.271,22.984
		c2.617-1.315,5.845-1.315,8.46,0H6.271z"/>
</g>
</svg>
