<?xml version="1.0" encoding="utf-8"?>
<!-- Generator: Adobe Illustrator 16.2.1, SVG Export Plug-In . SVG Version: 6.00 Build 0)  -->
<!DOCTYPE svg PUBLIC "-//W3C//DTD SVG 1.1//EN" "http://www.w3.org/Graphics/SVG/1.1/DTD/svg11.dtd">
<svg version="1.1" id="Outline_Version" xmlns="http://www.w3.org/2000/svg" xmlns:xlink="http://www.w3.org/1999/xlink" x="0px"
	 y="0px" width="24px" height="24px" viewBox="0 0 24 24" enable-background="new 0 0 24 24" xml:space="preserve">
<path d="M23.5,12c0.276,0,0.5-0.224,0.5-0.5S23.776,11,23.5,11H17V7h6.5C23.776,7,24,6.776,24,6.5S23.776,6,23.5,6H17V0.5
	C17,0.224,16.776,0,16.5,0S16,0.224,16,0.5V6h-4V0.5C12,0.224,11.776,0,11.5,0S11,0.224,11,0.5V6H7V0.5C7,0.224,6.776,0,6.5,0
	S6,0.224,6,0.5V6H0.5C0.224,6,0,6.224,0,6.5S0.224,7,0.5,7H6v4H0.5C0.224,11,0,11.224,0,11.5S0.224,12,0.5,12H6v4H0.5
	C0.224,16,0,16.224,0,16.5S0.224,17,0.5,17H6v6.5C6,23.776,6.224,24,6.5,24S7,23.776,7,23.5V17h4v6.5c0,0.276,0.224,0.5,0.5,0.5
	s0.5-0.224,0.5-0.5V17h4v6.5c0,0.276,0.224,0.5,0.5,0.5s0.5-0.224,0.5-0.5V17h6.5c0.276,0,0.5-0.224,0.5-0.5S23.776,16,23.5,16H17
	v-4H23.5z M16,7v4h-4V7H16z M7,7h4v4H7V7z M7,16v-4h4v4H7z M16,16h-4v-4h4V16z"/>
</svg>
