<?xml version="1.0" encoding="utf-8"?>
<!-- Generator: Adobe Illustrator 16.2.1, SVG Export Plug-In . SVG Version: 6.00 Build 0)  -->
<!DOCTYPE svg PUBLIC "-//W3C//DTD SVG 1.1//EN" "http://www.w3.org/Graphics/SVG/1.1/DTD/svg11.dtd">
<svg version="1.1" id="Outline_Version" xmlns="http://www.w3.org/2000/svg" xmlns:xlink="http://www.w3.org/1999/xlink" x="0px"
	 y="0px" width="24px" height="24px" viewBox="0 0 24 24" enable-background="new 0 0 24 24" xml:space="preserve">
<g>
	<path d="M11,13.5c0-0.276-0.224-0.5-0.5-0.5h-2C8.224,13,8,13.224,8,13.5S8.224,14,8.5,14h2C10.776,14,11,13.776,11,13.5z"/>
	<path d="M4.5,10h9c0.276,0,0.5-0.224,0.5-0.5S13.776,9,13.5,9h-9C4.224,9,4,9.224,4,9.5S4.224,10,4.5,10z"/>
	<path d="M15.976,11.976C18.786,11.733,21,9.372,21,6.5c0-2.864-2.201-5.221-5-5.475V0.5C16,0.224,15.776,0,15.5,0S15,0.224,15,0.5
		v1V11H3.5C3.224,11,3,11.224,3,11.5c0,2.482,1.4,4.643,3.451,5.737l-0.945,6.188c-0.042,0.273,0.146,0.528,0.418,0.57
		C5.95,23.998,5.976,24,6,24c0.243,0,0.456-0.177,0.494-0.424L7.04,20h4.591l0.009,0.202C10.968,20.525,10.5,21.206,10.5,22
		c0,1.103,0.897,2,2,2s2-0.897,2-2c0-1.058-0.827-1.917-1.868-1.987l-0.118-2.76C14.451,16.235,15.809,14.27,15.976,11.976z M20,6.5
		c0,2.312-1.753,4.223-4,4.472V2.028C18.247,2.277,20,4.188,20,6.5z M4.022,12h10.955c-0.18,1.982-1.425,3.646-3.147,4.459
		c-0.034,0.013-0.064,0.029-0.095,0.048C11.05,16.814,10.299,17,9.5,17C6.636,17,4.276,14.799,4.022,12z M13.5,22
		c0,0.551-0.449,1-1,1s-1-0.449-1-1s0.449-1,1-1S13.5,21.449,13.5,22z M11.588,19H7.193L7.4,17.645C8.06,17.872,8.765,18,9.5,18
		c0.71,0,1.392-0.118,2.031-0.33L11.588,19z"/>
</g>
</svg>
