<?xml version="1.0" encoding="utf-8"?>
<!-- Generator: Adobe Illustrator 16.2.1, SVG Export Plug-In . SVG Version: 6.00 Build 0)  -->
<!DOCTYPE svg PUBLIC "-//W3C//DTD SVG 1.1//EN" "http://www.w3.org/Graphics/SVG/1.1/DTD/svg11.dtd">
<svg version="1.1" id="Outline_Version" xmlns="http://www.w3.org/2000/svg" xmlns:xlink="http://www.w3.org/1999/xlink" x="0px"
	 y="0px" width="24px" height="24px" viewBox="0 0 24 24" enable-background="new 0 0 24 24" xml:space="preserve">
<g>
	<path d="M19,9h-1.5V5.5C17.5,2.467,15.033,0,12,0S6.5,2.467,6.5,5.5V9H5c-2.757,0-5,2.243-5,5v6.5C0,22.43,1.57,24,3.5,24h17
		c1.93,0,3.5-1.57,3.5-3.5V14C24,11.243,21.757,9,19,9z M7.5,5.5C7.5,3.019,9.519,1,12,1s4.5,2.019,4.5,4.5V9h-9V5.5z M5,10h1.5v1.5
		C6.5,11.776,6.724,12,7,12s0.5-0.224,0.5-0.5V10h9v1.5c0,0.276,0.224,0.5,0.5,0.5s0.5-0.224,0.5-0.5V10H19c2.206,0,4,1.794,4,4
		v4.025c-2.634,0.239-4.736,2.341-4.975,4.975H5.975C5.736,20.366,3.634,18.264,1,18.025V14C1,11.794,2.794,10,5,10z M1,20.5v-1.449
		C3.078,19.284,4.716,20.922,4.949,23H3.5C2.122,23,1,21.878,1,20.5z M20.5,23h-1.449c0.233-2.078,1.872-3.716,3.949-3.949V20.5
		C23,21.878,21.878,23,20.5,23z"/>
	<path d="M2.5,15h19c0.276,0,0.5-0.224,0.5-0.5S21.776,14,21.5,14h-19C2.224,14,2,14.224,2,14.5S2.224,15,2.5,15z"/>
	<path d="M4.5,15.5C4.224,15.5,4,15.724,4,16v1c0,0.276,0.224,0.5,0.5,0.5S5,17.276,5,17v-1C5,15.724,4.776,15.5,4.5,15.5z"/>
</g>
</svg>
