<?xml version="1.0" encoding="utf-8"?>
<!-- Generator: Adobe Illustrator 16.2.1, SVG Export Plug-In . SVG Version: 6.00 Build 0)  -->
<!DOCTYPE svg PUBLIC "-//W3C//DTD SVG 1.1//EN" "http://www.w3.org/Graphics/SVG/1.1/DTD/svg11.dtd">
<svg version="1.1" id="Outline_Version" xmlns="http://www.w3.org/2000/svg" xmlns:xlink="http://www.w3.org/1999/xlink" x="0px"
	 y="0px" width="24px" height="24px" viewBox="0 0 24 24" enable-background="new 0 0 24 24" xml:space="preserve">
<path d="M24,15c0-1.208-0.86-2.217-2-2.449V12c0-1.379-1.122-2.5-2.5-2.5h-0.025c-0.259-3.902-3.508-7-7.475-7s-7.215,3.098-7.475,7
	H4.5C3.122,9.5,2,10.621,2,12v0.551C0.86,12.783,0,13.792,0,15s0.86,2.217,2,2.449V18c0,1.379,1.122,2.5,2.5,2.5h2
	C6.776,20.5,7,20.276,7,20V10c0-0.276-0.224-0.5-0.5-0.5H5.525c0.257-3.351,3.06-6,6.475-6s6.218,2.649,6.475,6H17.5
	C17.224,9.5,17,9.724,17,10v10c0,0.276,0.224,0.5,0.5,0.5h2c1.378,0,2.5-1.121,2.5-2.5v-0.551C23.14,17.217,24,16.208,24,15z M1,15
	c0-0.651,0.419-1.201,1-1.408v2.816C1.419,16.201,1,15.651,1,15z M6,19.5H4.5C3.673,19.5,3,18.827,3,18v-6
	c0-0.827,0.673-1.5,1.5-1.5H6V19.5z M21,18c0,0.827-0.673,1.5-1.5,1.5H18v-9h1.5c0.827,0,1.5,0.673,1.5,1.5V18z M22,16.408v-2.816
	c0.581,0.207,1,0.757,1,1.408S22.581,16.201,22,16.408z"/>
</svg>
