<?xml version="1.0" encoding="utf-8"?>
<!-- Generator: Adobe Illustrator 16.2.1, SVG Export Plug-In . SVG Version: 6.00 Build 0)  -->
<!DOCTYPE svg PUBLIC "-//W3C//DTD SVG 1.1//EN" "http://www.w3.org/Graphics/SVG/1.1/DTD/svg11.dtd">
<svg version="1.1" id="Outline_Version" xmlns="http://www.w3.org/2000/svg" xmlns:xlink="http://www.w3.org/1999/xlink" x="0px"
	 y="0px" width="24px" height="24px" viewBox="0 0 24 24" enable-background="new 0 0 24 24" xml:space="preserve">
<path d="M17.408,0.5c-2.063,0-4.336,1.259-5.408,4.021c-1.055-2.719-3.271-3.958-5.28-3.958C3.877,0.563,1,3.003,1,7.666
	c0,8.455,10.286,15.354,10.724,15.644c0.084,0.056,0.18,0.083,0.276,0.083c0.108,0,0.216-0.035,0.306-0.104
	C12.743,22.95,23,14.921,23,7.074C23,2.758,20.187,0.5,17.408,0.5z M11.978,22.269C10.288,21.068,2,14.817,2,7.666
	c0-4.192,2.446-6.103,4.72-6.103c1.854,0,4.219,1.309,4.786,4.995C11.543,6.803,11.753,6.982,12,6.982s0.457-0.18,0.494-0.424
	C13.069,2.824,15.5,1.5,17.408,1.5C19.62,1.5,22,3.244,22,7.074C22,13.733,13.639,20.91,11.978,22.269z"/>
</svg>
