<?xml version="1.0" encoding="utf-8"?>
<!-- Generator: Adobe Illustrator 16.2.1, SVG Export Plug-In . SVG Version: 6.00 Build 0)  -->
<!DOCTYPE svg PUBLIC "-//W3C//DTD SVG 1.1//EN" "http://www.w3.org/Graphics/SVG/1.1/DTD/svg11.dtd">
<svg version="1.1" id="Outline_Version" xmlns="http://www.w3.org/2000/svg" xmlns:xlink="http://www.w3.org/1999/xlink" x="0px"
	 y="0px" width="24px" height="24px" viewBox="0 0 24 24" enable-background="new 0 0 24 24" xml:space="preserve">
<g>
	<path d="M7.481,16.521c-0.094-0.094-0.146-0.219-0.146-0.352s0.052-0.258,0.148-0.354c0.094-0.094,0.219-0.146,0.353-0.146
		c0.134,0,0.259,0.052,0.354,0.146c0.585,0.585,1.536,0.585,2.121,0c0.284-0.284,0.44-0.661,0.439-1.062
		c0-0.4-0.156-0.777-0.439-1.059c-0.195-0.196-0.195-0.514,0-0.709c0.094-0.094,0.219-0.146,0.353-0.146
		c0.134,0,0.259,0.052,0.354,0.146c0.585,0.585,1.536,0.585,2.121,0c0.284-0.284,0.44-0.661,0.439-1.062
		c0-0.4-0.156-0.777-0.439-1.059c-0.195-0.195-0.195-0.513,0-0.708c0.195-0.195,0.512-0.195,0.707,0
		c0.283,0.284,0.661,0.44,1.062,0.44c0,0,0,0,0.001,0c0.401,0,0.778-0.157,1.06-0.44c0.583-0.583,0.584-1.535,0-2.122
		c-0.194-0.194-0.194-0.511,0-0.707c0.188-0.189,0.517-0.188,0.707,0c0.585,0.585,1.536,0.585,2.121,0
		c0.284-0.284,0.44-0.662,0.439-1.063c-0.001-0.401-0.158-0.776-0.439-1.056c-0.195-0.197-0.196-0.516-0.002-0.71
		c0.195-0.194,0.513-0.195,0.708,0s0.512,0.195,0.707,0s0.195-0.512,0-0.707c-0.584-0.584-1.536-0.586-2.122-0.001
		c-0.583,0.583-0.584,1.535,0.001,2.125c0.094,0.093,0.146,0.218,0.146,0.351c0,0.133-0.052,0.259-0.146,0.354
		c-0.195,0.194-0.512,0.195-0.708,0c-0.567-0.566-1.556-0.566-2.121,0.001c-0.583,0.585-0.583,1.536,0,2.119
		c0.195,0.196,0.196,0.514,0,0.71c-0.094,0.094-0.219,0.146-0.353,0.146s-0.26-0.052-0.354-0.147c-0.585-0.584-1.537-0.586-2.122,0
		c-0.583,0.584-0.583,1.536,0.001,2.121c0.094,0.094,0.146,0.219,0.146,0.353c0,0.134-0.052,0.259-0.146,0.354
		c-0.189,0.188-0.518,0.188-0.707,0c-0.283-0.283-0.66-0.439-1.061-0.439c0,0,0,0-0.001,0c-0.4,0-0.777,0.156-1.059,0.439
		c-0.584,0.584-0.584,1.536,0,2.123c0.094,0.094,0.146,0.219,0.146,0.353c0,0.134-0.052,0.259-0.146,0.354
		c-0.195,0.195-0.512,0.195-0.707,0c-0.283-0.283-0.66-0.439-1.061-0.439c0,0,0,0-0.001,0c-0.4,0-0.777,0.156-1.058,0.438
		c-0.285,0.283-0.441,0.66-0.441,1.061s0.157,0.778,0.439,1.059c0.195,0.196,0.195,0.514,0.001,0.708
		c-0.196,0.195-0.514,0.194-0.708,0.001c-0.283-0.284-0.659-0.439-1.06-0.44c0,0-0.001,0-0.001,0c-0.401,0-0.778,0.156-1.061,0.439
		c-0.284,0.283-0.44,0.66-0.44,1.06s0.156,0.777,0.439,1.061c0.098,0.098,0.226,0.147,0.354,0.147s0.255-0.049,0.353-0.146
		c0.196-0.195,0.196-0.512,0.001-0.707c-0.095-0.095-0.147-0.221-0.147-0.355c0-0.133,0.052-0.258,0.146-0.353
		s0.22-0.146,0.354-0.146c0.133,0,0.259,0.052,0.354,0.147c0.584,0.583,1.537,0.583,2.122-0.001
		C8.065,18.059,8.065,17.107,7.481,16.521z"/>
	<path d="M22.587,5.479c0.196-1.091-0.123-2.257-0.963-3.099c-0.803-0.803-1.969-1.11-3.058-0.938
		c-2.268-1.874-4.679-1.933-6.487-0.122L1.471,11.926c-1.474,1.472-2.035,4.089,0.096,6.446c-0.037,0.205-0.061,0.413-0.061,0.625
		c0,0.936,0.364,1.814,1.025,2.475s1.54,1.025,2.475,1.025c0.219,0,0.434-0.024,0.645-0.063c0.971,0.908,2.089,1.409,3.266,1.417
		c0.009,0,0.019,0,0.028,0c1.153,0,2.293-0.479,3.133-1.318l10.605-10.606C24.196,10.415,24.719,7.859,22.587,5.479z M2.178,12.634
		L12.786,2.027c1.296-1.299,2.961-1.354,4.649-0.194c-0.274,0.148-0.536,0.321-0.762,0.547L2.532,16.521
		c-0.227,0.228-0.405,0.488-0.56,0.76C0.678,15.526,1.083,13.727,2.178,12.634z M3.239,20.766c-0.472-0.472-0.732-1.1-0.732-1.768
		c0-0.668,0.26-1.296,0.732-1.769L17.38,3.087c0.473-0.472,1.101-0.731,1.769-0.731c0.668,0,1.296,0.26,1.768,0.731
		c0.974,0.975,0.974,2.561,0,3.536L6.774,20.766C5.831,21.709,4.183,21.708,3.239,20.766z M21.977,11.22L11.372,21.826
		c-0.658,0.658-1.582,0.993-2.447,1.025c-0.773-0.005-1.526-0.29-2.213-0.814c0.276-0.155,0.54-0.335,0.77-0.565L21.624,7.33
		c0.231-0.231,0.409-0.494,0.562-0.767C23.569,8.434,22.991,10.206,21.977,11.22z"/>
</g>
</svg>
