<?xml version="1.0" encoding="utf-8"?>
<!-- Generator: Adobe Illustrator 16.2.1, SVG Export Plug-In . SVG Version: 6.00 Build 0)  -->
<!DOCTYPE svg PUBLIC "-//W3C//DTD SVG 1.1//EN" "http://www.w3.org/Graphics/SVG/1.1/DTD/svg11.dtd">
<svg version="1.1" id="Outline_Version" xmlns="http://www.w3.org/2000/svg" xmlns:xlink="http://www.w3.org/1999/xlink" x="0px"
	 y="0px" width="24px" height="24px" viewBox="0 0 24 24" enable-background="new 0 0 24 24" xml:space="preserve">
<g>
	<path d="M11,0C8.243,0,6,2.243,6,5v12.5C6,17.776,6.224,18,6.5,18H10v5.5c0,0.276,0.224,0.5,0.5,0.5s0.5-0.224,0.5-0.5V18h4.5
		c0.276,0,0.5-0.224,0.5-0.5V5C16,2.243,13.757,0,11,0z M15,17H7V5c0-2.206,1.794-4,4-4s4,1.794,4,4V17z"/>
	<path d="M13,11V7c0-0.827-0.673-1.5-1.5-1.5S10,6.173,10,7c0,0.276-0.225,0.5-0.5,0.5S9,7.276,9,7V5c0-0.276-0.224-0.5-0.5-0.5
		S8,4.724,8,5v2c0,0.827,0.673,1.5,1.5,1.5S11,7.827,11,7c0-0.276,0.225-0.5,0.5-0.5S12,6.724,12,7v4c0,0.827,0.673,1.5,1.5,1.5
		c0.276,0,0.5-0.224,0.5-0.5s-0.224-0.5-0.5-0.5C13.225,11.5,13,11.276,13,11z"/>
</g>
</svg>
