<?xml version="1.0" encoding="utf-8"?>
<!-- Generator: Adobe Illustrator 16.2.1, SVG Export Plug-In . SVG Version: 6.00 Build 0)  -->
<!DOCTYPE svg PUBLIC "-//W3C//DTD SVG 1.1//EN" "http://www.w3.org/Graphics/SVG/1.1/DTD/svg11.dtd">
<svg version="1.1" id="Outline_Version" xmlns="http://www.w3.org/2000/svg" xmlns:xlink="http://www.w3.org/1999/xlink" x="0px"
	 y="0px" width="24px" height="24px" viewBox="0 0 24 24" enable-background="new 0 0 24 24" xml:space="preserve">
<g>
	<path d="M23.5,0h-23C0.224,0,0,0.224,0,0.5v23C0,23.776,0.224,24,0.5,24h23c0.276,0,0.5-0.224,0.5-0.5v-23
		C24,0.224,23.776,0,23.5,0z M23,1v16h-0.691l-3.398-6.795C18.54,9.462,17.794,9,16.963,9c-0.771,0-1.491,0.414-1.88,1.08
		l-2.638,4.521C11.668,13.664,10.008,12,8,12c-2.465,0-4.312,3.802-4.832,5H1V1H23z M21.19,17H4.268C4.994,15.469,6.484,13,8,13
		c2.199,0,4.065,2.75,4.084,2.777c0.095,0.144,0.211,0.213,0.432,0.223c0.172-0.006,0.329-0.1,0.416-0.248l3.015-5.168
		c0.21-0.36,0.6-0.584,1.017-0.584c0.449,0,0.853,0.249,1.053,0.651L21.19,17z M1,23v-5h22v5H1z"/>
	<path d="M6.5,9h3c1.654,0,3-1.346,3-3s-1.346-3-3-3C8.203,3,7.088,3.818,6.676,5.008C5.514,4.904,4.5,5.839,4.5,7
		C4.5,8.103,5.397,9,6.5,9z M6.5,6c0.119,0,0.236,0.023,0.359,0.07c0.14,0.056,0.297,0.043,0.43-0.032
		C7.42,5.963,7.51,5.833,7.534,5.684C7.689,4.708,8.517,4,9.5,4c1.103,0,2,0.897,2,2s-0.897,2-2,2h-3c-0.552,0-1-0.448-1-1
		S5.948,6,6.5,6z"/>
</g>
</svg>
