<?xml version="1.0" encoding="utf-8"?>
<!-- Generator: Adobe Illustrator 16.2.1, SVG Export Plug-In . SVG Version: 6.00 Build 0)  -->
<!DOCTYPE svg PUBLIC "-//W3C//DTD SVG 1.1//EN" "http://www.w3.org/Graphics/SVG/1.1/DTD/svg11.dtd">
<svg version="1.1" id="Outline_Version" xmlns="http://www.w3.org/2000/svg" xmlns:xlink="http://www.w3.org/1999/xlink" x="0px"
	 y="0px" width="24px" height="24px" viewBox="0 0 24 24" enable-background="new 0 0 24 24" xml:space="preserve">
<g>
	<path d="M17.5,0h-11C5.121,0,4,1.121,4,2.5v19C4,22.879,5.121,24,6.5,24h11c1.379,0,2.5-1.121,2.5-2.5v-19
		C20,1.121,18.879,0,17.5,0z M5,5h14v14H5V5z M6.5,1h11C18.327,1,19,1.673,19,2.5V4H5V2.5C5,1.673,5.673,1,6.5,1z M17.5,23h-11
		C5.673,23,5,22.327,5,21.5V20h14v1.5C19,22.327,18.327,23,17.5,23z"/>
	<path d="M9.5,3h5C14.776,3,15,2.776,15,2.5S14.776,2,14.5,2h-5C9.224,2,9,2.224,9,2.5S9.224,3,9.5,3z"/>
	<circle cx="12" cy="21.5" r="1"/>
</g>
</svg>
