<?xml version="1.0" encoding="utf-8"?>
<!-- Generator: Adobe Illustrator 16.2.1, SVG Export Plug-In . SVG Version: 6.00 Build 0)  -->
<!DOCTYPE svg PUBLIC "-//W3C//DTD SVG 1.1//EN" "http://www.w3.org/Graphics/SVG/1.1/DTD/svg11.dtd">
<svg version="1.1" id="Outline_Version" xmlns="http://www.w3.org/2000/svg" xmlns:xlink="http://www.w3.org/1999/xlink" x="0px"
	 y="0px" width="24px" height="24px" viewBox="0 0 24 24" enable-background="new 0 0 24 24" xml:space="preserve">
<g>
	<path d="M17.5,0h-11C5.122,0,4,1.121,4,2.5v19C4,22.879,5.122,24,6.5,24h11c1.378,0,2.5-1.121,2.5-2.5v-19
		C20,1.121,18.878,0,17.5,0z M19,21.5c0,0.827-0.673,1.5-1.5,1.5h-11C5.673,23,5,22.327,5,21.5v-19C5,1.673,5.673,1,6.5,1h11
		C18.327,1,19,1.673,19,2.5V21.5z"/>
	<path d="M17.5,2h-11C6.224,2,6,2.224,6,2.5v8C6,10.776,6.224,11,6.5,11h11c0.276,0,0.5-0.224,0.5-0.5v-8C18,2.224,17.776,2,17.5,2z
		 M17,10H7V3h10V10z"/>
	<path d="M12,12c-2.757,0-5,2.243-5,5s2.243,5,5,5s5-2.243,5-5S14.757,12,12,12z M12,21c-2.206,0-4-1.794-4-4s1.794-4,4-4
		s4,1.794,4,4S14.206,21,12,21z"/>
	<path d="M12,14c-1.654,0-3,1.346-3,3s1.346,3,3,3s3-1.346,3-3S13.654,14,12,14z M12,19c-1.103,0-2-0.897-2-2s0.897-2,2-2
		s2,0.897,2,2S13.103,19,12,19z"/>
</g>
</svg>
