<?xml version="1.0" encoding="utf-8"?>
<!-- Generator: Adobe Illustrator 16.2.1, SVG Export Plug-In . SVG Version: 6.00 Build 0)  -->
<!DOCTYPE svg PUBLIC "-//W3C//DTD SVG 1.1//EN" "http://www.w3.org/Graphics/SVG/1.1/DTD/svg11.dtd">
<svg version="1.1" id="Outline_Version" xmlns="http://www.w3.org/2000/svg" xmlns:xlink="http://www.w3.org/1999/xlink" x="0px"
	 y="0px" width="24px" height="24px" viewBox="0 0 24 24" enable-background="new 0 0 24 24" xml:space="preserve">
<g>
	<path d="M23,5.5V23H5.5v1h18c0.276,0,0.5-0.224,0.5-0.5v-18H23z"/>
	<path d="M22,21.5v-19h-1V21H2.5v1h19C21.776,22,22,21.776,22,21.5z"/>
	<path d="M20,19.5v-19C20,0.224,19.776,0,19.5,0h-19C0.224,0,0,0.224,0,0.5v19C0,19.776,0.224,20,0.5,20h19
		C19.776,20,20,19.776,20,19.5z M19,1v14h-1.654l-2.878-7.676c-0.065-0.176-0.225-0.3-0.41-0.321
		c-0.191-0.017-0.369,0.064-0.474,0.22l-3.629,5.442L7.884,10.18C7.78,10.056,7.621,9.99,7.462,10.002
		c-0.162,0.012-0.308,0.102-0.391,0.241L4.217,15H1V1H19z M16.279,15H5.383l2.184-3.639l2.05,2.459
		c0.1,0.121,0.247,0.195,0.41,0.179c0.158-0.008,0.302-0.091,0.39-0.222l3.459-5.188L16.279,15z M1,19v-3h18v3H1z"/>
	<path d="M6,7c1.103,0,2-0.897,2-2S7.103,3,6,3S4,3.897,4,5S4.897,7,6,7z M6,4c0.552,0,1,0.448,1,1S6.552,6,6,6S5,5.552,5,5
		S5.448,4,6,4z"/>
</g>
</svg>
