<?xml version="1.0" encoding="utf-8"?>
<!-- Generator: Adobe Illustrator 16.2.1, SVG Export Plug-In . SVG Version: 6.00 Build 0)  -->
<!DOCTYPE svg PUBLIC "-//W3C//DTD SVG 1.1//EN" "http://www.w3.org/Graphics/SVG/1.1/DTD/svg11.dtd">
<svg version="1.1" id="Outline_Version" xmlns="http://www.w3.org/2000/svg" xmlns:xlink="http://www.w3.org/1999/xlink" x="0px"
	 y="0px" width="24px" height="24px" viewBox="0 0 24 24" enable-background="new 0 0 24 24" xml:space="preserve">
<g>
	<path d="M20.5,17c-0.276,0-0.5,0.224-0.5,0.5V19H4V9h0.5C4.776,9,5,8.776,5,8.5S4.776,8,4.5,8h-1C3.224,8,3,8.224,3,8.5v11
		C3,19.776,3.224,20,3.5,20h17c0.276,0,0.5-0.224,0.5-0.5v-2C21,17.224,20.776,17,20.5,17z"/>
	<path d="M23.5,4h-17C6.224,4,6,4.224,6,4.5v11C6,15.776,6.224,16,6.5,16h17c0.276,0,0.5-0.224,0.5-0.5v-11
		C24,4.224,23.776,4,23.5,4z M23,15H7V5h16V15z"/>
	<path d="M17.5,21c-0.276,0-0.5,0.224-0.5,0.5V23H1V13h0.5C1.776,13,2,12.776,2,12.5S1.776,12,1.5,12h-1C0.224,12,0,12.224,0,12.5
		v11C0,23.776,0.224,24,0.5,24h17c0.276,0,0.5-0.224,0.5-0.5v-2C18,21.224,17.776,21,17.5,21z"/>
</g>
</svg>
