<?xml version="1.0" encoding="utf-8"?>
<!-- Generator: Adobe Illustrator 16.2.1, SVG Export Plug-In . SVG Version: 6.00 Build 0)  -->
<!DOCTYPE svg PUBLIC "-//W3C//DTD SVG 1.1//EN" "http://www.w3.org/Graphics/SVG/1.1/DTD/svg11.dtd">
<svg version="1.1" id="Outline_Version" xmlns="http://www.w3.org/2000/svg" xmlns:xlink="http://www.w3.org/1999/xlink" x="0px"
	 y="0px" width="24px" height="24px" viewBox="0 0 24 24" enable-background="new 0 0 24 24" xml:space="preserve">
<g>
	<path d="M12.001,15.398L8.818,18.58c-0.943,0.945-2.591,0.945-3.536,0l-0.707-0.706c-0.472-0.472-0.731-1.1-0.731-1.768
		s0.26-1.296,0.731-1.768l4.597-4.597c0.975-0.977,2.562-0.975,3.536,0l0.707,0.707c0.195,0.195,0.512,0.195,0.707,0
		s0.195-0.512,0-0.707l-0.707-0.707c-1.364-1.364-3.584-1.365-4.95,0l-4.597,4.597c-1.364,1.364-1.364,3.585,0,4.949l0.707,0.706
		c0.661,0.661,1.54,1.025,2.476,1.025s1.814-0.364,2.475-1.025l3.183-3.182c0.195-0.195,0.195-0.512,0-0.707
		S12.196,15.203,12.001,15.398z"/>
	<path d="M20.132,3.731l-0.707-0.707c-1.365-1.363-3.584-1.363-4.949,0l-3.182,3.181c-0.195,0.195-0.195,0.512,0,0.707
		s0.512,0.195,0.707,0l3.182-3.181c0.974-0.975,2.56-0.974,3.535,0l0.707,0.707c0.473,0.472,0.732,1.1,0.732,1.768
		s-0.26,1.296-0.732,1.768l-4.596,4.597c-0.945,0.945-2.592,0.945-3.535,0c-0.195-0.195-0.512-0.195-0.707,0s-0.195,0.512,0,0.707
		c0.66,0.661,1.539,1.025,2.475,1.025c0.935,0,1.813-0.364,2.475-1.025l4.596-4.597c0.661-0.66,1.025-1.539,1.025-2.475
		S20.793,4.392,20.132,3.731z"/>
</g>
</svg>
