<?xml version="1.0" encoding="utf-8"?>
<!-- Generator: Adobe Illustrator 16.2.1, SVG Export Plug-In . SVG Version: 6.00 Build 0)  -->
<!DOCTYPE svg PUBLIC "-//W3C//DTD SVG 1.1//EN" "http://www.w3.org/Graphics/SVG/1.1/DTD/svg11.dtd">
<svg version="1.1" id="Outline_Version" xmlns="http://www.w3.org/2000/svg" xmlns:xlink="http://www.w3.org/1999/xlink" x="0px"
	 y="0px" width="24px" height="24px" viewBox="0 0 24 24" enable-background="new 0 0 24 24" xml:space="preserve">
<g>
	<path d="M12,7c1.93,0,3.5-1.57,3.5-3.5S13.93,0,12,0S8.5,1.57,8.5,3.5S10.07,7,12,7z M12,1c1.378,0,2.5,1.121,2.5,2.5
		S13.378,6,12,6S9.5,4.879,9.5,3.5S10.622,1,12,1z"/>
	<path d="M10,14.534V18.5c0,0.276,0.224,0.5,0.5,0.5h3c0.276,0,0.5-0.224,0.5-0.5v-3.966c1.952-0.935,3-3.736,3-6.034
		C17,8.224,16.776,8,16.5,8h-9C7.224,8,7,8.224,7,8.5C7,10.798,8.048,13.6,10,14.534z M15.981,9
		c-0.146,1.963-1.13,4.197-2.646,4.729C13.134,13.799,13,13.987,13,14.2V18h-2v-3.8c0-0.213-0.134-0.401-0.335-0.472
		C9.149,13.197,8.166,10.963,8.019,9H15.981z"/>
	<path d="M12,20.5c-4.015,0-6.366-0.821-6.501-1.239c0.035-0.111,0.574-0.602,2.581-0.953c0.272-0.047,0.454-0.307,0.407-0.578
		s-0.309-0.462-0.579-0.406C5.646,17.718,4.5,18.366,4.5,19.25c0,1.776,4.714,2.25,7.5,2.25s7.5-0.474,7.5-2.25
		c0-0.882-1.142-1.529-3.394-1.926c-0.279-0.056-0.532,0.134-0.579,0.405c-0.048,0.272,0.133,0.531,0.405,0.579
		c1.999,0.352,2.535,0.841,2.569,0.931C18.366,19.679,16.015,20.5,12,20.5z"/>
	<path d="M16.067,15.252c-0.27-0.031-0.524,0.158-0.56,0.432c-0.035,0.274,0.158,0.525,0.432,0.561C20.575,16.843,23,18.335,23,19.5
		c0,1.655-4.518,3.5-11,3.5S1,21.155,1,19.5c0-1.165,2.426-2.657,7.063-3.256c0.274-0.035,0.467-0.286,0.432-0.561
		c-0.036-0.273-0.285-0.468-0.56-0.432C4.099,15.747,0,17.123,0,19.5C0,22.423,6.183,24,12,24s12-1.577,12-4.5
		C24,17.124,19.902,15.748,16.067,15.252z"/>
</g>
</svg>
