<?xml version="1.0" encoding="utf-8"?>
<!-- Generator: Adobe Illustrator 16.2.1, SVG Export Plug-In . SVG Version: 6.00 Build 0)  -->
<!DOCTYPE svg PUBLIC "-//W3C//DTD SVG 1.1//EN" "http://www.w3.org/Graphics/SVG/1.1/DTD/svg11.dtd">
<svg version="1.1" id="Outline_Version" xmlns="http://www.w3.org/2000/svg" xmlns:xlink="http://www.w3.org/1999/xlink" x="0px"
	 y="0px" width="24px" height="24px" viewBox="0 0 24 24" enable-background="new 0 0 24 24" xml:space="preserve">
<g>
	<path d="M11.5,15.847V18.5c0,0.276,0.224,0.5,0.5,0.5s0.5-0.224,0.5-0.5v-2.653C12.793,15.672,13,15.365,13,15c0-0.552-0.448-1-1-1
		s-1,0.448-1,1C11,15.365,11.207,15.672,11.5,15.847z"/>
	<path d="M20.5,9H18V6c0-3.309-2.691-6-6-6S6,2.691,6,6h1c0-2.757,2.243-5,5-5s5,2.243,5,5v3H3.5C3.224,9,3,9.224,3,9.5v14
		C3,23.776,3.224,24,3.5,24h17c0.276,0,0.5-0.224,0.5-0.5v-14C21,9.224,20.776,9,20.5,9z M20,23H4V10h16V23z"/>
</g>
</svg>
