<?xml version="1.0" encoding="utf-8"?>
<!-- Generator: Adobe Illustrator 16.2.1, SVG Export Plug-In . SVG Version: 6.00 Build 0)  -->
<!DOCTYPE svg PUBLIC "-//W3C//DTD SVG 1.1//EN" "http://www.w3.org/Graphics/SVG/1.1/DTD/svg11.dtd">
<svg version="1.1" id="Outline_Version" xmlns="http://www.w3.org/2000/svg" xmlns:xlink="http://www.w3.org/1999/xlink" x="0px"
	 y="0px" width="24px" height="24px" viewBox="0 0 24 24" enable-background="new 0 0 24 24" xml:space="preserve">
<path d="M22.031,8.725l-1.902-1.902l0.963-2.89c0.06-0.18,0.013-0.378-0.121-0.512c-0.135-0.134-0.33-0.179-0.512-0.121L17.57,4.264
	l-1.902-1.902c-0.149-0.149-0.378-0.188-0.57-0.097c-0.191,0.092-0.304,0.294-0.28,0.506l0.317,2.85l-2.892,1.606
	c-0.181,0.101-0.281,0.303-0.252,0.508c0.029,0.204,0.181,0.37,0.383,0.417l2.577,0.594L1.97,21.646
	c-0.195,0.194-0.196,0.511-0.002,0.707C2.065,22.451,2.193,22.5,2.322,22.5c0.127,0,0.255-0.049,0.353-0.146L15.651,9.459
	l0.59,2.561c0.047,0.202,0.213,0.354,0.417,0.383c0.023,0.003,0.047,0.005,0.07,0.005c0.18,0,0.348-0.097,0.438-0.257l1.605-2.892
	l2.852,0.316c0.21,0.021,0.413-0.088,0.505-0.28C22.221,9.104,22.182,8.875,22.031,8.725z M18.551,8.229
	c-0.197-0.018-0.395,0.078-0.492,0.254l-1.135,2.044l-0.503-2.18c-0.043-0.187-0.188-0.332-0.375-0.375l-2.18-0.503l2.045-1.136
	c0.176-0.099,0.276-0.292,0.254-0.493l-0.196-1.764l1.113,1.113c0.135,0.134,0.332,0.18,0.512,0.121l2.232-0.745l-0.744,2.233
	c-0.06,0.18-0.013,0.378,0.121,0.512l1.113,1.113L18.551,8.229z"/>
</svg>
