<?xml version="1.0" encoding="utf-8"?>
<!-- Generator: Adobe Illustrator 16.2.1, SVG Export Plug-In . SVG Version: 6.00 Build 0)  -->
<!DOCTYPE svg PUBLIC "-//W3C//DTD SVG 1.1//EN" "http://www.w3.org/Graphics/SVG/1.1/DTD/svg11.dtd">
<svg version="1.1" id="Outline_Version" xmlns="http://www.w3.org/2000/svg" xmlns:xlink="http://www.w3.org/1999/xlink" x="0px"
	 y="0px" width="24px" height="24px" viewBox="0 0 24 24" enable-background="new 0 0 24 24" xml:space="preserve">
<path d="M23.674,12.526l-2.829-2.829c-0.188-0.188-0.52-0.188-0.707,0l-7.424,7.425c-0.756,0.755-1.76,1.171-2.829,1.171
	c-1.069,0-2.073-0.416-2.829-1.171c-0.756-0.755-1.172-1.76-1.172-2.828s0.416-2.073,1.172-2.828l7.425-7.425
	c0.195-0.195,0.195-0.512,0-0.707l-2.829-2.829C11.56,0.411,11.433,0.358,11.3,0.358s-0.26,0.053-0.354,0.146L2.814,8.637
	c-3.509,3.51-3.508,9.219,0,12.728c1.7,1.7,3.96,2.636,6.365,2.636s4.664-0.936,6.364-2.636l8.132-8.131
	C23.87,13.038,23.87,12.722,23.674,12.526z M11.3,1.565l2.122,2.122l-1.414,1.414L9.886,2.979L11.3,1.565z M14.835,20.657
	C13.325,22.168,11.316,23,9.179,23s-4.146-0.832-5.658-2.343c-3.119-3.119-3.119-8.194,0-11.313l5.657-5.657l2.123,2.122
	l-4.951,4.95c-0.945,0.944-1.465,2.199-1.465,3.535s0.52,2.591,1.465,3.535c0.944,0.944,2.2,1.464,3.536,1.464
	c1.335,0,2.591-0.52,3.536-1.464l4.95-4.95l2.122,2.122L14.835,20.657z M21.2,14.294l-2.122-2.122l1.414-1.414l2.122,2.122
	L21.2,14.294z"/>
</svg>
