<?xml version="1.0" encoding="utf-8"?>
<!-- Generator: Adobe Illustrator 16.2.1, SVG Export Plug-In . SVG Version: 6.00 Build 0)  -->
<!DOCTYPE svg PUBLIC "-//W3C//DTD SVG 1.1//EN" "http://www.w3.org/Graphics/SVG/1.1/DTD/svg11.dtd">
<svg version="1.1" id="Outline_Version" xmlns="http://www.w3.org/2000/svg" xmlns:xlink="http://www.w3.org/1999/xlink" x="0px"
	 y="0px" width="24px" height="24px" viewBox="0 0 24 24" enable-background="new 0 0 24 24" xml:space="preserve">
<path d="M19.5,10c-0.276,0-0.5,0.224-0.5,0.5V12h-1V6.5c0-2.802-1.786-5.188-4.275-6.1c-0.026-0.014-0.054-0.021-0.083-0.03
	C12.97,0.135,12.251,0,11.5,0c-0.752,0-1.471,0.135-2.144,0.371C9.329,0.379,9.303,0.387,9.278,0.399C6.787,1.311,5,3.697,5,6.5V12
	H4v-1.5C4,10.224,3.776,10,3.5,10S3,10.224,3,10.5v2c0,4.598,3.477,8.224,8,8.476V23.5c0,0.276,0.224,0.5,0.5,0.5s0.5-0.224,0.5-0.5
	v-2.524c4.523-0.252,8-3.878,8-8.476v-2C20,10.224,19.776,10,19.5,10z M6,11h3.5c0.276,0,0.5-0.224,0.5-0.5S9.776,10,9.5,10H6V9h3.5
	C9.776,9,10,8.776,10,8.5S9.776,8,9.5,8H6V7h3.5C9.776,7,10,6.776,10,6.5S9.776,6,9.5,6H6.025C6.199,4.081,7.363,2.447,9,1.607V3.5
	C9,3.776,9.224,4,9.5,4S10,3.776,10,3.5V1.213c0.323-0.092,0.656-0.156,1-0.188V3.5C11,3.776,11.224,4,11.5,4S12,3.776,12,3.5V1.025
	c0.344,0.031,0.678,0.097,1.001,0.188L13,3.5C13,3.776,13.224,4,13.5,4C13.776,4,14,3.776,14,3.5l0-1.893
	c1.637,0.841,2.8,2.475,2.974,4.393H13.5C13.224,6,13,6.224,13,6.5S13.224,7,13.5,7H17v1h-3.5C13.224,8,13,8.224,13,8.5
	S13.224,9,13.5,9H17v1h-3.5c-0.276,0-0.5,0.224-0.5,0.5s0.224,0.5,0.5,0.5H17v1H6V11z M16.975,13c-0.254,2.799-2.611,5-5.475,5
	s-5.221-2.201-5.475-5H16.975z M11.5,20c-4.037,0-7.225-3.037-7.476-7h1.001c0.257,3.351,3.06,6,6.475,6s6.218-2.649,6.475-6h1.001
	C18.725,16.963,15.537,20,11.5,20z"/>
</svg>
