<?xml version="1.0" encoding="utf-8"?>
<!-- Generator: Adobe Illustrator 16.2.1, SVG Export Plug-In . SVG Version: 6.00 Build 0)  -->
<!DOCTYPE svg PUBLIC "-//W3C//DTD SVG 1.1//EN" "http://www.w3.org/Graphics/SVG/1.1/DTD/svg11.dtd">
<svg version="1.1" id="Outline_Version" xmlns="http://www.w3.org/2000/svg" xmlns:xlink="http://www.w3.org/1999/xlink" x="0px"
	 y="0px" width="24px" height="24px" viewBox="0 0 24 24" enable-background="new 0 0 24 24" xml:space="preserve">
<g>
	<path d="M16.5,1.061c-3.032,0-5.5,2.468-5.5,5.5s2.468,5.5,5.5,5.5s5.5-2.468,5.5-5.5S19.532,1.061,16.5,1.061z M16.5,11.061
		c-2.481,0-4.5-2.019-4.5-4.5s2.019-4.5,4.5-4.5s4.5,2.019,4.5,4.5S18.981,11.061,16.5,11.061z"/>
	<circle cx="23.5" cy="6.061" r="0.5"/>
	<path d="M23.5,7C23.224,7,23,7.224,23,7.5v16c0,0.276,0.224,0.5,0.5,0.5s0.5-0.224,0.5-0.5v-16C24,7.224,23.776,7,23.5,7z"/>
	<path d="M19.049,19.959c-0.226-0.126-0.511-0.06-0.657,0.154c-0.386,0.565-1.022,0.902-1.703,0.902
		c-1.135,0-2.059-0.924-2.059-2.06c0-1.99-1.532-3.032-3.045-3.032c-0.719,0-1.4,0.226-1.934,0.631
		c-0.533-0.405-1.214-0.631-1.933-0.631c-1.514,0-3.046,1.042-3.046,3.032c0,1.136-0.924,2.06-2.059,2.06
		c-0.682,0-1.317-0.337-1.701-0.901c-0.145-0.215-0.43-0.281-0.656-0.155s-0.319,0.403-0.214,0.64
		c0.938,2.107,2.764,3.316,5.007,3.316c1.779,0,3.514-0.779,4.602-2.027c1.088,1.248,2.821,2.027,4.602,2.027
		c2.244,0,4.069-1.209,5.009-3.316C19.367,20.362,19.274,20.085,19.049,19.959z M14.253,22.915c-1.675,0-3.355-0.854-4.183-2.127
		c-0.092-0.142-0.25-0.228-0.419-0.228s-0.327,0.086-0.419,0.228c-0.828,1.272-2.509,2.127-4.183,2.127
		c-1.039,0-1.969-0.32-2.72-0.912c0.094,0.008,0.188,0.013,0.284,0.013c1.687,0,3.059-1.372,3.059-3.06
		c0-2.255,2.613-2.469,3.611-1.391c0.095,0.103,0.228,0.161,0.367,0.161s0.272-0.059,0.367-0.16c0.997-1.081,3.611-0.866,3.611,1.39
		c0,1.783,1.581,3.215,3.344,3.046C16.223,22.595,15.292,22.915,14.253,22.915z"/>
	<path d="M19,6.561c0,1.379-1.121,2.5-2.5,2.5c-0.276,0-0.5,0.224-0.5,0.5s0.224,0.5,0.5,0.5c1.93,0,3.5-1.57,3.5-3.5
		c0-0.276-0.224-0.5-0.5-0.5S19,6.284,19,6.561z"/>
</g>
</svg>
