<?xml version="1.0" encoding="utf-8"?>
<!-- Generator: Adobe Illustrator 16.2.1, SVG Export Plug-In . SVG Version: 6.00 Build 0)  -->
<!DOCTYPE svg PUBLIC "-//W3C//DTD SVG 1.1//EN" "http://www.w3.org/Graphics/SVG/1.1/DTD/svg11.dtd">
<svg version="1.1" id="Outline_Version" xmlns="http://www.w3.org/2000/svg" xmlns:xlink="http://www.w3.org/1999/xlink" x="0px"
	 y="0px" width="24px" height="24px" viewBox="0 0 24 24" enable-background="new 0 0 24 24" xml:space="preserve">
<g>
	<path d="M7,16c-1.654,0-3,1.346-3,3s1.346,3,3,3s3-1.346,3-3S8.654,16,7,16z M7,21c-1.103,0-2-0.897-2-2s0.897-2,2-2s2,0.897,2,2
		S8.103,21,7,21z"/>
	<polygon points="6.5,20 8,19 6.5,18 	"/>
	<path d="M22.5,6c-0.651,0-1.201,0.419-1.408,1H21c-1.103,0-2,0.897-2,2s0.897,2,2,2h0.092c0.151,0.424,0.484,0.757,0.908,0.908V19
		c0,1.103-0.897,2-2,2s-2-0.897-2-2V5c0-1.103-0.897-2-2-2h-2V2c0-1.103-0.897-2-2-2H2C0.897,0,0,0.897,0,2v20c0,1.103,0.897,2,2,2
		h10c1.103,0,2-0.897,2-2V4h2c0.551,0,1,0.448,1,1v14c0,1.654,1.346,3,3,3s3-1.346,3-3v-7.092c0.581-0.207,1-0.757,1-1.408v-3
		C24,6.673,23.327,6,22.5,6z M2,1h10c0.551,0,1,0.448,1,1v12H1V2C1,1.448,1.449,1,2,1z M12,23H2c-0.551,0-1-0.448-1-1v-7h12v7
		C13,22.552,12.551,23,12,23z M20,9c0-0.552,0.449-1,1-1v2C20.449,10,20,9.552,20,9z M23,10.5c0,0.275-0.224,0.5-0.5,0.5
		S22,10.775,22,10.5v-3C22,7.225,22.224,7,22.5,7S23,7.225,23,7.5V10.5z"/>
	<rect x="3" y="5" width="2" height="1"/>
	<rect x="3" y="7" width="2" height="1"/>
	<rect x="3" y="9" width="2" height="1"/>
	<rect x="3" y="11" width="2" height="1"/>
	<rect x="9" y="7" width="2" height="1"/>
	<rect x="9" y="9" width="2" height="1"/>
	<rect x="9" y="11" width="2" height="1"/>
	<rect x="6" y="9" width="2" height="1"/>
	<rect x="6" y="11" width="2" height="1"/>
</g>
</svg>
