<?xml version="1.0" encoding="utf-8"?>
<!-- Generator: Adobe Illustrator 16.2.1, SVG Export Plug-In . SVG Version: 6.00 Build 0)  -->
<!DOCTYPE svg PUBLIC "-//W3C//DTD SVG 1.1//EN" "http://www.w3.org/Graphics/SVG/1.1/DTD/svg11.dtd">
<svg version="1.1" id="Outline_Version" xmlns="http://www.w3.org/2000/svg" xmlns:xlink="http://www.w3.org/1999/xlink" x="0px"
	 y="0px" width="24px" height="24px" viewBox="0 0 24 24" enable-background="new 0 0 24 24" xml:space="preserve">
<path d="M20.778,0.585c-0.138-0.095-0.312-0.109-0.468-0.048l-11,4.5C9.123,5.114,9,5.297,9,5.5V17H6.5C4.57,17,3,18.57,3,20.5
	S4.57,24,6.5,24c1.864,0,3.5-1.636,3.5-3.5v-2v-1V9.336l10-4.091V13h-2.5c-1.93,0-3.5,1.57-3.5,3.5s1.57,3.5,3.5,3.5
	c1.864,0,3.5-1.636,3.5-3.5v-1v-2V1C21,0.833,20.917,0.678,20.778,0.585z M9,20.5C9,21.68,7.931,23,6.5,23C5.121,23,4,21.879,4,20.5
	S5.121,18,6.5,18H9v0.5V20.5z M10,8.255V5.836l10-4.091v2.419L10,8.255z M20,16.5c0,1.18-1.069,2.5-2.5,2.5
	c-1.379,0-2.5-1.121-2.5-2.5s1.121-2.5,2.5-2.5H20v1.5V16.5z"/>
</svg>
