<?xml version="1.0" encoding="utf-8"?>
<!-- Generator: Adobe Illustrator 16.2.1, SVG Export Plug-In . SVG Version: 6.00 Build 0)  -->
<!DOCTYPE svg PUBLIC "-//W3C//DTD SVG 1.1//EN" "http://www.w3.org/Graphics/SVG/1.1/DTD/svg11.dtd">
<svg version="1.1" id="Outline_Version" xmlns="http://www.w3.org/2000/svg" xmlns:xlink="http://www.w3.org/1999/xlink" x="0px"
	 y="0px" width="24px" height="24px" viewBox="0 0 24 24" enable-background="new 0 0 24 24" xml:space="preserve">
<g>
	<path d="M21,18.5v-10C21,8.224,20.776,8,20.5,8h-17C3.224,8,3,8.224,3,8.5v10C3,18.776,3.224,19,3.5,19h17
		C20.776,19,21,18.776,21,18.5z M20,18H4V9h16V18z"/>
	<path d="M23.5,20H23V8c0-1.103-0.897-2-2-2H3C1.897,6,1,6.897,1,8v12H0.5C0.224,20,0,20.224,0,20.5v2C0,23.327,0.673,24,1.5,24h21
		c0.827,0,1.5-0.673,1.5-1.5v-2C24,20.224,23.776,20,23.5,20z M2,8c0-0.552,0.449-1,1-1h18c0.551,0,1,0.448,1,1v12h-7.5
		c-0.276,0-0.5,0.224-0.5,0.5V21h-4v-0.5c0-0.276-0.224-0.5-0.5-0.5H2V8z M23,22.5c0,0.275-0.224,0.5-0.5,0.5h-21
		C1.224,23,1,22.775,1,22.5V21h8v0.5C9,21.776,9.224,22,9.5,22h5c0.276,0,0.5-0.224,0.5-0.5V21h8V22.5z"/>
</g>
</svg>
