<?xml version="1.0" encoding="utf-8"?>
<!-- Generator: Adobe Illustrator 16.2.1, SVG Export Plug-In . SVG Version: 6.00 Build 0)  -->
<!DOCTYPE svg PUBLIC "-//W3C//DTD SVG 1.1//EN" "http://www.w3.org/Graphics/SVG/1.1/DTD/svg11.dtd">
<svg version="1.1" id="Outline_Version" xmlns="http://www.w3.org/2000/svg" xmlns:xlink="http://www.w3.org/1999/xlink" x="0px"
	 y="0px" width="24px" height="24px" viewBox="0 0 24 24" enable-background="new 0 0 24 24" xml:space="preserve">
<g>
	<path d="M7.605,19.808C7.7,19.929,7.846,20,8,20h8c0.154,0,0.3-0.071,0.395-0.192s0.128-0.279,0.091-0.429l-0.5-2
		C15.93,17.156,15.729,17,15.5,17h-7c-0.229,0-0.43,0.156-0.485,0.379l-0.5,2C7.478,19.528,7.511,19.687,7.605,19.808z M8.891,18
		h6.219l0.25,1H8.641L8.891,18z"/>
	<path d="M23.983,21.371L22,13.935V3c0-1.103-0.897-2-2-2H4C2.897,1,2,1.897,2,3v11.43l-1.98,6.933C0.007,21.407,0,21.453,0,21.5V22
		c0,1.103,0.897,2,2,2h20c1.103,0,2-0.897,2-2v-0.5C24,21.456,23.994,21.413,23.983,21.371z M4,2h16c0.552,0,1,0.448,1,1v11H3V3
		C3,2.448,3.448,2,4,2z M2.877,15h18.372l1.601,6H1.163L2.877,15z M22,23H2c-0.552,0-1-0.448-1-1h22C23,22.552,22.552,23,22,23z"/>
	<path d="M4.5,13h15c0.276,0,0.5-0.224,0.5-0.5v-9C20,3.224,19.776,3,19.5,3h-15C4.224,3,4,3.224,4,3.5v9C4,12.776,4.224,13,4.5,13z
		 M5,4h14v8H5V4z"/>
</g>
</svg>
