<?xml version="1.0" encoding="utf-8"?>
<!-- Generator: Adobe Illustrator 16.2.1, SVG Export Plug-In . SVG Version: 6.00 Build 0)  -->
<!DOCTYPE svg PUBLIC "-//W3C//DTD SVG 1.1//EN" "http://www.w3.org/Graphics/SVG/1.1/DTD/svg11.dtd">
<svg version="1.1" id="Outline_Version" xmlns="http://www.w3.org/2000/svg" xmlns:xlink="http://www.w3.org/1999/xlink" x="0px"
	 y="0px" width="24px" height="24px" viewBox="0 0 24 24" enable-background="new 0 0 24 24" xml:space="preserve">
<g>
	<path d="M20,10h-5.023c-0.166,0-0.321-0.083-0.414-0.219c-0.093-0.138-0.112-0.312-0.05-0.466C14.836,8.508,15,7.657,15,6.786V3
		c0-1.654-1.346-3-3-3S9,1.346,9,3v3.786c0,0.869,0.164,1.72,0.487,2.529C9.549,9.469,9.53,9.643,9.438,9.78
		C9.344,9.917,9.189,10,9.023,10H4c-1.103,0-2,0.897-2,2v3.5C2,15.776,2.224,16,2.5,16H3v7.5C3,23.776,3.224,24,3.5,24h3
		c0.189,0,0.362-0.107,0.447-0.276L8,21.618V23.5C8,23.776,8.224,24,8.5,24h12c0.276,0,0.5-0.224,0.5-0.5V16h0.5
		c0.276,0,0.5-0.224,0.5-0.5V12C22,10.897,21.103,10,20,10z M20,23h-1v-4.5c0-0.276-0.224-0.5-0.5-0.5S18,18.224,18,18.5V23h-1v-3.5
		c0-0.276-0.224-0.5-0.5-0.5S16,19.224,16,19.5V23h-1v-2c0-0.276-0.224-0.5-0.5-0.5S14,20.724,14,21v2H9v-3.5
		c0-0.232-0.16-0.434-0.385-0.487c-0.226-0.054-0.458,0.055-0.562,0.263L6.191,23H4v-7h16V23z M21,15h-0.5h-17H3v-3
		c0-0.551,0.449-1,1-1h5.023c0.498,0,0.962-0.246,1.243-0.66c0.279-0.414,0.335-0.937,0.149-1.397C10.14,8.253,10,7.527,10,6.786V3
		c0-1.103,0.897-2,2-2s2,0.897,2,2v3.786c0,0.744-0.14,1.469-0.416,2.157c-0.185,0.462-0.129,0.985,0.15,1.398
		C14.015,10.754,14.479,11,14.977,11H20c0.551,0,1,0.449,1,1V15z"/>
	<circle cx="12" cy="3" r="1"/>
</g>
</svg>
