<?xml version="1.0" encoding="utf-8"?>
<!-- Generator: Adobe Illustrator 16.2.1, SVG Export Plug-In . SVG Version: 6.00 Build 0)  -->
<!DOCTYPE svg PUBLIC "-//W3C//DTD SVG 1.1//EN" "http://www.w3.org/Graphics/SVG/1.1/DTD/svg11.dtd">
<svg version="1.1" id="Outline_Version" xmlns="http://www.w3.org/2000/svg" xmlns:xlink="http://www.w3.org/1999/xlink" x="0px"
	 y="0px" width="24px" height="24px" viewBox="0 0 24 24" enable-background="new 0 0 24 24" xml:space="preserve">
<g>
	<path d="M20.485,4.271C18.219,2.005,15.205,0.758,12,0.758S5.781,2.005,3.515,4.271C1.248,6.537,0,9.551,0,12.757
		s1.249,6.22,3.515,8.485c0.944,0.945,2.591,0.945,3.537,0c0.973-0.975,0.973-2.561,0-3.535c-0.094-0.095-0.146-0.22-0.146-0.354
		S6.957,17.095,7.051,17c0.188-0.189,0.518-0.189,0.707,0L12,21.242C13.133,22.376,14.64,23,16.243,23
		c1.603,0,3.109-0.624,4.242-1.758C22.752,18.977,24,15.963,24,12.757S22.752,6.537,20.485,4.271z M19.778,20.535
		C18.834,21.479,17.579,22,16.243,22s-2.591-0.521-3.536-1.465l-4.242-4.242c-0.283-0.283-0.66-0.439-1.061-0.439
		s-0.778,0.156-1.06,0.439c-0.283,0.283-0.439,0.66-0.439,1.061s0.156,0.777,0.439,1.061c0.584,0.585,0.584,1.536,0,2.121
		c-0.566,0.566-1.556,0.566-2.122,0C2.144,18.458,1,15.695,1,12.757s1.145-5.701,3.222-7.778S9.062,1.758,12,1.758
		s5.701,1.144,7.778,3.221S23,9.818,23,12.757S21.856,18.458,19.778,20.535z"/>
	<path d="M16.243,9.807c0.534,0,1.037-0.208,1.413-0.585c0.378-0.377,0.586-0.879,0.586-1.414s-0.208-1.037-0.585-1.413
		c-0.377-0.378-0.88-0.586-1.414-0.586c-0.535,0-1.037,0.208-1.414,0.585c-0.378,0.377-0.586,0.879-0.586,1.414
		s0.208,1.037,0.586,1.413C15.206,9.599,15.708,9.807,16.243,9.807z M15.535,7.102c0.189-0.188,0.44-0.293,0.708-0.293
		s0.518,0.104,0.707,0.294c0.188,0.188,0.292,0.438,0.292,0.705s-0.104,0.518-0.293,0.706c-0.377,0.379-1.035,0.378-1.414-0.001
		c-0.188-0.188-0.292-0.438-0.292-0.705S15.346,7.29,15.535,7.102z"/>
	<path d="M20.06,11.694c-0.566-0.564-1.551-0.566-2.121,0.002c-0.583,0.586-0.583,1.537,0.001,2.12
		C18.223,14.1,18.6,14.256,19,14.256s0.777-0.156,1.061-0.439C20.644,13.233,20.645,12.282,20.06,11.694z M19.354,13.109
		c-0.189,0.189-0.518,0.189-0.707,0c-0.194-0.194-0.194-0.512-0.001-0.706c0.095-0.094,0.221-0.146,0.354-0.146
		s0.26,0.052,0.353,0.144C19.547,12.598,19.548,12.915,19.354,13.109z"/>
	<path d="M14.475,15.939c-0.472,0.471-0.731,1.099-0.731,1.767s0.26,1.296,0.731,1.769c0.472,0.473,1.1,0.732,1.768,0.732
		s1.296-0.26,1.768-0.732c0.473-0.473,0.733-1.102,0.732-1.77s-0.261-1.295-0.732-1.766C17.066,14.994,15.418,14.994,14.475,15.939z
		 M17.302,18.768c-0.565,0.566-1.555,0.566-2.12,0c-0.283-0.283-0.439-0.66-0.439-1.062c0-0.4,0.155-0.777,0.439-1.06
		c0.283-0.283,0.659-0.439,1.06-0.439s0.777,0.156,1.061,0.439c0.283,0.282,0.438,0.658,0.439,1.059
		C17.743,18.106,17.586,18.483,17.302,18.768z"/>
	<path d="M8.819,5.332C8.44,5.71,8.232,6.212,8.232,6.746S8.44,7.782,8.818,8.16c0.377,0.378,0.88,0.586,1.414,0.586
		s1.037-0.208,1.413-0.586c0.378-0.378,0.587-0.88,0.587-1.414c0-0.534-0.208-1.036-0.586-1.414
		C10.891,4.576,9.574,4.576,8.819,5.332z M10.938,7.453c-0.377,0.379-1.034,0.379-1.413,0c-0.189-0.189-0.293-0.44-0.293-0.707
		s0.104-0.518,0.293-0.707c0.189-0.188,0.44-0.293,0.707-0.293c0.267,0,0.517,0.104,0.706,0.293s0.293,0.44,0.293,0.707
		S11.128,7.264,10.938,7.453z"/>
</g>
</svg>
