<?xml version="1.0" encoding="utf-8"?>
<!-- Generator: Adobe Illustrator 16.2.1, SVG Export Plug-In . SVG Version: 6.00 Build 0)  -->
<!DOCTYPE svg PUBLIC "-//W3C//DTD SVG 1.1//EN" "http://www.w3.org/Graphics/SVG/1.1/DTD/svg11.dtd">
<svg version="1.1" id="Outline_Version" xmlns="http://www.w3.org/2000/svg" xmlns:xlink="http://www.w3.org/1999/xlink" x="0px"
	 y="0px" width="24px" height="24px" viewBox="0 0 24 24" enable-background="new 0 0 24 24" xml:space="preserve">
<g>
	<path d="M19.548,12.691c0.077-0.187,0.034-0.402-0.108-0.545l-9-9C10.342,3.049,10.214,3,10.086,3V2.5c0-1.379-1.121-2.5-2.5-2.5
		s-2.5,1.121-2.5,2.5v5.293l-3.854,3.854c-0.975,0.975-0.975,2.561,0,3.536l4.672,4.671c0.473,0.473,1.1,0.732,1.768,0.732
		s1.295-0.26,1.768-0.732L16.293,13h2.793C19.288,13,19.471,12.878,19.548,12.691z M6.086,2.5c0-0.827,0.673-1.5,1.5-1.5
		s1.5,0.673,1.5,1.5v1.293l-3,3V2.5z M16.086,12c-0.133,0-0.26,0.053-0.354,0.146l-7,7c-0.566,0.566-1.555,0.566-2.121,0
		l-4.672-4.671c-0.585-0.585-0.585-1.537,0-2.122l3.951-3.951C5.922,8.378,5.948,8.352,5.973,8.32l3.113-3.113V10.5
		c0,0.276,0.224,0.5,0.5,0.5s0.5-0.224,0.5-0.5V4.207L17.879,12H16.086z"/>
	<path d="M20.514,15.24c-0.182-0.299-0.674-0.299-0.855,0c-0.263,0.435-2.572,4.281-2.572,5.76c0,1.654,1.346,3,3,3s3-1.346,3-3
		C23.086,19.521,20.776,15.675,20.514,15.24z M20.086,23c-1.103,0-2-0.897-2-2c0-0.775,1.096-2.939,2-4.515
		c0.904,1.575,2,3.739,2,4.515C22.086,22.103,21.188,23,20.086,23z"/>
</g>
</svg>
