<?xml version="1.0" encoding="utf-8"?>
<!-- Generator: Adobe Illustrator 16.2.1, SVG Export Plug-In . SVG Version: 6.00 Build 0)  -->
<!DOCTYPE svg PUBLIC "-//W3C//DTD SVG 1.1//EN" "http://www.w3.org/Graphics/SVG/1.1/DTD/svg11.dtd">
<svg version="1.1" id="Outline_Version" xmlns="http://www.w3.org/2000/svg" xmlns:xlink="http://www.w3.org/1999/xlink" x="0px"
	 y="0px" width="24px" height="24px" viewBox="0 0 24 24" enable-background="new 0 0 24 24" xml:space="preserve">
<path d="M20.5,3H20V0.5C20,0.224,19.776,0,19.5,0h-15C4.224,0,4,0.224,4,0.5V3H3.5C2.673,3,2,3.673,2,4.5v4C2,9.327,2.673,10,3.5,10
	h8c0.271,0,0.5,0.229,0.5,0.5v2.52c-0.932,0.203-2,0.923-2,1.937v7.5C10,23.398,11.418,24,12.159,24h1
	C13.993,24,15,23.312,15,22.456v-7.5c0-1.014-1.068-1.733-2-1.937V10.5C13,9.673,12.327,9,11.5,9h-8C3.224,9,3,8.775,3,8.5v-4
	C3,4.229,3.229,4,3.5,4H4v2.5C4,6.776,4.224,7,4.5,7h15C19.776,7,20,6.776,20,6.5V4h0.5C20.776,4,21,3.776,21,3.5S20.776,3,20.5,3z
	 M14,14.956v7.5C14,22.653,13.514,23,13.159,23h-1c-0.397,0-1.101-0.367-1.159-0.544v-7.5c0-0.482,0.88-1,1.5-1S14,14.474,14,14.956
	z M19,6H5V1h14V6z"/>
</svg>
