<?xml version="1.0" encoding="utf-8"?>
<!-- Generator: Adobe Illustrator 16.2.1, SVG Export Plug-In . SVG Version: 6.00 Build 0)  -->
<!DOCTYPE svg PUBLIC "-//W3C//DTD SVG 1.1//EN" "http://www.w3.org/Graphics/SVG/1.1/DTD/svg11.dtd">
<svg version="1.1" id="Outline_Version" xmlns="http://www.w3.org/2000/svg" xmlns:xlink="http://www.w3.org/1999/xlink" x="0px"
	 y="0px" width="24px" height="24px" viewBox="0 0 24 24" enable-background="new 0 0 24 24" xml:space="preserve">
<path d="M22.96,3.975l-2.828-2.828c-0.195-0.195-0.512-0.195-0.707,0l-0.39,0.39c-0.97-0.641-2.292-0.535-3.146,0.318L10.232,7.51
	c-0.195,0.195-0.195,0.512,0,0.707c0.098,0.098,0.226,0.146,0.354,0.146s0.256-0.049,0.354-0.146l5.657-5.655
	c0.459-0.459,1.139-0.544,1.695-0.282l-4.524,4.524l-9.899,9.898c-0.195,0.195-0.195,0.512,0,0.707l0.354,0.354l-1.768,1.77
	c-0.195,0.195-0.195,0.512,0,0.707l0.353,0.353L1.04,22.359c-0.195,0.195-0.195,0.512,0,0.707c0.098,0.098,0.226,0.146,0.354,0.146
	s0.256-0.049,0.354-0.146l1.767-1.768l0.354,0.354c0.098,0.098,0.226,0.146,0.354,0.146s0.256-0.049,0.354-0.146l1.767-1.768
	l0.354,0.354c0.094,0.094,0.221,0.146,0.354,0.146s0.26-0.053,0.354-0.146l9.9-9.9l5.656-5.657
	C23.155,4.486,23.155,4.17,22.96,3.975z M4.222,20.592l-0.351-0.351C3.87,20.24,3.87,20.238,3.868,20.237s-0.003-0.002-0.004-0.003
	l-0.349-0.349l1.414-1.416l0.708,0.708L4.222,20.592z M7.05,19.179l-0.352-0.353c0-0.001-0.001-0.001-0.001-0.002l-1.414-1.415
	c0,0,0,0-0.001-0.001l-0.353-0.353l9.192-9.191l1.061,1.061l1.061,1.061L7.05,19.179z M16.95,9.278l-1.061-1.061l-1.061-1.061
	l4.594-4.594c0.001-0.001,0.002-0.001,0.003-0.002s0.001-0.002,0.002-0.003l0.352-0.352l2.121,2.121L16.95,9.278z"/>
</svg>
