<?xml version="1.0" encoding="utf-8"?>
<!-- Generator: Adobe Illustrator 16.2.1, SVG Export Plug-In . SVG Version: 6.00 Build 0)  -->
<!DOCTYPE svg PUBLIC "-//W3C//DTD SVG 1.1//EN" "http://www.w3.org/Graphics/SVG/1.1/DTD/svg11.dtd">
<svg version="1.1" id="Outline_Version" xmlns="http://www.w3.org/2000/svg" xmlns:xlink="http://www.w3.org/1999/xlink" x="0px"
	 y="0px" width="24px" height="24px" viewBox="0 0 24 24" enable-background="new 0 0 24 24" xml:space="preserve">
<path d="M23.609,3.463l-2.828-2.828c-0.188-0.188-0.52-0.188-0.707,0l-0.39,0.39c-0.97-0.641-2.292-0.536-3.146,0.318l-5.656,5.655
	c-0.195,0.195-0.195,0.512,0,0.707c0.098,0.098,0.226,0.146,0.354,0.146s0.256-0.049,0.354-0.146l5.656-5.655
	c0.459-0.459,1.139-0.544,1.695-0.282l-4.523,4.524L4.221,16.487c-0.159,0.159-0.182,0.396-0.082,0.584
	c-0.735,0.023-1.464,0.296-2,0.833c-1.045,1.045-1.804,5.052-1.887,5.506c-0.002,0.013,0.004,0.025,0.002,0.038
	c-0.005,0.052-0.001,0.102,0.01,0.152c0.005,0.021,0.005,0.043,0.013,0.063c0.023,0.069,0.06,0.135,0.114,0.189
	c0.048,0.048,0.104,0.084,0.164,0.109C0.615,23.987,0.68,24,0.744,24c0.03,0,0.06-0.003,0.09-0.008
	c0.453-0.083,4.461-0.84,5.506-1.887c0.533-0.532,0.829-1.233,0.858-1.982c0.064,0.029,0.133,0.047,0.204,0.047
	c0.133,0,0.26-0.053,0.354-0.146L17.953,9.827l5.656-5.657C23.805,3.975,23.805,3.658,23.609,3.463z M5.633,21.398
	c-0.438,0.438-1.93,0.909-3.334,1.254l1.627-1.627c0.195-0.195,0.195-0.512,0-0.707s-0.512-0.195-0.707,0l-1.626,1.626
	c0.345-1.403,0.815-2.896,1.253-3.333c0.372-0.373,0.867-0.578,1.394-0.578s1.021,0.205,1.394,0.578
	c0.372,0.372,0.577,0.867,0.577,1.394C6.21,20.532,6.005,21.026,5.633,21.398z M7.402,18.963l-2.121-2.122l9.49-9.488l2.121,2.121
	L7.402,18.963z M17.6,8.767l-2.121-2.121l4.593-4.594c0.001-0.001,0.002-0.001,0.003-0.002s0.001-0.002,0.002-0.003l0.352-0.352
	l2.121,2.121L17.6,8.767z"/>
</svg>
