<?xml version="1.0" encoding="utf-8"?>
<!-- Generator: Adobe Illustrator 16.2.1, SVG Export Plug-In . SVG Version: 6.00 Build 0)  -->
<!DOCTYPE svg PUBLIC "-//W3C//DTD SVG 1.1//EN" "http://www.w3.org/Graphics/SVG/1.1/DTD/svg11.dtd">
<svg version="1.1" id="Outline_Version" xmlns="http://www.w3.org/2000/svg" xmlns:xlink="http://www.w3.org/1999/xlink" x="0px"
	 y="0px" width="24px" height="24px" viewBox="0 0 24 24" enable-background="new 0 0 24 24" xml:space="preserve">
<g>
	<path d="M9.957,7.797l-2-4.5c-0.16-0.361-0.754-0.361-0.914,0l-2,4.5c-0.001,0.001,0,0.003-0.001,0.004C5.016,7.862,5,7.929,5,8
		v13.5C5,22.878,6.121,24,7.5,24s2.5-1.122,2.5-2.5V8c0-0.071-0.016-0.138-0.042-0.199C9.957,7.8,9.958,7.798,9.957,7.797z M7,8.5
		V18H6V8.5H7z M9,8.5V18H8V8.5H9z M6,19h3v1H6V19z M7.5,4.731L8.73,7.5H6.27L7.5,4.731z M7.5,23C6.673,23,6,22.327,6,21.5V21h3v0.5
		C9,22.327,8.327,23,7.5,23z"/>
	<path d="M18.5,0h-6C12.224,0,12,0.224,12,0.5v23c0,0.276,0.224,0.5,0.5,0.5h6c0.276,0,0.5-0.224,0.5-0.5v-23
		C19,0.224,18.776,0,18.5,0z M18,23h-5v-3h1.5c0.276,0,0.5-0.224,0.5-0.5S14.776,19,14.5,19H13v-3h1.5c0.276,0,0.5-0.224,0.5-0.5
		S14.776,15,14.5,15H13v-3h1.5c0.276,0,0.5-0.224,0.5-0.5S14.776,11,14.5,11H13V8h1.5C14.776,8,15,7.776,15,7.5S14.776,7,14.5,7H13
		V4h1.5C14.776,4,15,3.776,15,3.5S14.776,3,14.5,3H13V1h5V23z"/>
</g>
</svg>
