<?xml version="1.0" encoding="utf-8"?>
<!-- Generator: Adobe Illustrator 16.2.1, SVG Export Plug-In . SVG Version: 6.00 Build 0)  -->
<!DOCTYPE svg PUBLIC "-//W3C//DTD SVG 1.1//EN" "http://www.w3.org/Graphics/SVG/1.1/DTD/svg11.dtd">
<svg version="1.1" id="Outline_Version" xmlns="http://www.w3.org/2000/svg" xmlns:xlink="http://www.w3.org/1999/xlink" x="0px"
	 y="0px" width="24px" height="24px" viewBox="0 0 24 24" enable-background="new 0 0 24 24" xml:space="preserve">
<g>
	<path d="M23.5,5h-5.317l-5.199-4.382c-0.188-0.159-0.466-0.156-0.65,0.005L7.312,5H0.5C0.224,5,0,5.224,0,5.5v18
		C0,23.776,0.224,24,0.5,24h23c0.276,0,0.5-0.224,0.5-0.5v-18C24,5.224,23.776,5,23.5,5z M12.667,1.659L16.631,5H8.834L12.667,1.659
		z M23,23H1V6h22V23z"/>
	<path d="M2.5,22h19c0.276,0,0.5-0.224,0.5-0.5v-14C22,7.224,21.776,7,21.5,7h-19C2.224,7,2,7.224,2,7.5v14
		C2,21.776,2.224,22,2.5,22z M6.525,19h4.949c0.509,0.827,0.987,1.512,1.349,2H5.177C5.538,20.512,6.017,19.827,6.525,19z M7.113,18
		C7.834,16.708,8.545,15.182,9,13.566c0.455,1.616,1.166,3.142,1.887,4.434H7.113z M18,21h-1v-3h1V21z M19,21v-3v-0.5V15h2v6H19z
		 M3,8h18v6h-2.5c-0.276,0-0.5,0.224-0.5,0.5V17h-1.5c-0.276,0-0.5,0.224-0.5,0.5V21h-1.916C13.317,20.03,9.5,14.961,9.5,10.213
		c0-0.276-0.224-0.5-0.5-0.5s-0.5,0.224-0.5,0.5C8.5,14.961,4.683,20.03,3.916,21H3V8z"/>
</g>
</svg>
