<?xml version="1.0" encoding="utf-8"?>
<!-- Generator: Adobe Illustrator 16.2.1, SVG Export Plug-In . SVG Version: 6.00 Build 0)  -->
<!DOCTYPE svg PUBLIC "-//W3C//DTD SVG 1.1//EN" "http://www.w3.org/Graphics/SVG/1.1/DTD/svg11.dtd">
<svg version="1.1" id="Outline_Version" xmlns="http://www.w3.org/2000/svg" xmlns:xlink="http://www.w3.org/1999/xlink" x="0px"
	 y="0px" width="24px" height="24px" viewBox="0 0 24 24" enable-background="new 0 0 24 24" xml:space="preserve">
<g>
	<path d="M9.016,18.069V17h0.5c0.276,0,0.5-0.224,0.5-0.5v-2c0-0.276-0.224-0.5-0.5-0.5h-5c-0.276,0-0.5,0.224-0.5,0.5v2
		c0,0.276,0.224,0.5,0.5,0.5h0.5v1.07c-3.129,0.539-4.766,2.307-4.999,5.392c-0.01,0.14,0.038,0.276,0.133,0.378
		C0.243,23.942,0.377,24,0.516,24H13.59c0.139,0,0.272-0.058,0.366-0.16c0.095-0.102,0.143-0.238,0.133-0.378
		C13.855,20.381,12.195,18.613,9.016,18.069z M1.072,23c0.347-2.4,1.757-3.644,4.509-4.004c0.248-0.033,0.435-0.245,0.435-0.496v-2
		c0-0.276-0.224-0.5-0.5-0.5h-0.5v-1h4v1h-0.5c-0.276,0-0.5,0.224-0.5,0.5v2c0,0.251,0.187,0.463,0.435,0.496
		c2.76,0.361,4.228,1.639,4.581,4.004H1.072z"/>
	<path d="M23.268,0.428c-0.195-0.195-0.512-0.195-0.707,0c-0.01,0.01-0.013,0.021-0.021,0.032l-2.523,2.523V0.5
		c0-0.173-0.09-0.334-0.236-0.425c-0.148-0.091-0.332-0.1-0.486-0.023c-1.058,0.525-2.738,1.638-4.285,3.188
		c-1.438,1.438-2.556,3.102-3.146,4.687c-0.524,1.408-0.559,2.564-0.122,3.332l-1.303,1.303c-0.195,0.195-0.195,0.512,0,0.707
		c0.098,0.098,0.226,0.146,0.354,0.146s0.256-0.049,0.354-0.146l1.293-1.293c0.448,0.261,1.038,0.395,1.714,0.395
		c1.66,0,3.835-0.803,5.7-2.499c0.153-0.14,0.205-0.357,0.131-0.551C19.907,9.127,19.723,9,19.516,9h-4.104l1-1h4.604
		c0.276,0,0.5-0.224,0.5-0.5S21.292,7,21.016,7h-3.604l1.001-1h4.058c0.179,0,0.345-0.096,0.434-0.251
		C24.201,3.487,24.337,1.498,23.268,0.428z M12.8,8.274c0.533-1.432,1.596-3.01,2.915-4.328c1.137-1.139,2.367-2.036,3.301-2.599
		v2.636l-1.157,1.157c-0.005,0.005-0.01,0.01-0.015,0.015l-5.341,5.34C12.364,9.974,12.462,9.182,12.8,8.274z M18.075,10
		c-1.97,1.33-3.908,1.546-4.874,1.211L14.412,10H18.075z M22.177,5h-2.764l0.428-0.428c0.018-0.016,0.032-0.03,0.048-0.048
		l2.948-2.948C23.16,2.354,22.934,3.59,22.177,5z"/>
</g>
</svg>
