<?xml version="1.0" encoding="utf-8"?>
<!-- Generator: Adobe Illustrator 16.2.1, SVG Export Plug-In . SVG Version: 6.00 Build 0)  -->
<!DOCTYPE svg PUBLIC "-//W3C//DTD SVG 1.1//EN" "http://www.w3.org/Graphics/SVG/1.1/DTD/svg11.dtd">
<svg version="1.1" id="Outline_Version" xmlns="http://www.w3.org/2000/svg" xmlns:xlink="http://www.w3.org/1999/xlink" x="0px"
	 y="0px" width="24px" height="24px" viewBox="0 0 24 24" enable-background="new 0 0 24 24" xml:space="preserve">
<g>
	<path d="M6.812,10.283c-0.211-0.176-0.526-0.147-0.704,0.063l-2.526,3.025C3.333,11.573,3.7,9.744,4.664,8.129
		c1.178-1.974,3.103-3.401,5.281-3.917c2.87-0.676,5.875,0.272,7.835,2.485c0.183,0.208,0.499,0.227,0.705,0.043
		c0.207-0.183,0.227-0.499,0.043-0.705c-2.202-2.488-5.578-3.561-8.813-2.796C7.275,3.815,5.121,5.411,3.806,7.616
		c-0.895,1.498-1.325,3.163-1.294,4.838l-1.597-2.378C0.76,9.845,0.448,9.786,0.222,9.939c-0.229,0.154-0.291,0.465-0.137,0.693
		l2.787,4.15c0.088,0.131,0.231,0.213,0.389,0.221c0.009,0.001,0.018,0.001,0.026,0.001c0.147,0,0.288-0.065,0.384-0.18l3.205-3.838
		C7.053,10.775,7.024,10.46,6.812,10.283z"/>
	<path d="M23.487,14.377l-2.785-4.15c-0.088-0.131-0.231-0.213-0.389-0.221c-0.117-0.012-0.228,0.039-0.322,0.112
		c-0.017,0.01-0.03,0.022-0.046,0.034c-0.013,0.013-0.03,0.019-0.042,0.032l-0.047,0.056c-0.007,0.01-0.017,0.018-0.023,0.028
		l-3.137,3.752c-0.177,0.212-0.148,0.526,0.063,0.704c0.21,0.177,0.527,0.151,0.704-0.063l2.406-2.878
		c0.086,3.619-2.555,7.129-6.245,8.001c-2.694,0.639-5.484-0.145-7.464-2.095c-0.195-0.192-0.512-0.192-0.707,0.006
		c-0.193,0.196-0.191,0.513,0.006,0.707c1.715,1.689,3.972,2.6,6.305,2.6c0.694,0,1.396-0.08,2.091-0.245
		c4.04-0.953,6.893-4.551,7.021-8.475l1.78,2.651c0.097,0.145,0.255,0.222,0.415,0.222c0.097,0,0.193-0.027,0.278-0.085
		C23.58,14.917,23.642,14.606,23.487,14.377z"/>
</g>
</svg>
