<?xml version="1.0" encoding="utf-8"?>
<!-- Generator: Adobe Illustrator 16.2.1, SVG Export Plug-In . SVG Version: 6.00 Build 0)  -->
<!DOCTYPE svg PUBLIC "-//W3C//DTD SVG 1.1//EN" "http://www.w3.org/Graphics/SVG/1.1/DTD/svg11.dtd">
<svg version="1.1" id="Outline_Version" xmlns="http://www.w3.org/2000/svg" xmlns:xlink="http://www.w3.org/1999/xlink" x="0px"
	 y="0px" width="24px" height="24px" viewBox="0 0 24 24" enable-background="new 0 0 24 24" xml:space="preserve">
<g>
	<path d="M19.907,23.191L17.5,19.822v-4.398c0-1.599-1.146-2.515-2.598-3.675c-0.285-0.228-0.592-0.479-0.902-0.738V8.982
		c0-1.103-0.897-2-2-2H5c-1.103,0-2,0.897-2,2v11c0,1.103,0.897,2,2,2h5.5c0.276,0,0.5-0.224,0.5-0.5s-0.224-0.5-0.5-0.5H5
		c-0.551,0-1-0.448-1-1v-11c0-0.552,0.449-1,1-1h7c0.551,0,1,0.448,1,1v4.998c0,0.276,0.224,0.5,0.5,0.5s0.5-0.224,0.5-0.5v-1.678
		c0.09,0.073,0.19,0.157,0.278,0.228c1.338,1.069,2.222,1.775,2.222,2.894v4.559c0,0.104,0.033,0.206,0.093,0.291l2.5,3.5
		c0.098,0.137,0.251,0.209,0.407,0.209c0.101,0,0.202-0.03,0.29-0.093C20.015,23.729,20.067,23.417,19.907,23.191z"/>
	<path d="M12.604,14.379c-0.608-0.609-1.599-0.609-2.207,0c-0.608,0.608-0.608,1.599-0.058,2.138l2.161,3.122v1.383
		c0,0.732,0.225,1.436,0.651,2.035l0.526,0.734C13.775,23.928,13.929,24,14.084,24c0.101,0,0.203-0.03,0.291-0.094
		c0.224-0.161,0.276-0.473,0.115-0.697l-0.525-0.733c-0.305-0.428-0.465-0.931-0.465-1.454v-1.539c0-0.102-0.031-0.201-0.089-0.284
		l-2.308-3.319c-0.219-0.219-0.219-0.574,0-0.793s0.574-0.219,0.793,0l2.75,2.75c0.195,0.195,0.512,0.195,0.707,0
		s0.195-0.512,0-0.707L12.604,14.379z"/>
	<circle cx="6.5" cy="10.482" r="0.5"/>
	<circle cx="8.5" cy="10.482" r="0.5"/>
	<circle cx="10.5" cy="10.482" r="0.5"/>
	<circle cx="6.5" cy="12.482" r="0.5"/>
	<circle cx="6.5" cy="14.482" r="0.5"/>
	<circle cx="6.5" cy="16.482" r="0.5"/>
	<circle cx="6.5" cy="18.482" r="0.5"/>
	<circle cx="8.5" cy="12.482" r="0.5"/>
	<circle cx="8.5" cy="14.482" r="0.5"/>
	<circle cx="8.5" cy="16.482" r="0.5"/>
	<circle cx="8.5" cy="18.482" r="0.5"/>
	<circle cx="10.5" cy="12.482" r="0.5"/>
	<path d="M4.125,2.326c2.64-1.761,6.234-1.761,8.874,0c0.085,0.057,0.182,0.084,0.277,0.084c0.162,0,0.32-0.078,0.417-0.223
		c0.153-0.229,0.091-0.54-0.139-0.693c-2.97-1.981-7.016-1.98-9.983,0C3.34,1.647,3.278,1.958,3.432,2.188S3.895,2.479,4.125,2.326z
		"/>
	<path d="M12.583,3.853c0.154-0.23,0.092-0.54-0.138-0.694c-2.305-1.54-5.457-1.541-7.766,0C4.45,3.312,4.388,3.622,4.541,3.852
		c0.097,0.145,0.255,0.223,0.417,0.223c0.095,0,0.192-0.027,0.277-0.084c1.978-1.322,4.679-1.322,6.654,0
		C12.119,4.143,12.43,4.081,12.583,3.853z"/>
	<path d="M5.789,4.822C5.559,4.976,5.497,5.286,5.65,5.516C5.747,5.66,5.905,5.738,6.067,5.738c0.095,0,0.192-0.027,0.277-0.084
		c1.32-0.88,3.114-0.881,4.437,0c0.23,0.152,0.54,0.091,0.693-0.139s0.091-0.54-0.139-0.693C9.683,3.721,7.438,3.722,5.789,4.822z"
		/>
</g>
</svg>
