<?xml version="1.0" encoding="utf-8"?>
<!-- Generator: Adobe Illustrator 16.2.1, SVG Export Plug-In . SVG Version: 6.00 Build 0)  -->
<!DOCTYPE svg PUBLIC "-//W3C//DTD SVG 1.1//EN" "http://www.w3.org/Graphics/SVG/1.1/DTD/svg11.dtd">
<svg version="1.1" id="Outline_Version" xmlns="http://www.w3.org/2000/svg" xmlns:xlink="http://www.w3.org/1999/xlink" x="0px"
	 y="0px" width="24px" height="24px" viewBox="0 0 24 24" enable-background="new 0 0 24 24" xml:space="preserve">
<g>
	<path d="M22,0H2C0.897,0,0,0.897,0,2v13c0,1.103,0.897,2,2,2h6.5C8.776,17,9,16.776,9,16.5S8.776,16,8.5,16H2c-0.552,0-1-0.449-1-1
		V2c0-0.551,0.448-1,1-1h20c0.552,0,1,0.449,1,1v13c0,0.551-0.448,1-1,1h-1.5c-0.276,0-0.5,0.224-0.5,0.5s0.224,0.5,0.5,0.5H22
		c1.103,0,2-0.897,2-2V2C24,0.897,23.103,0,22,0z"/>
	<path d="M20.5,14c-0.276,0-0.5,0.224-0.5,0.5s0.224,0.5,0.5,0.5h1c0.276,0,0.5-0.224,0.5-0.5v-12C22,2.224,21.776,2,21.5,2h-19
		C2.224,2,2,2.224,2,2.5v12C2,14.776,2.224,15,2.5,15h6C8.776,15,9,14.776,9,14.5S8.776,14,8.5,14H3V3h18v11H20.5z"/>
	<path d="M17.5,12h-6c-0.276,0-0.5,0.224-0.5,0.5v10c0,0.276,0.224,0.5,0.5,0.5h6c0.276,0,0.5-0.224,0.5-0.5v-10
		C18,12.224,17.776,12,17.5,12z M17,22h-5v-9h5V22z"/>
	<circle cx="13.5" cy="14.5" r="0.5"/>
	<circle cx="15.5" cy="14.5" r="0.5"/>
	<circle cx="13.5" cy="16.5" r="0.5"/>
	<circle cx="15.5" cy="16.5" r="0.5"/>
	<circle cx="13.5" cy="18.5" r="0.5"/>
	<circle cx="15.5" cy="18.5" r="0.5"/>
	<path d="M18.154,6.537c-2.148-1.318-4.851-1.376-7.054-0.151c-0.241,0.134-0.328,0.439-0.193,0.68
		c0.134,0.242,0.439,0.328,0.68,0.194c1.888-1.05,4.203-1.001,6.044,0.129c0.082,0.05,0.172,0.074,0.262,0.074
		c0.168,0,0.332-0.084,0.426-0.238C18.463,6.989,18.39,6.681,18.154,6.537z"/>
	<path d="M16.85,9.166c0.168,0,0.332-0.085,0.427-0.239c0.144-0.235,0.069-0.543-0.166-0.688c-1.534-0.939-3.467-0.982-5.039-0.107
		c-0.241,0.134-0.328,0.438-0.194,0.68c0.135,0.242,0.441,0.328,0.681,0.194c1.259-0.698,2.804-0.664,4.031,0.086
		C16.67,9.142,16.76,9.166,16.85,9.166z"/>
	<path d="M13.049,9.887c-0.242,0.134-0.329,0.438-0.195,0.68c0.135,0.241,0.44,0.33,0.68,0.194c0.631-0.349,1.398-0.334,2.009,0.039
		c0.081,0.05,0.171,0.074,0.261,0.074c0.168,0,0.332-0.085,0.427-0.239c0.144-0.236,0.07-0.543-0.166-0.688
		C15.146,9.386,13.99,9.364,13.049,9.887z"/>
</g>
</svg>
