<?xml version="1.0" encoding="utf-8"?>
<!-- Generator: Adobe Illustrator 16.2.1, SVG Export Plug-In . SVG Version: 6.00 Build 0)  -->
<!DOCTYPE svg PUBLIC "-//W3C//DTD SVG 1.1//EN" "http://www.w3.org/Graphics/SVG/1.1/DTD/svg11.dtd">
<svg version="1.1" id="Outline_Version" xmlns="http://www.w3.org/2000/svg" xmlns:xlink="http://www.w3.org/1999/xlink" x="0px"
	 y="0px" width="24px" height="24px" viewBox="0 0 24 24" enable-background="new 0 0 24 24" xml:space="preserve">
<g>
	<path d="M14.5,5H9C8.724,5,8.5,5.224,8.5,5.5S8.724,6,9,6h5.5C14.776,6,15,5.776,15,5.5S14.776,5,14.5,5z"/>
	<path d="M14.5,8H9C8.724,8,8.5,8.224,8.5,8.5S8.724,9,9,9h5.5C14.776,9,15,8.776,15,8.5S14.776,8,14.5,8z"/>
	<path d="M14.5,11H9c-0.276,0-0.5,0.224-0.5,0.5S8.724,12,9,12h5.5c0.276,0,0.5-0.224,0.5-0.5S14.776,11,14.5,11z"/>
	<path d="M14.5,14H9c-0.276,0-0.5,0.224-0.5,0.5S8.724,15,9,15h5.5c0.276,0,0.5-0.224,0.5-0.5S14.776,14,14.5,14z"/>
	<path d="M21,0c-0.114,0-0.223,0.021-0.333,0.033C20.614,0.015,20.56,0,20.5,0h-12C6.57,0,5,1.57,5,3.5V17H3.5
		C1.57,17,0,18.57,0,20.5S1.57,24,3.5,24h12c1.93,0,3.5-1.57,3.5-3.5V4h4.5C23.776,4,24,3.776,24,3.5C24,1.439,22.767,0,21,0z
		 M3.5,23C2.121,23,1,21.879,1,20.5S2.121,18,3.5,18h9.553C12.403,18.636,12,19.521,12,20.5s0.403,1.864,1.053,2.5H3.5z M18,20.5
		c0,1.379-1.121,2.5-2.5,2.5S13,21.879,13,20.5s1.121-2.5,2.5-2.5c0.276,0,0.5-0.224,0.5-0.5S15.776,17,15.5,17H6V3.5
		C6,2.121,7.121,1,8.5,1h10.28C18.301,1.532,18,2.229,18,3V20.5z M19,3c0-1.103,0.897-2,2-2c1.058,0,1.809,0.785,1.968,2H19z"/>
</g>
</svg>
