<?xml version="1.0" encoding="utf-8"?>
<!-- Generator: Adobe Illustrator 16.2.1, SVG Export Plug-In . SVG Version: 6.00 Build 0)  -->
<!DOCTYPE svg PUBLIC "-//W3C//DTD SVG 1.1//EN" "http://www.w3.org/Graphics/SVG/1.1/DTD/svg11.dtd">
<svg version="1.1" id="Outline_Version" xmlns="http://www.w3.org/2000/svg" xmlns:xlink="http://www.w3.org/1999/xlink" x="0px"
	 y="0px" width="24px" height="24px" viewBox="0 0 24 24" enable-background="new 0 0 24 24" xml:space="preserve">
<path d="M22.001,5.5c0-2.523-4.393-4.5-10-4.5c-5.6,0-9.986,1.971-9.999,4.489C2.002,5.493,2,5.496,2,5.5v13
	C2,21.023,6.393,23,12,23s10-1.977,10-4.5V5.509C22,5.506,22.001,5.503,22.001,5.5z M21,14c0,1.655-3.696,3.5-9,3.5S3,15.655,3,14
	v-2.518C4.603,12.984,7.985,14,12,14s7.397-1.016,9-2.518V14z M21,9.5c0,1.655-3.696,3.5-9,3.5s-9-1.845-9-3.5V7.481
	C4.603,8.983,7.985,10,12.001,10c4.014,0,7.396-1.016,8.999-2.517V9.5z M12.001,2c5.301,0,8.995,1.843,9,3.497
	c0,0.001,0,0.002,0,0.003v0.007C20.989,7.161,17.297,9,12.001,9c-5.304,0-9-1.845-9-3.5S6.697,2,12.001,2z M12,22
	c-5.304,0-9-1.845-9-3.5v-2.518c1.603,1.502,4.985,2.518,9,2.518s7.397-1.016,9-2.518V18.5C21,20.155,17.304,22,12,22z"/>
</svg>
