<?xml version="1.0" encoding="utf-8"?>
<!-- Generator: Adobe Illustrator 16.2.1, SVG Export Plug-In . SVG Version: 6.00 Build 0)  -->
<!DOCTYPE svg PUBLIC "-//W3C//DTD SVG 1.1//EN" "http://www.w3.org/Graphics/SVG/1.1/DTD/svg11.dtd">
<svg version="1.1" id="Outline_Version" xmlns="http://www.w3.org/2000/svg" xmlns:xlink="http://www.w3.org/1999/xlink" x="0px"
	 y="0px" width="24px" height="24px" viewBox="0 0 24 24" enable-background="new 0 0 24 24" xml:space="preserve">
<g>
	<path d="M22.5,0h-22C0.224,0,0,0.224,0,0.5v23C0,23.776,0.224,24,0.5,24h22c0.276,0,0.5-0.224,0.5-0.5v-23
		C23,0.224,22.776,0,22.5,0z M22,23H1V1h21V23z"/>
	<path d="M15.531,13h1.5v1.5c0,0.276,0.224,0.5,0.5,0.5s0.5-0.224,0.5-0.5V13h1.5c0.276,0,0.5-0.224,0.5-0.5v-2
		c0-0.276-0.224-0.5-0.5-0.5h-1.5V3.5c0-0.276-0.224-0.5-0.5-0.5s-0.5,0.224-0.5,0.5V10h-1.5c-0.276,0-0.5,0.224-0.5,0.5v2
		C15.031,12.776,15.255,13,15.531,13z M16.031,11h3v1h-3V11z"/>
	<path d="M9.5,8H11v6.5c0,0.276,0.224,0.5,0.5,0.5s0.5-0.224,0.5-0.5V8h1.5C13.776,8,14,7.776,14,7.5v-2C14,5.224,13.776,5,13.5,5
		H12V3.5C12,3.224,11.776,3,11.5,3S11,3.224,11,3.5V5H9.5C9.224,5,9,5.224,9,5.5v2C9,7.776,9.224,8,9.5,8z M10,6h3v1h-3V6z"/>
	<path d="M3.5,11H5v3.5C5,14.776,5.224,15,5.5,15S6,14.776,6,14.5V11h1.5C7.776,11,8,10.776,8,10.5v-2C8,8.224,7.776,8,7.5,8H6V3.5
		C6,3.224,5.776,3,5.5,3S5,3.224,5,3.5V8H3.5C3.224,8,3,8.224,3,8.5v2C3,10.776,3.224,11,3.5,11z M4,9h3v1H4V9z"/>
	<path d="M17.542,17c-1.103,0-2,0.897-2,2s0.897,2,2,2s2-0.897,2-2S18.645,17,17.542,17z M17.542,20c-0.551,0-1-0.448-1-1
		s0.449-1,1-1s1,0.448,1,1S18.093,20,17.542,20z"/>
	<path d="M11.5,17c-1.103,0-2,0.897-2,2s0.897,2,2,2s2-0.897,2-2S12.603,17,11.5,17z M11.5,20c-0.551,0-1-0.448-1-1s0.449-1,1-1
		s1,0.448,1,1S12.051,20,11.5,20z"/>
	<path d="M5.5,17c-1.103,0-2,0.897-2,2s0.897,2,2,2s2-0.897,2-2S6.603,17,5.5,17z M5.5,20c-0.551,0-1-0.448-1-1s0.449-1,1-1
		s1,0.448,1,1S6.051,20,5.5,20z"/>
</g>
</svg>
