<?xml version="1.0" encoding="utf-8"?>
<!-- Generator: Adobe Illustrator 16.2.1, SVG Export Plug-In . SVG Version: 6.00 Build 0)  -->
<!DOCTYPE svg PUBLIC "-//W3C//DTD SVG 1.1//EN" "http://www.w3.org/Graphics/SVG/1.1/DTD/svg11.dtd">
<svg version="1.1" id="Outline_Version" xmlns="http://www.w3.org/2000/svg" xmlns:xlink="http://www.w3.org/1999/xlink" x="0px"
	 y="0px" width="24px" height="24px" viewBox="0 0 24 24" enable-background="new 0 0 24 24" xml:space="preserve">
<g>
	<path d="M22.731,0.578c-0.167-0.087-0.365-0.073-0.518,0.033c-1.768,1.235-3.225,1.785-4.726,1.785
		c-1.787,0-3.461-0.806-4.591-2.21c-0.189-0.236-0.605-0.236-0.795,0c-1.13,1.404-2.803,2.21-4.589,2.21
		c-1.502,0-2.96-0.55-4.728-1.785c-0.152-0.106-0.351-0.12-0.518-0.033C2.104,0.664,2,0.835,2,1.021v14.812
		c0,0.045,0.006,0.089,0.018,0.133c0.062,0.226,1.627,5.57,10.348,8.015C12.409,23.994,12.455,24,12.5,24s0.091-0.006,0.135-0.019
		c8.723-2.445,10.285-7.789,10.348-8.015C22.994,15.923,23,15.879,23,15.834V1.021C23,0.835,22.896,0.664,22.731,0.578z M22,15.756
		c-0.19,0.559-1.945,5.06-9.5,7.224c-7.553-2.165-9.31-6.666-9.5-7.224V1.95c1.61,0.996,3.03,1.447,4.514,1.447
		c1.897,0,3.685-0.775,4.986-2.146c1.302,1.371,3.09,2.146,4.988,2.146c1.482,0,2.901-0.451,4.512-1.447V15.756z"/>
	<path d="M15,6.521c0-0.276-0.224-0.5-0.5-0.5h-4c-0.276,0-0.5,0.224-0.5,0.5v2.5H7.5c-0.276,0-0.5,0.224-0.5,0.5v4
		c0,0.276,0.224,0.5,0.5,0.5H10v2.5c0,0.276,0.224,0.5,0.5,0.5h4c0.276,0,0.5-0.224,0.5-0.5v-2.5h2.5c0.276,0,0.5-0.224,0.5-0.5v-4
		c0-0.276-0.224-0.5-0.5-0.5H15V6.521z M17,10.021v3h-2.5c-0.276,0-0.5,0.224-0.5,0.5v2.5h-3v-2.5c0-0.276-0.224-0.5-0.5-0.5H8v-3
		h2.5c0.276,0,0.5-0.224,0.5-0.5v-2.5h3v2.5c0,0.276,0.224,0.5,0.5,0.5H17z"/>
</g>
</svg>
