<?xml version="1.0" encoding="utf-8"?>
<!-- Generator: Adobe Illustrator 16.2.1, SVG Export Plug-In . SVG Version: 6.00 Build 0)  -->
<!DOCTYPE svg PUBLIC "-//W3C//DTD SVG 1.1//EN" "http://www.w3.org/Graphics/SVG/1.1/DTD/svg11.dtd">
<svg version="1.1" id="Outline_Version" xmlns="http://www.w3.org/2000/svg" xmlns:xlink="http://www.w3.org/1999/xlink" x="0px"
	 y="0px" width="24px" height="24px" viewBox="0 0 24 24" enable-background="new 0 0 24 24" xml:space="preserve">
<g>
	<path d="M13.146,7.853c0.046,0.046,0.102,0.083,0.163,0.108C13.37,7.987,13.435,8,13.5,8s0.13-0.013,0.191-0.039
		c0.062-0.025,0.117-0.062,0.163-0.108l3-3c0.195-0.195,0.195-0.512,0-0.707s-0.512-0.195-0.707,0L14,6.293V0.5
		C14,0.224,13.776,0,13.5,0S13,0.224,13,0.5v5.793l-2.146-2.146c-0.195-0.195-0.512-0.195-0.707,0s-0.195,0.512,0,0.707
		L13.146,7.853z"/>
	<path d="M20.974,18.658l3-9c0.051-0.152,0.025-0.32-0.068-0.451C23.812,9.077,23.661,9,23.5,9H5.808L4.487,3.385
		C4.434,3.16,4.232,3,4,3H0.5C0.224,3,0,3.224,0,3.5S0.224,4,0.5,4h3.104l3.789,16.104C6.588,20.363,6,21.11,6,22
		c0,1.103,0.897,2,2,2s2-0.897,2-2c0-0.366-0.106-0.705-0.278-1h7.557C17.106,21.295,17,21.634,17,22c0,1.103,0.897,2,2,2
		s2-0.897,2-2s-0.897-2-2-2H8.396l-0.235-1H20.5C20.715,19,20.906,18.862,20.974,18.658z M9,22c0,0.551-0.449,1-1,1s-1-0.449-1-1
		s0.449-1,1-1S9,21.449,9,22z M20,22c0,0.551-0.449,1-1,1s-1-0.449-1-1s0.449-1,1-1S20,21.449,20,22z M7.925,18l-1.882-8h16.763
		l-2.667,8H7.925z"/>
</g>
</svg>
