<?xml version="1.0" encoding="utf-8"?>
<!-- Generator: Adobe Illustrator 16.2.1, SVG Export Plug-In . SVG Version: 6.00 Build 0)  -->
<!DOCTYPE svg PUBLIC "-//W3C//DTD SVG 1.1//EN" "http://www.w3.org/Graphics/SVG/1.1/DTD/svg11.dtd">
<svg version="1.1" id="Outline_Version" xmlns="http://www.w3.org/2000/svg" xmlns:xlink="http://www.w3.org/1999/xlink" x="0px"
	 y="0px" width="24px" height="24px" viewBox="0 0 24 24" enable-background="new 0 0 24 24" xml:space="preserve">
<g>
	<path d="M10.854,3.854l2.146-2.146V7.5c0,0.276,0.224,0.5,0.5,0.5s0.5-0.224,0.5-0.5V1.707l2.146,2.146
		C16.245,3.951,16.373,4,16.501,4s0.256-0.049,0.354-0.146c0.195-0.195,0.195-0.512,0-0.707l-3-3
		c-0.046-0.046-0.102-0.083-0.163-0.108c-0.122-0.051-0.26-0.051-0.382,0c-0.062,0.025-0.117,0.062-0.163,0.108l-3,3
		c-0.195,0.195-0.195,0.512,0,0.707S10.659,4.049,10.854,3.854z"/>
	<path d="M20.975,18.658l3-9c0.051-0.152,0.025-0.32-0.068-0.451C23.812,9.077,23.662,9,23.501,9H5.809L4.488,3.385
		C4.435,3.16,4.233,3,4.001,3H0.5C0.224,3,0,3.224,0,3.5S0.224,4,0.5,4h3.105l3.789,16.104C6.589,20.363,6.001,21.11,6.001,22
		c0,1.103,0.897,2,2,2s2-0.897,2-2c0-0.366-0.106-0.705-0.278-1h7.557c-0.172,0.295-0.278,0.634-0.278,1c0,1.103,0.897,2,2,2
		s2-0.897,2-2s-0.897-2-2-2H8.397l-0.235-1h12.339C20.716,19,20.907,18.862,20.975,18.658z M9.001,22c0,0.551-0.449,1-1,1
		s-1-0.449-1-1s0.449-1,1-1S9.001,21.449,9.001,22z M20.001,22c0,0.551-0.449,1-1,1s-1-0.449-1-1s0.449-1,1-1
		S20.001,21.449,20.001,22z M7.926,18l-1.882-8h16.763l-2.667,8H7.926z"/>
</g>
</svg>
