<?xml version="1.0" encoding="utf-8"?>
<!-- Generator: Adobe Illustrator 16.2.1, SVG Export Plug-In . SVG Version: 6.00 Build 0)  -->
<!DOCTYPE svg PUBLIC "-//W3C//DTD SVG 1.1//EN" "http://www.w3.org/Graphics/SVG/1.1/DTD/svg11.dtd">
<svg version="1.1" id="Outline_Version" xmlns="http://www.w3.org/2000/svg" xmlns:xlink="http://www.w3.org/1999/xlink" x="0px"
	 y="0px" width="24px" height="24px" viewBox="0 0 24 24" enable-background="new 0 0 24 24" xml:space="preserve">
<g>
	<path d="M18.5,0h-13C4.121,0,3,1.121,3,2.5v19C3,22.879,4.121,24,5.5,24h13c1.379,0,2.5-1.121,2.5-2.5v-19
		C21,1.121,19.879,0,18.5,0z M20,21.5c0,0.827-0.673,1.5-1.5,1.5h-13C4.673,23,4,22.327,4,21.5v-19C4,1.673,4.673,1,5.5,1h13
		C19.327,1,20,1.673,20,2.5V21.5z"/>
	<path d="M18.5,3h-13C5.224,3,5,3.224,5,3.5v16C5,19.776,5.224,20,5.5,20h13c0.276,0,0.5-0.224,0.5-0.5v-16
		C19,3.224,18.776,3,18.5,3z M18,19H6V4h12V19z"/>
	<circle cx="12" cy="2" r="0.5"/>
	<circle cx="12" cy="21.5" r="1"/>
</g>
</svg>
