<?xml version="1.0" encoding="utf-8"?>
<!-- Generator: Adobe Illustrator 16.2.1, SVG Export Plug-In . SVG Version: 6.00 Build 0)  -->
<!DOCTYPE svg PUBLIC "-//W3C//DTD SVG 1.1//EN" "http://www.w3.org/Graphics/SVG/1.1/DTD/svg11.dtd">
<svg version="1.1" id="Outline_Version" xmlns="http://www.w3.org/2000/svg" xmlns:xlink="http://www.w3.org/1999/xlink" x="0px"
	 y="0px" width="24px" height="24px" viewBox="0 0 24 24" enable-background="new 0 0 24 24" xml:space="preserve">
<g>
	<path d="M12,0C5.383,0,0,5.383,0,12s5.383,12,12,12s12-5.383,12-12S18.617,0,12,0z M12,23C5.935,23,1,18.065,1,12S5.935,1,12,1
		s11,4.935,11,11S18.065,23,12,23z"/>
	<path d="M19.5,12.5c-0.276,0-0.5,0.224-0.5,0.5c0,3.859-3.14,7-7,7s-7-3.141-7-7c0-0.276-0.224-0.5-0.5-0.5S4,12.724,4,13
		c0,4.411,3.589,8,8,8s8-3.589,8-8C20,12.724,19.776,12.5,19.5,12.5z"/>
	<path d="M5.5,10.5C5.776,10.5,6,10.276,6,10c0-0.827,0.673-1.5,1.5-1.5S9,9.173,9,10c0,0.276,0.224,0.5,0.5,0.5S10,10.276,10,10
		c0-1.379-1.122-2.5-2.5-2.5S5,8.621,5,10C5,10.276,5.224,10.5,5.5,10.5z"/>
	<path d="M14.5,10.5c0.276,0,0.5-0.224,0.5-0.5c0-0.827,0.673-1.5,1.5-1.5S18,9.173,18,10c0,0.276,0.224,0.5,0.5,0.5
		S19,10.276,19,10c0-1.379-1.122-2.5-2.5-2.5S14,8.621,14,10C14,10.276,14.224,10.5,14.5,10.5z"/>
</g>
</svg>
