<?xml version="1.0" encoding="utf-8"?>
<!-- Generator: Adobe Illustrator 16.2.1, SVG Export Plug-In . SVG Version: 6.00 Build 0)  -->
<!DOCTYPE svg PUBLIC "-//W3C//DTD SVG 1.1//EN" "http://www.w3.org/Graphics/SVG/1.1/DTD/svg11.dtd">
<svg version="1.1" id="Outline_Version" xmlns="http://www.w3.org/2000/svg" xmlns:xlink="http://www.w3.org/1999/xlink" x="0px"
	 y="0px" width="24px" height="24px" viewBox="0 0 24 24" enable-background="new 0 0 24 24" xml:space="preserve">
<g>
	<path d="M23.004,16.793L9.668,12.029c-0.152-0.054-0.323-0.031-0.456,0.062C9.079,12.185,9,12.337,9,12.5c0,0.403-0.954,1-3,1
		c-1.703,0-3-0.666-3-1C3,12.224,2.776,12,2.5,12h-1C0.673,12,0,12.673,0,13.5v7C0,20.776,0.224,21,0.5,21h23
		c0.276,0,0.5-0.224,0.5-0.5v-2.295C24,17.572,23.6,17.005,23.004,16.793z M22.935,18H12.5c0-0.552,0.449-1,1-1h3
		c0.634,0,1.125-0.446,1.355-0.984l4.813,1.719C22.796,17.78,22.879,17.883,22.935,18z M1.5,13h0.621c0.47,0.938,2.23,1.5,3.879,1.5
		c1.964,0,3.366-0.513,3.832-1.351l1.333,0.477l-0.52,0.521c-0.195,0.195-0.194,0.512,0.002,0.707C10.745,14.951,10.873,15,11,15
		c0.128,0,0.257-0.049,0.354-0.147l0.851-0.855l0.803,0.287l-0.362,0.362c-0.195,0.195-0.195,0.512,0,0.707
		C12.744,15.451,12.872,15.5,13,15.5s0.256-0.049,0.354-0.146l0.697-0.697l2.855,1.02C16.809,15.856,16.653,16,16.5,16h-3
		c-1.103,0-2,0.897-2,2H3.949C3.728,16.473,2.527,15.271,1,15.051V13.5C1,13.225,1.224,13,1.5,13z M1,16.051
		C1.978,16.25,2.75,17.021,2.949,18H1V16.051z M1,20v-1h22v1H1z"/>
	<path d="M23.5,3h-23C0.224,3,0,3.224,0,3.5v2.296c0,0.633,0.4,1.2,0.995,1.411l8.895,3.177c0,0,0.001,0.001,0.001,0.001
		l1.845,0.658c0,0,0,0.001,0,0.001l2.596,0.927C14.387,11.99,14.443,12,14.5,12c0.102,0,0.203-0.031,0.288-0.091
		C14.921,11.815,15,11.663,15,11.5c0-0.403,0.954-1,3-1c1.703,0,3,0.666,3,1c0,0.276,0.224,0.5,0.5,0.5h1c0.827,0,1.5-0.673,1.5-1.5
		v-7C24,3.224,23.776,3,23.5,3z M23,7.949C22.022,7.75,21.25,6.979,21.051,6H23V7.949z M23,4v1H1V4H23z M1.065,6H11.5
		c0,0.552-0.449,1-1,1h-3C6.866,7,6.375,7.446,6.145,7.985l-4.814-1.72C1.203,6.221,1.12,6.118,1.065,6z M22.5,11h-0.621
		c-0.47-0.938-2.23-1.5-3.879-1.5c-1.964,0-3.366,0.513-3.832,1.351l-1.334-0.477l0.52-0.521c0.195-0.195,0.194-0.512-0.001-0.707
		c-0.195-0.193-0.512-0.193-0.707,0.002l-0.852,0.855l-0.803-0.287l0.363-0.362c0.195-0.195,0.195-0.512,0-0.707
		s-0.512-0.195-0.707,0L9.949,9.344l-2.854-1.02C7.191,8.144,7.347,8,7.5,8h3c1.103,0,2-0.897,2-2h7.551
		C20.272,7.527,21.473,8.729,23,8.949V10.5C23,10.775,22.776,11,22.5,11z"/>
</g>
</svg>
