<?xml version="1.0" encoding="utf-8"?>
<!-- Generator: Adobe Illustrator 16.2.1, SVG Export Plug-In . SVG Version: 6.00 Build 0)  -->
<!DOCTYPE svg PUBLIC "-//W3C//DTD SVG 1.1//EN" "http://www.w3.org/Graphics/SVG/1.1/DTD/svg11.dtd">
<svg version="1.1" id="Outline_Version" xmlns="http://www.w3.org/2000/svg" xmlns:xlink="http://www.w3.org/1999/xlink" x="0px"
	 y="0px" width="24px" height="24px" viewBox="0 0 24 24" enable-background="new 0 0 24 24" xml:space="preserve">
<path d="M21.5,15.967h-4.846c-3.285-2.286-1.775-5.617-0.56-8.3C16.601,6.551,17,5.669,17,4.967C17,1.706,14.484,0,11.999,0
	C9.515,0,7,1.706,7,4.967c0,0.706,0.401,1.589,0.91,2.707c1.217,2.678,2.728,6.002-0.564,8.293H2.5c-1.379,0-2.5,1.121-2.5,2.5V21.5
	C0,21.776,0.224,22,0.5,22H1v1.5C1,23.776,1.224,24,1.5,24h21c0.276,0,0.5-0.224,0.5-0.5V22h0.5c0.276,0,0.5-0.224,0.5-0.5v-3.033
	C24,17.088,22.879,15.967,21.5,15.967z M22,23H2v-1h20V23z M23,21H1v-2.533c0-0.827,0.673-1.5,1.5-1.5h5
	c0.099,0,0.194-0.029,0.276-0.084c4.161-2.764,2.285-6.892,1.044-9.622C8.398,6.332,8,5.456,8,4.967C8,2.241,10.073,1,11.999,1
	C13.926,1,16,2.241,16,4.967c0,0.486-0.396,1.361-0.816,2.287c-1.239,2.736-3.113,6.87,1.04,9.629
	c0.082,0.055,0.178,0.084,0.276,0.084h5c0.827,0,1.5,0.673,1.5,1.5V21z"/>
</svg>
