<?xml version="1.0" encoding="utf-8"?>
<!-- Generator: Adobe Illustrator 16.2.1, SVG Export Plug-In . SVG Version: 6.00 Build 0)  -->
<!DOCTYPE svg PUBLIC "-//W3C//DTD SVG 1.1//EN" "http://www.w3.org/Graphics/SVG/1.1/DTD/svg11.dtd">
<svg version="1.1" id="Outline_Version" xmlns="http://www.w3.org/2000/svg" xmlns:xlink="http://www.w3.org/1999/xlink" x="0px"
	 y="0px" width="24px" height="24px" viewBox="0 0 24 24" enable-background="new 0 0 24 24" xml:space="preserve">
<g>
	<path d="M12,9.5c-1.379,0-2.5,1.121-2.5,2.5s1.121,2.5,2.5,2.5s2.5-1.121,2.5-2.5S13.379,9.5,12,9.5z M12,13.5
		c-0.827,0-1.5-0.673-1.5-1.5s0.673-1.5,1.5-1.5s1.5,0.673,1.5,1.5S12.827,13.5,12,13.5z"/>
	<path d="M12,3c-4.963,0-9,4.037-9,9s4.037,9,9,9s9-4.037,9-9S16.963,3,12,3z M12,20c-4.411,0-8-3.589-8-8s3.589-8,8-8s8,3.589,8,8
		S16.411,20,12,20z"/>
	<path d="M21.597,17.354C22.516,15.712,23,13.869,23,12c0-1.868-0.484-3.711-1.403-5.354l1.524-1.524c1.17-1.17,1.17-3.072,0-4.242
		c-1.133-1.133-3.109-1.133-4.242,0l-1.524,1.524c-3.291-1.839-7.426-1.837-10.709,0L5.121,0.879c-1.133-1.133-3.109-1.133-4.242,0
		c-1.17,1.17-1.17,3.072,0,4.242l1.524,1.524C1.484,8.286,1,10.129,1,12c0,1.872,0.484,3.715,1.403,5.354l-1.524,1.524
		c-1.17,1.17-1.17,3.072,0,4.242c1.133,1.133,3.109,1.133,4.242,0l1.524-1.524c3.283,1.837,7.418,1.839,10.709,0l1.524,1.524
		C19.445,23.688,20.199,24,21,24s1.555-0.312,2.121-0.879c1.17-1.17,1.17-3.072,0-4.242L21.597,17.354z M22.414,22.414
		c-0.756,0.756-2.072,0.756-2.828,0l-1.797-1.797c-0.097-0.097-0.225-0.146-0.354-0.146c-0.089,0-0.179,0.023-0.259,0.072
		c-3.146,1.908-7.215,1.906-10.353,0c-0.199-0.119-0.45-0.09-0.613,0.074l-1.797,1.797c-0.756,0.756-2.072,0.756-2.828,0
		c-0.779-0.779-0.779-2.049,0-2.828l1.797-1.797c0.163-0.163,0.193-0.416,0.073-0.613C2.504,15.609,2,13.819,2,12
		c0-1.818,0.504-3.608,1.456-5.176c0.12-0.197,0.09-0.45-0.073-0.613L1.586,4.414c-0.779-0.779-0.779-2.049,0-2.828
		c0.756-0.756,2.072-0.756,2.828,0l1.797,1.797c0.163,0.164,0.414,0.193,0.613,0.074c3.138-1.905,7.207-1.907,10.353,0
		c0.196,0.119,0.449,0.09,0.612-0.074l1.797-1.797c0.756-0.756,2.072-0.756,2.828,0c0.779,0.779,0.779,2.049,0,2.828l-1.797,1.797
		c-0.163,0.163-0.193,0.416-0.074,0.613C21.496,8.395,22,10.185,22,12c0,1.816-0.504,3.606-1.457,5.176
		c-0.119,0.197-0.089,0.45,0.074,0.613l1.797,1.797C23.193,20.365,23.193,21.635,22.414,22.414z"/>
	<circle cx="3" cy="3" r="1"/>
	<circle cx="21" cy="3" r="1"/>
	<circle cx="21" cy="21" r="1"/>
	<circle cx="3" cy="21" r="1"/>
</g>
</svg>
