<?xml version="1.0" encoding="utf-8"?>
<!-- Generator: Adobe Illustrator 16.2.1, SVG Export Plug-In . SVG Version: 6.00 Build 0)  -->
<!DOCTYPE svg PUBLIC "-//W3C//DTD SVG 1.1//EN" "http://www.w3.org/Graphics/SVG/1.1/DTD/svg11.dtd">
<svg version="1.1" id="Outline_Version" xmlns="http://www.w3.org/2000/svg" xmlns:xlink="http://www.w3.org/1999/xlink" x="0px"
	 y="0px" width="24px" height="24px" viewBox="0 0 24 24" enable-background="new 0 0 24 24" xml:space="preserve">
<path d="M17.5,5h-2.999h-1.5V1H14.5C14.776,1,15,0.776,15,0.5S14.776,0,14.5,0h-1.999h-2H8.5C8.224,0,8,0.224,8,0.5S8.224,1,8.5,1
	h1.501v4h-1.5H5.5C5.224,5,5,5.224,5,5.5S5.224,6,5.5,6h2.501v9.5c0,2.468,1.189,4.175,3,4.445V23.5c0,0.276,0.224,0.5,0.5,0.5
	s0.5-0.224,0.5-0.5v-3.555c1.811-0.27,3-1.977,3-4.445V6H17.5C17.776,6,18,5.776,18,5.5S17.776,5,17.5,5z M11.001,1h1v4h-1V1z
	 M14.001,15.5c0,1.742-0.773,3.5-2.5,3.5c-1.846,0-2.5-1.885-2.5-3.5V13h1c0.276,0,0.5-0.224,0.5-0.5s-0.224-0.5-0.5-0.5h-1v-1h1
	c0.276,0,0.5-0.224,0.5-0.5s-0.224-0.5-0.5-0.5h-1V9h1c0.276,0,0.5-0.224,0.5-0.5S10.277,8,10.001,8h-1V6h1.5h2h1.5V15.5z"/>
</svg>
