<?xml version="1.0" encoding="utf-8"?>
<!-- Generator: Adobe Illustrator 16.2.1, SVG Export Plug-In . SVG Version: 6.00 Build 0)  -->
<!DOCTYPE svg PUBLIC "-//W3C//DTD SVG 1.1//EN" "http://www.w3.org/Graphics/SVG/1.1/DTD/svg11.dtd">
<svg version="1.1" id="Outline_Version" xmlns="http://www.w3.org/2000/svg" xmlns:xlink="http://www.w3.org/1999/xlink" x="0px"
	 y="0px" width="24px" height="24px" viewBox="0 0 24 24" enable-background="new 0 0 24 24" xml:space="preserve">
<path d="M23.903,2.704C23.809,2.576,23.659,2.5,23.5,2.5h-2v-2c0-0.159-0.076-0.309-0.204-0.403
	c-0.128-0.095-0.293-0.123-0.445-0.074c-0.194,0.061-4.749,1.512-5.394,4.132c-0.233,0.945,0.055,1.896,0.85,2.83l-1.317,1.317
	C13.397,6.876,11.302,6,9,6c-4.962,0-9,4.038-9,9c0,2.302,0.876,4.397,2.302,5.991l-2.156,2.156c-0.195,0.195-0.195,0.512,0,0.707
	C0.244,23.951,0.372,24,0.5,24s0.256-0.049,0.354-0.146l2.156-2.156C4.603,23.124,6.698,24,9,24s4.397-0.876,5.991-2.302
	l2.156,2.156C17.244,23.951,17.372,24,17.5,24s0.256-0.049,0.354-0.146c0.195-0.195,0.195-0.512,0-0.707l-2.156-2.156
	C17.124,19.397,18,17.302,18,15s-0.876-4.397-2.302-5.991l1.327-1.327c0.721,0.61,1.454,0.938,2.188,0.938
	c3.021,0,4.695-5.248,4.765-5.471C24.025,2.998,23.997,2.832,23.903,2.704z M20.5,2.793l-1.5,1.5V1.904
	c0.53-0.285,1.06-0.525,1.5-0.696V2.793z M16.428,4.395C16.602,3.687,17.236,3.048,18,2.513v2.78l-0.974,0.974
	C16.491,5.613,16.281,4.996,16.428,4.395z M17,15c0,2.19-0.886,4.176-2.316,5.622c-0.012,0.01-0.026,0.014-0.037,0.024
	s-0.015,0.025-0.024,0.037C13.176,22.114,11.19,23,9,23s-4.176-0.886-5.622-2.316c-0.01-0.012-0.014-0.026-0.024-0.037
	s-0.025-0.015-0.037-0.024C1.886,19.176,1,17.19,1,15c0-4.411,3.589-8,8-8c2.026,0,3.873,0.763,5.284,2.009l-1.414,1.414
	C11.825,9.537,10.475,9,9,9c-3.309,0-6,2.691-6,6s2.691,6,6,6s6-2.691,6-6c0-1.475-0.537-2.825-1.423-3.87l1.414-1.414
	C16.237,11.127,17,12.974,17,15z M11,15c0,1.103-0.897,2-2,2s-2-0.897-2-2s0.897-2,2-2c0.37,0,0.712,0.108,1.01,0.283l-0.766,0.766
	C9.164,14.029,9.086,14,9,14c-0.551,0-1,0.449-1,1s0.449,1,1,1s1-0.449,1-1c0-0.086-0.029-0.164-0.049-0.244l0.766-0.766
	C10.892,14.288,11,14.63,11,15z M10.733,12.56C10.243,12.21,9.647,12,9,12c-1.654,0-3,1.346-3,3s1.346,3,3,3s3-1.346,3-3
	c0-0.647-0.21-1.243-0.56-1.733l1.414-1.414C13.559,12.716,14,13.802,14,15c0,2.757-2.243,5-5,5s-5-2.243-5-5s2.243-5,5-5
	c1.198,0,2.284,0.441,3.146,1.146L10.733,12.56z M19.212,7.62c-0.472,0-0.97-0.222-1.483-0.642L21.207,3.5h1.586
	C22.19,5.055,20.852,7.62,19.212,7.62z"/>
</svg>
