<?xml version="1.0" encoding="utf-8"?>
<!-- Generator: Adobe Illustrator 16.2.1, SVG Export Plug-In . SVG Version: 6.00 Build 0)  -->
<!DOCTYPE svg PUBLIC "-//W3C//DTD SVG 1.1//EN" "http://www.w3.org/Graphics/SVG/1.1/DTD/svg11.dtd">
<svg version="1.1" id="Outline_Version" xmlns="http://www.w3.org/2000/svg" xmlns:xlink="http://www.w3.org/1999/xlink" x="0px"
	 y="0px" width="24px" height="24px" viewBox="0 0 24 24" enable-background="new 0 0 24 24" xml:space="preserve">
<path d="M20.5,9.5c-0.58,0-1.136,0.14-1.638,0.409c-1.133-1.893-3.017-3.285-5.244-3.744C13.856,5.836,14,5.436,14,5
	c0-1.103-0.897-2-2-2s-2,0.897-2,2c0,0.436,0.144,0.836,0.381,1.165C6.918,6.88,4.274,9.842,4.028,13.452C2.875,13.23,2,12.217,2,11
	V9.5C2,8.673,1.327,8,0.5,8C0.224,8,0,8.224,0,8.5S0.224,9,0.5,9C0.776,9,1,9.225,1,9.5V11c0,1.771,1.327,3.224,3.037,3.453
	c0.089,1.574,0.613,3.071,1.575,4.348C5.706,18.926,5.854,19,6.011,19H17.99c0.157,0,0.305-0.074,0.399-0.199
	c0.559-0.743,0.968-1.562,1.238-2.425C19.912,16.45,20.202,16.5,20.5,16.5c1.93,0,3.5-1.57,3.5-3.5S22.43,9.5,20.5,9.5z M16.89,9
	H7.11C8.374,7.765,10.098,7,12,7S15.626,7.765,16.89,9z M11,5c0-0.552,0.449-1,1-1s1,0.448,1,1s-0.449,1-1,1S11,5.552,11,5z
	 M17.735,18H6.265C5.437,16.818,5,15.44,5,14c0-1.487,0.47-2.865,1.264-4h11.473C18.53,11.135,19,12.513,19,14
	C19,15.44,18.563,16.817,17.735,18z M20.5,15.5c-0.217,0-0.427-0.037-0.633-0.092C19.949,14.946,20,14.478,20,14
	c0-1.14-0.243-2.222-0.675-3.204c0.36-0.194,0.759-0.296,1.175-0.296c1.378,0,2.5,1.121,2.5,2.5S21.878,15.5,20.5,15.5z"/>
</svg>
