<?xml version="1.0" encoding="utf-8"?>
<!-- Generator: Adobe Illustrator 16.2.1, SVG Export Plug-In . SVG Version: 6.00 Build 0)  -->
<!DOCTYPE svg PUBLIC "-//W3C//DTD SVG 1.1//EN" "http://www.w3.org/Graphics/SVG/1.1/DTD/svg11.dtd">
<svg version="1.1" id="Outline_Version" xmlns="http://www.w3.org/2000/svg" xmlns:xlink="http://www.w3.org/1999/xlink" x="0px"
	 y="0px" width="24px" height="24px" viewBox="0 0 24 24" enable-background="new 0 0 24 24" xml:space="preserve">
<path d="M19.693,5.465c-2.023-2.115-4.747-3.317-7.706-3.44V0.5c0-0.276-0.224-0.5-0.5-0.5s-0.5,0.224-0.5,0.5v1.524
	C8.028,2.148,5.307,3.352,3.281,5.468c-2.244,2.346-3.444,5.646-3.293,9.055C0,14.794,0.21,15.021,0.5,15
	c0.272-0.007,0.489-0.23,0.487-0.503c0-0.006,0.008-0.562,0.429-0.984C1.754,13.173,2.278,13,2.975,13
	c1.921,0,2.011,1.354,2.015,1.504c0.002,0.252,0.19,0.463,0.44,0.492C5.45,14.999,5.47,15,5.489,15c0.227,0,0.429-0.154,0.485-0.379
	C5.979,14.605,6.403,13,8.489,13c1.908,0,2.419,1.324,2.498,1.569V22c0,1.066,0.88,1.625,1.75,1.625s1.75-0.559,1.75-1.625
	c0-0.276-0.224-0.5-0.5-0.5s-0.5,0.224-0.5,0.5c0,0.607-0.673,0.625-0.75,0.625s-0.75-0.018-0.75-0.625v-7.366
	C12.195,14.282,13.051,13,14.489,13c1.658,0,2.545,1.708,2.554,1.725c0.094,0.186,0.284,0.296,0.501,0.271
	c0.207-0.022,0.378-0.171,0.43-0.372C17.978,14.607,18.407,13,20,13c1.568,0,1.983,1.547,2.002,1.62
	c0.06,0.24,0.274,0.392,0.534,0.378c0.247-0.024,0.439-0.228,0.45-0.476C23.138,11.112,21.938,7.811,19.693,5.465z M20,12
	c-1.311,0-2.144,0.748-2.601,1.481C16.854,12.824,15.892,12,14.489,12c-1.417,0-2.385,0.841-2.927,1.502
	C11.056,12.762,10.089,12,8.489,12c-1.416,0-2.336,0.597-2.88,1.247C5.197,12.589,4.398,12,2.975,12
	c-0.777,0-1.42,0.174-1.919,0.517c0.282-2.424,1.298-4.633,2.948-6.357C5.953,4.122,8.611,3,11.489,3
	c2.877,0,5.534,1.121,7.481,3.156c1.695,1.771,2.72,4.054,2.97,6.555C21.471,12.303,20.834,12,20,12z"/>
</svg>
