<?xml version="1.0" encoding="utf-8"?>
<!-- Generator: Adobe Illustrator 16.2.1, SVG Export Plug-In . SVG Version: 6.00 Build 0)  -->
<!DOCTYPE svg PUBLIC "-//W3C//DTD SVG 1.1//EN" "http://www.w3.org/Graphics/SVG/1.1/DTD/svg11.dtd">
<svg version="1.1" id="Outline_Version" xmlns="http://www.w3.org/2000/svg" xmlns:xlink="http://www.w3.org/1999/xlink" x="0px"
	 y="0px" width="24px" height="24px" viewBox="0 0 24 24" enable-background="new 0 0 24 24" xml:space="preserve">
<g>
	<path d="M23.5,0h-15C8.224,0,8,0.224,8,0.5v4h1V1h14v8h-3c-0.133,0-0.26,0.053-0.354,0.146L16.5,12.293V9.5
		C16.5,9.224,16.276,9,16,9h-2v1h1.5v3.5c0,0.202,0.122,0.385,0.309,0.462C15.87,13.987,15.936,14,16,14
		c0.13,0,0.258-0.051,0.354-0.146L20.207,10H23.5c0.276,0,0.5-0.224,0.5-0.5v-9C24,0.224,23.776,0,23.5,0z"/>
	<path d="M14.11,19.31l-3.61-1.293v-1.733c1.115-0.952,1.849-2.488,1.849-4.23c0-2.888-1.995-5.236-4.447-5.236
		s-4.447,2.349-4.447,5.236c0,1.845,0.818,3.462,2.046,4.395v1.569L1.891,19.31C0.76,19.713,0,20.799,0,22.012V23.5
		C0,23.776,0.224,24,0.5,24h15c0.276,0,0.5-0.224,0.5-0.5v-1.488C16,20.799,15.24,19.713,14.11,19.31z M7.901,7.816
		c1.656,0,3.043,1.444,3.372,3.362c-1.056,0.177-1.695-0.177-2.333-1.292C8.849,9.728,8.73,9.633,8.496,9.635
		C8.313,9.639,8.147,9.741,8.062,9.903c-0.343,0.656-1.549,1.255-2.529,1.255c-0.351,0-0.654-0.071-0.953-0.181
		C4.971,9.164,6.305,7.816,7.901,7.816z M4.454,12.053c0-0.017,0.004-0.031,0.004-0.048c0.34,0.1,0.691,0.153,1.075,0.153
		c1.064,0,2.229-0.487,2.936-1.169c0.634,0.839,1.38,1.237,2.319,1.237c0.175,0,0.363-0.029,0.551-0.056
		c-0.052,2.281-1.57,4.119-3.438,4.119C6.001,16.29,4.454,14.39,4.454,12.053z M15,23H1v-0.988c0-0.791,0.493-1.498,1.228-1.761
		l3.941-1.411C6.367,18.769,6.5,18.58,6.5,18.369v-1.371c0.443,0.175,0.909,0.292,1.401,0.292c0.565,0,1.101-0.137,1.599-0.364
		v1.443c0,0.211,0.133,0.399,0.331,0.471l3.942,1.411C14.507,20.514,15,21.221,15,22.012V23z"/>
	<rect x="19" y="5" width="1" height="1"/>
	<rect x="16" y="5" width="1" height="1"/>
	<rect x="13" y="5" width="1" height="1"/>
</g>
</svg>
