<?xml version="1.0" encoding="utf-8"?>
<!-- Generator: Adobe Illustrator 16.2.1, SVG Export Plug-In . SVG Version: 6.00 Build 0)  -->
<!DOCTYPE svg PUBLIC "-//W3C//DTD SVG 1.1//EN" "http://www.w3.org/Graphics/SVG/1.1/DTD/svg11.dtd">
<svg version="1.1" id="Outline_Version" xmlns="http://www.w3.org/2000/svg" xmlns:xlink="http://www.w3.org/1999/xlink" x="0px"
	 y="0px" width="24px" height="24px" viewBox="0 0 24 24" enable-background="new 0 0 24 24" xml:space="preserve">
<path d="M17.992,15.238l-3.164-3.164l3.164-3.164c1.591,0.538,3.419,0.117,4.617-1.082c1.309-1.308,1.676-3.171,0.959-4.863
	c-0.065-0.154-0.205-0.266-0.37-0.296c-0.167-0.033-0.334,0.023-0.451,0.145l-1.766,1.835h-1.408V3.086l1.769-1.768
	c0.118-0.117,0.169-0.286,0.137-0.449s-0.143-0.3-0.296-0.365c-1.662-0.702-3.66-0.319-4.939,0.961
	c-1.22,1.221-1.627,3.001-1.083,4.617L12,9.245L8.836,6.082c0.546-1.617,0.138-3.396-1.082-4.617
	c-1.308-1.309-3.172-1.676-4.863-0.96C2.736,0.57,2.625,0.709,2.594,0.874c-0.03,0.165,0.024,0.335,0.145,0.451l1.835,1.767v1.557
	H3.018L1.251,2.813C1.134,2.692,0.965,2.635,0.8,2.669c-0.166,0.03-0.304,0.142-0.37,0.296c-0.711,1.681-0.335,3.604,0.96,4.9
	C2.604,9.079,4.385,9.479,6.008,8.93l3.159,3.148l-3.159,3.16c-1.588-0.537-3.419-0.117-4.617,1.082
	c-1.301,1.302-1.678,3.24-0.96,4.937c0.065,0.153,0.202,0.265,0.365,0.297c0.163,0.03,0.332-0.021,0.449-0.138l1.768-1.768h1.562
	v1.408l-1.835,1.767c-0.121,0.117-0.176,0.286-0.145,0.451c0.031,0.166,0.143,0.305,0.297,0.37c0.558,0.235,1.146,0.354,1.747,0.354
	c1.184,0,2.303-0.467,3.152-1.315c1.208-1.205,1.602-2.986,1.046-4.617L12,14.902l3.164,3.164c-0.546,1.618-0.139,3.398,1.082,4.617
	c0.862,0.863,2.006,1.319,3.174,1.319c0.593,0,1.192-0.117,1.764-0.358c0.153-0.065,0.265-0.202,0.296-0.365
	s-0.02-0.332-0.137-0.449l-1.769-1.768v-1.414h1.414l1.768,1.768c0.118,0.117,0.287,0.168,0.449,0.138
	c0.163-0.032,0.3-0.144,0.365-0.297c0.718-1.696,0.341-3.635-0.96-4.937C21.389,15.099,19.609,14.691,17.992,15.238z M6.486,7.993
	C6.341,7.851,6.125,7.807,5.938,7.887c-1.33,0.562-2.836,0.276-3.84-0.729C1.286,6.346,0.938,5.216,1.125,4.125l1.319,1.37
	c0.094,0.098,0.225,0.153,0.36,0.153h2.27c0.276,0,0.5-0.224,0.5-0.5v-2.27c0-0.136-0.055-0.266-0.153-0.36L4.049,1.197
	c1.079-0.184,2.179,0.154,2.998,0.975c1.012,1.012,1.305,2.52,0.747,3.841C7.714,6.2,7.756,6.417,7.9,6.561l3.393,3.392
	l-1.419,1.419L6.486,7.993z M7.793,18.137c0.566,1.337,0.288,2.844-0.709,3.84c-0.803,0.802-1.945,1.16-3.034,0.973l1.371-1.319
	c0.098-0.095,0.153-0.225,0.153-0.36v-2.121c0-0.276-0.224-0.5-0.5-0.5h-2.27c-0.133,0-0.26,0.053-0.354,0.146l-1.324,1.323
	c-0.201-1.112,0.146-2.266,0.97-3.091c0.996-0.996,2.551-1.292,3.84-0.747c0.187,0.082,0.404,0.038,0.549-0.106l9.611-9.613
	c0.144-0.144,0.186-0.36,0.107-0.548c-0.558-1.32-0.264-2.828,0.748-3.841c0.808-0.809,1.983-1.168,3.092-0.97l-1.324,1.323
	c-0.094,0.094-0.146,0.221-0.146,0.354v2.27c0,0.276,0.224,0.5,0.5,0.5h2.121c0.136,0,0.266-0.056,0.36-0.153l1.32-1.372
	c0.189,1.082-0.155,2.18-0.974,2.998c-0.996,0.995-2.55,1.292-3.84,0.747c-0.188-0.081-0.405-0.038-0.549,0.106L7.9,17.588
	C7.756,17.731,7.714,17.949,7.793,18.137z M22.873,20.118l-1.324-1.323c-0.094-0.094-0.221-0.146-0.354-0.146h-2.121
	c-0.276,0-0.5,0.224-0.5,0.5v2.121c0,0.133,0.053,0.26,0.146,0.354l1.324,1.323c-1.116,0.207-2.269-0.146-3.092-0.97
	c-1.012-1.011-1.305-2.519-0.746-3.841c0.08-0.188,0.037-0.404-0.107-0.548l-3.392-3.393l1.414-1.414l3.392,3.393
	c0.144,0.145,0.361,0.188,0.549,0.106c1.321-0.56,2.827-0.267,3.84,0.747C22.727,17.853,23.074,19.006,22.873,20.118z"/>
</svg>
