<?xml version="1.0" encoding="utf-8"?>
<!-- Generator: Adobe Illustrator 16.2.1, SVG Export Plug-In . SVG Version: 6.00 Build 0)  -->
<!DOCTYPE svg PUBLIC "-//W3C//DTD SVG 1.1//EN" "http://www.w3.org/Graphics/SVG/1.1/DTD/svg11.dtd">
<svg version="1.1" id="Outline_Version" xmlns="http://www.w3.org/2000/svg" xmlns:xlink="http://www.w3.org/1999/xlink" x="0px"
	 y="0px" width="24px" height="24px" viewBox="0 0 24 24" enable-background="new 0 0 24 24" xml:space="preserve">
<g>
	<path d="M19.5,10.5c-0.276,0-0.5,0.224-0.5,0.5v12H1V3h15.5C16.776,3,17,2.776,17,2.5S16.776,2,16.5,2h-16C0.224,2,0,2.224,0,2.5
		v21C0,23.776,0.224,24,0.5,24h19c0.276,0,0.5-0.224,0.5-0.5V11C20,10.724,19.776,10.5,19.5,10.5z"/>
	<path d="M23.888,0.975c-0.396-0.955-1.701-1.285-2.463-0.522l-9.546,9.545c-0.038,0.038-0.07,0.082-0.094,0.13l-1.414,2.83
		c-0.096,0.193-0.059,0.425,0.094,0.577c0.096,0.096,0.224,0.146,0.354,0.146c0.076,0,0.152-0.017,0.224-0.053l2.828-1.414
		c0.048-0.024,0.092-0.056,0.13-0.094l9.547-9.547C23.991,2.13,24.119,1.532,23.888,0.975z M13.35,11.356l-1.415,0.708l0.708-1.416
		l7.721-7.721l0.707,0.708L13.35,11.356z M22.84,1.867l-1.061,1.061L21.072,2.22l1.06-1.06c0.286-0.287,0.699-0.127,0.833,0.198
		C23.039,1.539,22.997,1.71,22.84,1.867z"/>
</g>
</svg>
