<?xml version="1.0" encoding="utf-8"?>
<!-- Generator: Adobe Illustrator 16.2.1, SVG Export Plug-In . SVG Version: 6.00 Build 0)  -->
<!DOCTYPE svg PUBLIC "-//W3C//DTD SVG 1.1//EN" "http://www.w3.org/Graphics/SVG/1.1/DTD/svg11.dtd">
<svg version="1.1" id="Filled_Version" xmlns="http://www.w3.org/2000/svg" xmlns:xlink="http://www.w3.org/1999/xlink" x="0px"
	 y="0px" width="24px" height="24px" viewBox="0 0 24 24" enable-background="new 0 0 24 24" xml:space="preserve">
<path d="M21.499,3.5c-0.827,0-1.5,0.672-1.5,1.5c0,0.827-0.673,1.5-1.5,1.5s-1.5-0.673-1.5-1.5c0-1.653-1.346-3-2.999-3
	c-1.654,0-3,1.347-3,3v2H9.5C9.224,7,9,7.224,9,7.5v1.091C5.995,9.808,4,12.74,4,16c0,4.411,3.589,8,8,8s7.999-3.589,7.999-8
	c0-3.26-1.994-6.192-4.999-7.409V7.5C15,7.224,14.776,7,14.5,7H12V5c0-1.104,0.896-2,2-2c1.103,0,1.999,0.896,1.999,2
	c0,1.378,1.122,2.5,2.5,2.5c1.379,0,2.5-1.122,2.5-2.5c0-0.275,0.225-0.5,0.5-0.5c0.276,0,0.5-0.225,0.5-0.5
	C21.999,3.724,21.775,3.5,21.499,3.5z M9.141,11.898c-2.262,1.577-2.819,4.699-1.242,6.962C8.056,19.086,8,19.396,7.773,19.555
	c-0.087,0.06-0.187,0.088-0.285,0.088c-0.158,0-0.313-0.073-0.41-0.212c-0.917-1.316-1.267-2.908-0.984-4.486
	c0.281-1.578,1.161-2.951,2.476-3.867c0.227-0.158,0.538-0.104,0.696,0.123C9.423,11.428,9.367,11.74,9.141,11.898z"/>
</svg>
