<?xml version="1.0" encoding="utf-8"?>
<!-- Generator: Adobe Illustrator 16.2.1, SVG Export Plug-In . SVG Version: 6.00 Build 0)  -->
<!DOCTYPE svg PUBLIC "-//W3C//DTD SVG 1.1//EN" "http://www.w3.org/Graphics/SVG/1.1/DTD/svg11.dtd">
<svg version="1.1" id="Filled_Version" xmlns="http://www.w3.org/2000/svg" xmlns:xlink="http://www.w3.org/1999/xlink" x="0px"
	 y="0px" width="24px" height="24px" viewBox="0 0 24 24" enable-background="new 0 0 24 24" xml:space="preserve">
<g>
	<path d="M1.237,2.599C1.09,2.69,1,2.852,1,3.024v15.5c0,0.19,0.106,0.363,0.276,0.448l9.722,4.861V7.215L1.724,2.577
		C1.568,2.501,1.385,2.508,1.237,2.599z"/>
	<path d="M21.759,2.599c-0.147-0.091-0.331-0.099-0.486-0.022l-9.274,4.638v16.618l9.722-4.861c0.17-0.085,0.276-0.258,0.276-0.448
		v-15.5C21.996,2.852,21.906,2.69,21.759,2.599z"/>
	<path d="M19.944,1.274c-0.125-0.246-0.426-0.346-0.672-0.22l-7.774,3.934L3.724,1.055C3.478,0.93,3.178,1.028,3.052,1.274
		C2.928,1.522,3.026,1.822,3.272,1.947l8,4.048c0.071,0.036,0.148,0.054,0.226,0.054c0.078,0,0.155-0.018,0.226-0.054l8-4.048
		C19.971,1.822,20.069,1.522,19.944,1.274z"/>
</g>
</svg>
