<?xml version="1.0" encoding="utf-8"?>
<!-- Generator: Adobe Illustrator 16.2.1, SVG Export Plug-In . SVG Version: 6.00 Build 0)  -->
<!DOCTYPE svg PUBLIC "-//W3C//DTD SVG 1.1//EN" "http://www.w3.org/Graphics/SVG/1.1/DTD/svg11.dtd">
<svg version="1.1" id="Filled_Version" xmlns="http://www.w3.org/2000/svg" xmlns:xlink="http://www.w3.org/1999/xlink" x="0px"
	 y="0px" width="24px" height="24px" viewBox="0 0 24 24" enable-background="new 0 0 24 24" xml:space="preserve">
<path d="M22.5,6H16V5V4V3c0-0.551-0.449-1-1-1H9C8.448,2,8,2.449,8,3v2v1H1.5C0.673,6,0,6.673,0,7.5v14C0,22.327,0.673,23,1.5,23h21
	c0.826,0,1.5-0.673,1.5-1.5v-14C24,6.673,23.326,6,22.5,6z M9,5h6v1H9V5z M21,19H3v-1h18V19z M21,15H3v-1h18V15z M21,11H3v-1h18V11z
	"/>
</svg>
