<?xml version="1.0" encoding="utf-8"?>
<!-- Generator: Adobe Illustrator 16.2.1, SVG Export Plug-In . SVG Version: 6.00 Build 0)  -->
<!DOCTYPE svg PUBLIC "-//W3C//DTD SVG 1.1//EN" "http://www.w3.org/Graphics/SVG/1.1/DTD/svg11.dtd">
<svg version="1.1" id="Filled_Version" xmlns="http://www.w3.org/2000/svg" xmlns:xlink="http://www.w3.org/1999/xlink" x="0px"
	 y="0px" width="24px" height="24px" viewBox="0 0 24 24" enable-background="new 0 0 24 24" xml:space="preserve">
<path d="M22.5,3h-21C0.673,3,0,3.673,0,4.5v13C0,18.327,0.673,19,1.5,19H3v3.5c0,0.202,0.122,0.385,0.309,0.462
	C3.371,22.987,3.436,23,3.5,23c0.13,0,0.258-0.051,0.354-0.146L7.707,19H22.5c0.827,0,1.5-0.673,1.5-1.5v-13
	C24,3.673,23.327,3,22.5,3z M8.5,12c-0.551,0-1-0.448-1-1c0-0.552,0.449-1,1-1s1,0.448,1,1C9.5,11.552,9.051,12,8.5,12z M12.5,12
	c-0.551,0-1-0.448-1-1c0-0.552,0.449-1,1-1s1,0.448,1,1C13.5,11.552,13.051,12,12.5,12z M16.5,12c-0.551,0-1-0.448-1-1
	c0-0.552,0.449-1,1-1s1,0.448,1,1C17.5,11.552,17.051,12,16.5,12z"/>
</svg>
