<?xml version="1.0" encoding="utf-8"?>
<!-- Generator: Adobe Illustrator 16.2.1, SVG Export Plug-In . SVG Version: 6.00 Build 0)  -->
<!DOCTYPE svg PUBLIC "-//W3C//DTD SVG 1.1//EN" "http://www.w3.org/Graphics/SVG/1.1/DTD/svg11.dtd">
<svg version="1.1" id="Filled_Version" xmlns="http://www.w3.org/2000/svg" xmlns:xlink="http://www.w3.org/1999/xlink" x="0px"
	 y="0px" width="24px" height="24px" viewBox="0 0 24 24" enable-background="new 0 0 24 24" xml:space="preserve">
<g>
	<circle cx="6" cy="14.5" r="1"/>
	<circle cx="13" cy="14.5" r="1"/>
	<path d="M23.537,10.443c-0.289-0.193-0.654-0.229-0.976-0.094L18,12.25V10.5C18,9.673,17.327,9,16.5,9H16V6.5
		C16,6.225,16.225,6,16.5,6h1.592c0.207,0.582,0.758,1,1.408,1h3C23.327,7,24,6.327,24,5.5S23.327,4,22.5,4h-3
		c-0.65,0-1.201,0.42-1.408,1H16.5C15.673,5,15,5.673,15,6.5V9h-3V7.5C12,6.673,11.327,6,10.5,6h-10C0.225,6,0,6.224,0,6.5
		S0.225,7,0.5,7h10C10.775,7,11,7.225,11,7.5V9H2.5C1.673,9,1,9.673,1,10.5v8C1,19.327,1.673,20,2.5,20h14
		c0.827,0,1.5-0.673,1.5-1.5v-1.75l4.562,1.901c0.129,0.054,0.265,0.08,0.399,0.08c0.203,0,0.402-0.059,0.578-0.174
		C23.828,18.363,24,18.04,24,17.692v-6.385C24,10.96,23.828,10.638,23.537,10.443z M13,16.5c-1.103,0-2-0.896-2-2
		c0-0.365,0.105-0.704,0.278-1H7.722C7.894,13.796,8,14.135,8,14.5c0,1.104-0.897,2-2,2s-2-0.896-2-2c0-1.102,0.897-2,2-2h7
		c1.103,0,2,0.898,2,2C15,15.604,14.103,16.5,13,16.5z"/>
</g>
</svg>
