<?xml version="1.0" encoding="utf-8"?>
<!-- Generator: Adobe Illustrator 16.2.1, SVG Export Plug-In . SVG Version: 6.00 Build 0)  -->
<!DOCTYPE svg PUBLIC "-//W3C//DTD SVG 1.1//EN" "http://www.w3.org/Graphics/SVG/1.1/DTD/svg11.dtd">
<svg version="1.1" id="Filled_Version" xmlns="http://www.w3.org/2000/svg" xmlns:xlink="http://www.w3.org/1999/xlink" x="0px"
	 y="0px" width="24px" height="24px" viewBox="0 0 24 24" enable-background="new 0 0 24 24" xml:space="preserve">
<g>
	<rect x="17.5" y="3.5" width="1.5" height="1"/>
	<path d="M14.5,6c0-1.378-1.121-2.5-2.5-2.5S9.5,4.622,9.5,6c0,1.379,1.121,2.5,2.5,2.5S14.5,7.379,14.5,6z"/>
	<circle cx="5.75" cy="9.281" r="0.25"/>
	<path d="M11.5,9.46v2.04h1V9.46C12.336,9.484,12.17,9.5,12,9.5S11.664,9.484,11.5,9.46z"/>
	<path d="M10.5,9.159C9.32,8.595,8.5,7.394,8.5,6c0-1.393,0.82-2.593,2-3.157V0.5h1v2.04C11.664,2.517,11.83,2.5,12,2.5
		s0.336,0.017,0.5,0.04V0.5h1v2.343c1.18,0.564,2,1.765,2,3.157c0,1.394-0.82,2.595-2,3.159V11.5H22v-8C22,1.57,20.43,0,18.5,0h-13
		C3.57,0,2,1.57,2,3.5v8h8.5V9.159z M16.5,2.5H20v3h-3.5V2.5z M5.75,10.031C5.336,10.031,5,9.695,5,9.281
		c0-0.413,0.336-0.75,0.75-0.75S6.5,8.868,6.5,9.281C6.5,9.695,6.164,10.031,5.75,10.031z"/>
	<path d="M0,15v3c0,1.104,0.897,2,2,2h2.211c-0.422,1.031-1.066,2.148-2.064,3.146L1.293,24h21.588l-1.061-0.884
		c-1.047-0.873-1.705-2.021-2.119-3.116H22c1.103,0,2-0.896,2-2v-3H0z M20.287,23H3.615c0.264-0.329,0.494-0.664,0.703-1h15.246
		C19.777,22.343,20.014,22.68,20.287,23z M22,17h-3.979c0.058,0.788,0.266,2.387,1.008,4H4.867c0.809-1.676,1.041-3.23,1.107-4H2v-1
		h3h13.999H22V17z"/>
	<polygon points="22.541,12.5 1.46,12.5 0.26,14 23.74,14 	"/>
</g>
</svg>
