<?xml version="1.0" encoding="utf-8"?>
<!-- Generator: Adobe Illustrator 16.2.1, SVG Export Plug-In . SVG Version: 6.00 Build 0)  -->
<!DOCTYPE svg PUBLIC "-//W3C//DTD SVG 1.1//EN" "http://www.w3.org/Graphics/SVG/1.1/DTD/svg11.dtd">
<svg version="1.1" id="Filled_Version" xmlns="http://www.w3.org/2000/svg" xmlns:xlink="http://www.w3.org/1999/xlink" x="0px"
	 y="0px" width="24px" height="24px" viewBox="0 0 24 24" enable-background="new 0 0 24 24" xml:space="preserve">
<g>
	<rect x="19" y="18" width="2" height="1"/>
	<path d="M20.5,14H17v-1h-1v-2h0.5c1.379,0,2.5-1.121,2.5-2.5V3H6v5.5C6,9.879,7.121,11,8.5,11H9v2H8v1H3.5C1.57,14,0,15.57,0,17.5
		v2C0,21.43,1.57,23,3.5,23H8v1h9v-1h3.5c1.93,0,3.5-1.57,3.5-3.5v-2C24,15.57,22.43,14,20.5,14z M16,5h1v4h-1V5z M4.5,21
		C3.121,21,2,19.879,2,18.5C2,17.122,3.121,16,4.5,16S7,17.122,7,18.5C7,19.879,5.879,21,4.5,21z M12,5h1v4h-1V5z M10,5h1v4h-1V5z
		 M9,9H8V5h1V9z M14.658,20.475C14.605,20.492,14.553,20.5,14.5,20.5c-0.209,0-0.404-0.132-0.475-0.341L13.14,17.5H11.86
		l-0.886,2.659c-0.088,0.261-0.369,0.404-0.633,0.316c-0.262-0.087-0.403-0.37-0.316-0.633l1-3c0.068-0.204,0.26-0.342,0.475-0.342
		h2c0.215,0,0.406,0.138,0.475,0.342l1,3C15.062,20.104,14.92,20.388,14.658,20.475z M15,13h-5v-2h5V13z M15,9h-1V5h1V9z M22,20h-4
		v-3h4V20z"/>
	<circle cx="4.5" cy="18.5" r="1.5"/>
</g>
</svg>
