<?xml version="1.0" encoding="utf-8"?>
<!-- Generator: Adobe Illustrator 16.2.1, SVG Export Plug-In . SVG Version: 6.00 Build 0)  -->
<!DOCTYPE svg PUBLIC "-//W3C//DTD SVG 1.1//EN" "http://www.w3.org/Graphics/SVG/1.1/DTD/svg11.dtd">
<svg version="1.1" id="Filled_Version" xmlns="http://www.w3.org/2000/svg" xmlns:xlink="http://www.w3.org/1999/xlink" x="0px"
	 y="0px" width="24px" height="24px" viewBox="0 0 24 24" enable-background="new 0 0 24 24" xml:space="preserve">
<g>
	<path d="M6.499,20h-1v3.5c0,0.276,0.224,0.5,0.5,0.5h11c0.276,0,0.5-0.224,0.5-0.5V20h-1H6.499z"/>
	<path d="M17.001,2.561c-0.465,0-0.928,0.082-1.362,0.24c-0.698-1.638-2.326-2.74-4.138-2.74c-1.811,0-3.439,1.102-4.139,2.74
		c-0.435-0.158-0.896-0.24-1.361-0.24C3.795,2.561,2,4.355,2,6.561c0,2.074,1.501,3.732,3.499,3.971V19h1h2v-3.5
		c0-0.276,0.224-0.5,0.5-0.5s0.5,0.224,0.5,0.5V19h1.5v-4.5c0-0.276,0.224-0.5,0.5-0.5s0.5,0.224,0.5,0.5V19h1.5v-3.5
		c0-0.276,0.224-0.5,0.5-0.5s0.5,0.224,0.5,0.5V19h2h1v-8.469C19.498,10.293,21,8.635,21,6.561C21,4.355,19.206,2.561,17.001,2.561z
		"/>
</g>
</svg>
