<?xml version="1.0" encoding="utf-8"?>
<!-- Generator: Adobe Illustrator 16.2.1, SVG Export Plug-In . SVG Version: 6.00 Build 0)  -->
<!DOCTYPE svg PUBLIC "-//W3C//DTD SVG 1.1//EN" "http://www.w3.org/Graphics/SVG/1.1/DTD/svg11.dtd">
<svg version="1.1" id="Filled_Version" xmlns="http://www.w3.org/2000/svg" xmlns:xlink="http://www.w3.org/1999/xlink" x="0px"
	 y="0px" width="24px" height="24px" viewBox="0 0 24 24" enable-background="new 0 0 24 24" xml:space="preserve">
<g>
	<path d="M21,0H3C1.346,0,0,1.346,0,3v18c0,1.654,1.346,3,3,3h18c1.654,0,3-1.346,3-3V3C24,1.346,22.654,0,21,0z M12,20
		c-4.411,0-8-3.589-8-8s3.589-8,8-8s8,3.589,8,8S16.411,20,12,20z"/>
	<path d="M15,12h-3V7c0-0.276-0.224-0.5-0.5-0.5S11,6.724,11,7v6h4c0.276,0,0.5-0.224,0.5-0.5S15.276,12,15,12z"/>
</g>
</svg>
