<?xml version="1.0" encoding="utf-8"?>
<!-- Generator: Adobe Illustrator 16.2.1, SVG Export Plug-In . SVG Version: 6.00 Build 0)  -->
<!DOCTYPE svg PUBLIC "-//W3C//DTD SVG 1.1//EN" "http://www.w3.org/Graphics/SVG/1.1/DTD/svg11.dtd">
<svg version="1.1" id="Filled_Version" xmlns="http://www.w3.org/2000/svg" xmlns:xlink="http://www.w3.org/1999/xlink" x="0px"
	 y="0px" width="24px" height="24px" viewBox="0 0 24 24" enable-background="new 0 0 24 24" xml:space="preserve">
<g>
	<path d="M17.5,5H24V2c0-1.102-0.897-2-2-2H3.5C3.224,0,3,0.225,3,0.5v10C3,10.776,3.224,11,3.5,11H5v1.993H4.5
		c-0.276,0-0.5,0.224-0.5,0.5V14.5H0.5C0.224,14.5,0,14.725,0,15c0,0.276,0.224,0.5,0.5,0.5H4v0.993c0,0.276,0.224,0.5,0.5,0.5H6
		v0.5c0,0.276,0.224,0.5,0.5,0.5S7,17.77,7,17.493v-0.5h1.5c0.276,0,0.5-0.224,0.5-0.5v-3c0-0.276-0.224-0.5-0.5-0.5H8V11h2v9H0.5
		C0.224,20,0,20.225,0,20.5v3C0,23.776,0.224,24,0.5,24H18V12.5c0-0.275,0.224-0.5,0.5-0.5H24v-2h-6.5C17.224,10,17,9.776,17,9.5
		C17,9.225,17.224,9,17.5,9H24V8h-6.5C17.224,8,17,7.776,17,7.5C17,7.225,17.224,7,17.5,7H24V6h-6.5C17.224,6,17,5.776,17,5.5
		C17,5.225,17.224,5,17.5,5z M7,12.993H6V11h1V12.993z M7,6C5.896,6,5,5.104,5,4c0-1.102,0.896-2,2-2c1.103,0,2,0.898,2,2
		C9,5.104,8.103,6,7,6z"/>
	<path d="M19,24h4.5c0.276,0,0.5-0.224,0.5-0.5V13h-5V24z"/>
</g>
</svg>
