<?xml version="1.0" encoding="utf-8"?>
<!-- Generator: Adobe Illustrator 16.2.1, SVG Export Plug-In . SVG Version: 6.00 Build 0)  -->
<!DOCTYPE svg PUBLIC "-//W3C//DTD SVG 1.1//EN" "http://www.w3.org/Graphics/SVG/1.1/DTD/svg11.dtd">
<svg version="1.1" id="Filled_Version" xmlns="http://www.w3.org/2000/svg" xmlns:xlink="http://www.w3.org/1999/xlink" x="0px"
	 y="0px" width="24px" height="24px" viewBox="0 0 24 24" enable-background="new 0 0 24 24" xml:space="preserve">
<path d="M22.5,3h-21C0.673,3,0,3.673,0,4.5v11.999c0,0.797,0.614,1.528,1.399,1.665L9.5,19.572v2.07
	c-1.997,0.225-3.799,0.71-5.142,1.415c-0.245,0.127-0.339,0.43-0.211,0.674s0.43,0.339,0.676,0.211
	c1.313-0.689,3.118-1.157,5.129-1.348c0.017,0.002,0.03,0.01,0.048,0.01c0.035,0,0.065-0.014,0.099-0.02
	c0.618-0.054,1.253-0.086,1.901-0.086c2.813,0,5.429,0.527,7.177,1.444c0.074,0.038,0.153,0.056,0.231,0.056
	c0.181,0,0.354-0.096,0.443-0.267c0.129-0.244,0.034-0.547-0.21-0.674c-1.343-0.705-3.146-1.19-5.142-1.415v-2.07l8.1-1.409
	c0.785-0.137,1.4-0.868,1.4-1.665V4.5C24,3.673,23.327,3,22.5,3z M12,17.999c-0.276,0-0.5-0.223-0.5-0.5c0-0.276,0.224-0.5,0.5-0.5
	s0.5,0.224,0.5,0.5C12.5,17.775,12.276,17.999,12,17.999z M22,16H2V5h20V16z"/>
</svg>
