<?xml version="1.0" encoding="utf-8"?>
<!-- Generator: Adobe Illustrator 16.2.1, SVG Export Plug-In . SVG Version: 6.00 Build 0)  -->
<!DOCTYPE svg PUBLIC "-//W3C//DTD SVG 1.1//EN" "http://www.w3.org/Graphics/SVG/1.1/DTD/svg11.dtd">
<svg version="1.1" id="Filled_Version" xmlns="http://www.w3.org/2000/svg" xmlns:xlink="http://www.w3.org/1999/xlink" x="0px"
	 y="0px" width="24px" height="24px" viewBox="0 0 24 24" enable-background="new 0 0 24 24" xml:space="preserve">
<g>
	<path d="M1,18H0v1.911C0,21.063,0.896,22,2,22h9.5v1H5c-0.276,0-0.5,0.223-0.5,0.5S4.724,24,5,24h14c0.276,0,0.5-0.223,0.5-0.5
		S19.276,23,19,23h-6.5v-1H22c1.103,0,2-0.937,2-2.089V18h-1H1z M12,18.5c0.551,0,1,0.448,1,1s-0.449,1-1,1c-0.552,0-1-0.448-1-1
		S11.448,18.5,12,18.5z"/>
	<path d="M22,3H2C0.896,3,0,3.936,0,5.088V17h1h22h1V5.088C24,3.936,23.103,3,22,3z"/>
</g>
</svg>
