<?xml version="1.0" encoding="utf-8"?>
<!-- Generator: Adobe Illustrator 16.2.1, SVG Export Plug-In . SVG Version: 6.00 Build 0)  -->
<!DOCTYPE svg PUBLIC "-//W3C//DTD SVG 1.1//EN" "http://www.w3.org/Graphics/SVG/1.1/DTD/svg11.dtd">
<svg version="1.1" id="Filled_Version" xmlns="http://www.w3.org/2000/svg" xmlns:xlink="http://www.w3.org/1999/xlink" x="0px"
	 y="0px" width="24px" height="24px" viewBox="0 0 24 24" enable-background="new 0 0 24 24" xml:space="preserve">
<path d="M22,2H2C0.896,2,0,2.898,0,4v15c0,1.103,0.896,2,2,2h6.807L8.14,23H5c-0.276,0-0.5,0.224-0.5,0.5S4.724,24,5,24h3.5h7h0.01
	H19c0.276,0,0.5-0.224,0.5-0.5S19.276,23,19,23h-3.141l-0.666-2H22c1.103,0,2-0.897,2-2V4C24,2.898,23.103,2,22,2z M12,19.5
	c-0.552,0-1-0.448-1-1c0-0.552,0.448-1,1-1c0.551,0,1,0.448,1,1C13,19.052,12.551,19.5,12,19.5z M22,17H2V4h20V17z"/>
</svg>
