<?xml version="1.0" encoding="utf-8"?>
<!-- Generator: Adobe Illustrator 16.2.1, SVG Export Plug-In . SVG Version: 6.00 Build 0)  -->
<!DOCTYPE svg PUBLIC "-//W3C//DTD SVG 1.1//EN" "http://www.w3.org/Graphics/SVG/1.1/DTD/svg11.dtd">
<svg version="1.1" id="Filled_Version" xmlns="http://www.w3.org/2000/svg" xmlns:xlink="http://www.w3.org/1999/xlink" x="0px"
	 y="0px" width="24px" height="24px" viewBox="0 0 24 24" enable-background="new 0 0 24 24" xml:space="preserve">
<g>
	<path d="M10,17.5c0-4.135,3.364-7.5,7.5-7.5c1.471,0,2.84,0.432,4,1.167V4.5C21.5,4.224,21.275,4,21,4H4C3.173,4,2.5,3.327,2.5,2.5
		S3.173,1,4,1h17c0.275,0,0.5-0.224,0.5-0.5C21.5,0.224,21.275,0,21,0H4C2.621,0,1.5,1.122,1.5,2.5c0,7.017,0,11.869,0,19
		C1.5,22.878,2.621,24,4,24h9.773C11.522,22.706,10,20.279,10,17.5z"/>
	<path d="M17.5,11c-3.584,0-6.5,2.916-6.5,6.5s2.916,6.5,6.5,6.5s6.5-2.916,6.5-6.5S21.084,11,17.5,11z M19.854,18.354l-2,1.999
		c-0.046,0.047-0.102,0.083-0.163,0.109C17.63,20.487,17.564,20.5,17.5,20.5c-0.065,0-0.13-0.013-0.191-0.038
		c-0.062-0.026-0.117-0.062-0.163-0.109l-1.999-1.999c-0.195-0.195-0.195-0.512,0-0.707s0.512-0.195,0.707,0L17,18.793V15
		c0-0.276,0.224-0.5,0.5-0.5c0.275,0,0.5,0.224,0.5,0.5v3.793l1.146-1.146c0.195-0.195,0.512-0.195,0.707,0
		S20.049,18.159,19.854,18.354z"/>
	<path d="M4,2C3.724,2,3.5,2.224,3.5,2.5C3.5,2.776,3.724,3,4,3h16c0.275,0,0.5-0.224,0.5-0.5C20.5,2.224,20.275,2,20,2H4z"/>
</g>
</svg>
