<?xml version="1.0" encoding="utf-8"?>
<!-- Generator: Adobe Illustrator 16.2.1, SVG Export Plug-In . SVG Version: 6.00 Build 0)  -->
<!DOCTYPE svg PUBLIC "-//W3C//DTD SVG 1.1//EN" "http://www.w3.org/Graphics/SVG/1.1/DTD/svg11.dtd">
<svg version="1.1" id="Filled_Version" xmlns="http://www.w3.org/2000/svg" xmlns:xlink="http://www.w3.org/1999/xlink" x="0px"
	 y="0px" width="24px" height="24px" viewBox="0 0 24 24" enable-background="new 0 0 24 24" xml:space="preserve">
<g>
	<path d="M21.5,4H19V2.5C19,2.225,18.775,2,18.5,2h-15C3.224,2,3,2.225,3,2.5v2h1.5c0.551,0,1,0.449,1,1c0,0.553-0.449,1-1,1H3v1
		h1.5c0.551,0,1,0.449,1,1c0,0.553-0.449,1-1,1H3v1h1.5c0.551,0,1,0.449,1,1c0,0.553-0.449,1-1,1H3v1h1.5c0.551,0,1,0.449,1,1
		c0,0.553-0.449,1-1,1H3v1h1.5c0.551,0,1,0.449,1,1c0,0.553-0.449,1-1,1H3v1h1.5c0.551,0,1,0.449,1,1c0,0.553-0.449,1-1,1H3v2
		C3,23.776,3.224,24,3.5,24h15c0.275,0,0.5-0.224,0.5-0.5V21h2.5c0.275,0,0.5-0.224,0.5-0.5v-4v-4v-4v-4C22,4.225,21.775,4,21.5,4z
		 M15,10.5c0,0.276-0.225,0.5-0.5,0.5h-6C8.224,11,8,10.776,8,10.5v-4C8,6.225,8.224,6,8.5,6h6C14.775,6,15,6.225,15,6.5V10.5z
		 M21,20h-2v-3h2V20z M21,16h-2v-3h2V16z M21,12h-2V9h2V12z M21,8h-2V5h2V8z"/>
	<path d="M2.5,6h2C4.775,6,5,5.775,5,5.5S4.775,5,4.5,5h-2C2.224,5,2,5.225,2,5.5S2.224,6,2.5,6z"/>
	<path d="M2.5,9h2C4.775,9,5,8.775,5,8.5S4.775,8,4.5,8h-2C2.224,8,2,8.225,2,8.5S2.224,9,2.5,9z"/>
	<path d="M2.5,12h2C4.775,12,5,11.775,5,11.5S4.775,11,4.5,11h-2C2.224,11,2,11.225,2,11.5S2.224,12,2.5,12z"/>
	<path d="M2.5,15h2C4.775,15,5,14.775,5,14.5S4.775,14,4.5,14h-2C2.224,14,2,14.225,2,14.5S2.224,15,2.5,15z"/>
	<path d="M2.5,18h2C4.775,18,5,17.775,5,17.5S4.775,17,4.5,17h-2C2.224,17,2,17.225,2,17.5S2.224,18,2.5,18z"/>
	<path d="M5,20.5C5,20.225,4.775,20,4.5,20h-2C2.224,20,2,20.225,2,20.5S2.224,21,2.5,21h2C4.775,21,5,20.775,5,20.5z"/>
</g>
</svg>
