<?xml version="1.0" encoding="utf-8"?>
<!-- Generator: Adobe Illustrator 16.2.1, SVG Export Plug-In . SVG Version: 6.00 Build 0)  -->
<!DOCTYPE svg PUBLIC "-//W3C//DTD SVG 1.1//EN" "http://www.w3.org/Graphics/SVG/1.1/DTD/svg11.dtd">
<svg version="1.1" id="Filled_Version" xmlns="http://www.w3.org/2000/svg" xmlns:xlink="http://www.w3.org/1999/xlink" x="0px"
	 y="0px" width="24px" height="24px" viewBox="0 0 24 24" enable-background="new 0 0 24 24" xml:space="preserve">
<path d="M23.854,0.854c0.195-0.195,0.195-0.512,0-0.707c-0.195-0.196-0.512-0.196-0.707,0L16.293,7H7H6V5.5C6,5.224,5.775,5,5.5,5
	h-3C2.225,5,2,5.224,2,5.5V7H0.5C0.225,7,0,7.224,0,7.5v3C0,10.777,0.225,11,0.5,11H2v10.5C2,21.777,2.225,22,2.5,22H13v1.5
	c0,0.277,0.225,0.5,0.5,0.5h3c0.275,0,0.5-0.223,0.5-0.5V22h1.5c0.275,0,0.5-0.223,0.5-0.5v-3c0-0.276-0.225-0.5-0.5-0.5H17V7.707
	L23.854,0.854z M13,11.707V18H6.707L13,11.707z M6,17.293V11h6.293L6,17.293z"/>
</svg>
