<?xml version="1.0" encoding="utf-8"?>
<!-- Generator: Adobe Illustrator 16.2.1, SVG Export Plug-In . SVG Version: 6.00 Build 0)  -->
<!DOCTYPE svg PUBLIC "-//W3C//DTD SVG 1.1//EN" "http://www.w3.org/Graphics/SVG/1.1/DTD/svg11.dtd">
<svg version="1.1" id="Filled_Version" xmlns="http://www.w3.org/2000/svg" xmlns:xlink="http://www.w3.org/1999/xlink" x="0px"
	 y="0px" width="24px" height="24px" viewBox="0 0 24 24" enable-background="new 0 0 24 24" xml:space="preserve">
<g>
	<path d="M3.035,19h17.93C23.061,17.601,24,15.559,24,13.5C24,9.916,21.084,7,17.5,7c-0.951,0-1.896,0.217-2.754,0.617
		C16.959,8.655,18.5,10.898,18.5,13.5c0,0.755-0.129,1.495-0.383,2.199c-0.074,0.204-0.266,0.33-0.471,0.33
		c-0.057,0-0.113-0.009-0.17-0.029c-0.26-0.093-0.395-0.38-0.301-0.64c0.215-0.595,0.324-1.221,0.324-1.86
		c0-3.033-2.468-5.5-5.5-5.5c-3.033,0-5.5,2.467-5.5,5.5c0,0.626,0.104,1.24,0.31,1.824c0.092,0.261-0.045,0.546-0.306,0.638
		c-0.262,0.092-0.547-0.045-0.638-0.305C5.623,14.965,5.5,14.239,5.5,13.5c0-2.602,1.539-4.845,3.753-5.883
		C8.389,7.211,7.465,7,6.5,7C2.915,7,0,9.916,0,13.5C0,15.608,0.987,17.644,3.035,19z"/>
	<path d="M21,20H3c-1.307,0-1.989,1.006-1.989,1.999C1.011,22.994,1.693,24,3,24h18c1.305,0,1.988-1.006,1.988-2
		C22.988,21.006,22.305,20,21,20z"/>
	<path d="M11.5,5.956v1.069C11.665,7.013,11.831,7,12,7c0.168,0,0.334,0.013,0.5,0.025V5.956c1.253-0.212,2.242-1.203,2.455-2.456
		h-5.91C9.256,4.753,10.246,5.743,11.5,5.956z"/>
	<path d="M12,0c-1.484,0-2.717,1.083-2.955,2.5h5.91C14.715,1.083,13.483,0,12,0z"/>
</g>
</svg>
