<?xml version="1.0" encoding="utf-8"?>
<!-- Generator: Adobe Illustrator 16.2.1, SVG Export Plug-In . SVG Version: 6.00 Build 0)  -->
<!DOCTYPE svg PUBLIC "-//W3C//DTD SVG 1.1//EN" "http://www.w3.org/Graphics/SVG/1.1/DTD/svg11.dtd">
<svg version="1.1" id="Filled_Version" xmlns="http://www.w3.org/2000/svg" xmlns:xlink="http://www.w3.org/1999/xlink" x="0px"
	 y="0px" width="24px" height="24px" viewBox="0 0 24 24" enable-background="new 0 0 24 24" xml:space="preserve">
<g>
	<path d="M0.5,4c0,1.104,0.896,2,2,2H4c1.378,0,2.5-1.121,2.5-2.5v-3C6.5,0.224,6.276,0,6,0H3.5C2.184,0,1.066,0.853,0.662,2.033
		C0.611,2.015,0.558,2,0.5,2C0.224,2,0,2.224,0,2.5v1C0,3.776,0.224,4,0.5,4z"/>
	<path d="M9.5,6H11c1.103,0,2-0.896,2-2c0.276,0,0.5-0.224,0.5-0.5v-1C13.5,2.224,13.276,2,13,2c-0.059,0-0.111,0.015-0.163,0.033
		C12.433,0.853,11.315,0,10,0H7.5C7.224,0,7,0.224,7,0.5v3C7,4.879,8.121,6,9.5,6z"/>
	<rect x="16" y="13" width="7" height="8"/>
	<path d="M18,24h3c1.103,0,2-0.896,2-2h-7C16,23.104,16.896,24,18,24z"/>
	<path d="M17.5,6c0.548,0,1.159,0.412,1.396,1H18.5C18.224,7,18,7.224,18,7.5v1.843c-1.036,0.494-1.791,1.481-1.961,2.657h6.921
		c-0.17-1.176-0.924-2.163-1.96-2.657V7.5C21,7.224,20.776,7,20.5,7h-0.557c-0.246-1.11-1.282-2-2.443-2h-1C14.145,5,13,6.309,13,9
		v7.75C13,20.898,11.065,23,7.25,23C3.804,23,1,20.196,1,16.75V13c0-1.787,1.348-3.263,3.079-3.472C4.312,10.374,5.08,11,6,11
		c1.103,0,2-0.896,2-2c0-1.102-0.897-2-2-2C5.062,7,4.279,7.65,4.063,8.522C1.786,8.743,0,10.666,0,13v3.75
		C0,20.748,3.252,24,7.25,24c4.353,0,6.75-2.574,6.75-7.25V9c0-2.637,1.201-3,2.5-3H17.5z"/>
</g>
</svg>
