<?xml version="1.0" encoding="utf-8"?>
<!-- Generator: Adobe Illustrator 16.2.1, SVG Export Plug-In . SVG Version: 6.00 Build 0)  -->
<!DOCTYPE svg PUBLIC "-//W3C//DTD SVG 1.1//EN" "http://www.w3.org/Graphics/SVG/1.1/DTD/svg11.dtd">
<svg version="1.1" id="Filled_Version" xmlns="http://www.w3.org/2000/svg" xmlns:xlink="http://www.w3.org/1999/xlink" x="0px"
	 y="0px" width="24px" height="24px" viewBox="0 0 24 24" enable-background="new 0 0 24 24" xml:space="preserve">
<g>
	<path d="M8.185,4h8.63c0,0,1.153-0.181,1.261-0.314L21.38,0H3.62l3.287,3.666C7.045,3.834,8.185,4,8.185,4z"/>
	<path d="M5.624,20.171C5.719,20.062,5.856,20,6,20h6V5H8.091C7.693,5,6.515,4.771,6.146,4.314L3,0.807v22.362L5.624,20.171z"/>
	<path d="M18.837,4.334C18.488,4.767,17.294,5,16.909,5H13v15h6c0.144,0,0.281,0.062,0.376,0.171L22,23.169V0.807L18.837,4.334z"/>
	<polygon points="18.773,21 6.227,21 3.602,24 21.398,24 	"/>
</g>
</svg>
