<?xml version="1.0" encoding="utf-8"?>
<!-- Generator: Adobe Illustrator 16.2.1, SVG Export Plug-In . SVG Version: 6.00 Build 0)  -->
<!DOCTYPE svg PUBLIC "-//W3C//DTD SVG 1.1//EN" "http://www.w3.org/Graphics/SVG/1.1/DTD/svg11.dtd">
<svg version="1.1" id="Filled_Version" xmlns="http://www.w3.org/2000/svg" xmlns:xlink="http://www.w3.org/1999/xlink" x="0px"
	 y="0px" width="24px" height="24px" viewBox="0 0 24 24" enable-background="new 0 0 24 24" xml:space="preserve">
<g>
	<path d="M7,8H5.5C5.224,8,5,8.223,5,8.5C5,8.776,5.224,9,5.5,9H7v2h2.5c0.276,0,0.5,0.223,0.5,0.5c0,0.276-0.224,0.5-0.5,0.5H7v1
		h2.5c0.276,0,0.5,0.223,0.5,0.5c0,0.276-0.224,0.5-0.5,0.5H7v1h2.5c0.276,0,0.5,0.223,0.5,0.5c0,0.276-0.224,0.5-0.5,0.5H7v1.5
		c0,1.846,0.986,3.426,2,4.113V23.5C9,23.776,9.224,24,9.5,24h3c0.276,0,0.5-0.224,0.5-0.5v-1.887c1.014-0.688,2-2.268,2-4.113V9
		h1.5C16.776,9,17,8.776,17,8.5C17,8.223,16.776,8,16.5,8H15H7z"/>
	<path d="M15,4.5C15,2.018,13.205,0,11,0S7,2.018,7,4.5V7h8V4.5z"/>
</g>
</svg>
