<?xml version="1.0" encoding="utf-8"?>
<!-- Generator: Adobe Illustrator 16.2.1, SVG Export Plug-In . SVG Version: 6.00 Build 0)  -->
<!DOCTYPE svg PUBLIC "-//W3C//DTD SVG 1.1//EN" "http://www.w3.org/Graphics/SVG/1.1/DTD/svg11.dtd">
<svg version="1.1" id="Filled_Version" xmlns="http://www.w3.org/2000/svg" xmlns:xlink="http://www.w3.org/1999/xlink" x="0px"
	 y="0px" width="24px" height="24px" viewBox="0 0 24 24" enable-background="new 0 0 24 24" xml:space="preserve">
<g>
	<path d="M5.5,5C4.673,5,4,5.672,4,6.5V18H1.5C1.224,18,1,18.224,1,18.5C1,18.775,1.224,19,1.5,19H4v4H0.5C0.224,23,0,23.224,0,23.5
		C0,23.775,0.224,24,0.5,24h6C6.776,24,7,23.775,7,23.5v-17C7,5.672,6.327,5,5.5,5z"/>
	<path d="M23.8,16.1L22,14.75V9.5C22,8.121,20.878,7,19.5,7h-2C12.262,7,8,11.262,8,16.5V22c0,0.275,0.224,0.5,0.5,0.5h2.119
		c-0.161-0.308-0.271-0.645-0.327-1H9v-3.293l4-4l0.146,0.146c0.098,0.098,0.226,0.146,0.354,0.146s0.256-0.049,0.354-0.146
		c0.195-0.195,0.195-0.512,0-0.707l-1-1c-0.195-0.195-0.512-0.195-0.707,0s-0.195,0.512,0,0.707l0.146,0.146L9,16.793V16.5
		C9,11.812,12.812,8,17.5,8h2C20.327,8,21,8.672,21,9.5v5h-2.36l0.845-3.379c0.067-0.268-0.096-0.539-0.363-0.606
		c-0.269-0.066-0.54,0.096-0.606,0.364L17.609,14.5H16c-0.133,0-0.26,0.053-0.354,0.146l-2.5,2.5
		c-0.08,0.08-0.131,0.186-0.144,0.298l-0.04,0.354c0.176-0.03,0.354-0.049,0.537-0.049c1.792,0,3.25,1.457,3.25,3.25
		c0,0.541-0.135,1.051-0.37,1.5h1.975c-0.062-0.214-0.104-0.434-0.104-0.668c0-1.332,1.084-2.416,2.416-2.416
		c1.333,0,2.417,1.084,2.417,2.416c0,0.234-0.044,0.454-0.105,0.668H23.5c0.276,0,0.5-0.225,0.5-0.5v-5.5
		C24,16.343,23.926,16.194,23.8,16.1z"/>
	<path d="M20.666,19.916c-1.057,0-1.916,0.86-1.916,1.916c0,1.058,0.859,1.918,1.916,1.918c1.058,0,1.917-0.86,1.917-1.918
		C22.583,20.776,21.724,19.916,20.666,19.916z"/>
	<path d="M13.5,18.25c-1.517,0-2.75,1.233-2.75,2.75c0,1.516,1.233,2.75,2.75,2.75c1.516,0,2.75-1.234,2.75-2.75
		C16.25,19.483,15.016,18.25,13.5,18.25z"/>
</g>
</svg>
