<?xml version="1.0" encoding="utf-8"?>
<!-- Generator: Adobe Illustrator 16.2.1, SVG Export Plug-In . SVG Version: 6.00 Build 0)  -->
<!DOCTYPE svg PUBLIC "-//W3C//DTD SVG 1.1//EN" "http://www.w3.org/Graphics/SVG/1.1/DTD/svg11.dtd">
<svg version="1.1" id="Filled_Version" xmlns="http://www.w3.org/2000/svg" xmlns:xlink="http://www.w3.org/1999/xlink" x="0px"
	 y="0px" width="24px" height="24px" viewBox="0 0 24 24" enable-background="new 0 0 24 24" xml:space="preserve">
<g>
	<path d="M18.5,14.9c-0.012-6.299-1.083-12.956-2.741-14.544C15.575,0.141,15.305,0,15,0c-0.553,0-1,0.448-1,1v22.001
		c0,0.552,0.447,1,1,1c0.552,0,1-0.448,1-1v-7.5h2c0.003,0,0.007,0,0.01,0c0.276,0,0.5-0.225,0.5-0.5
		C18.51,14.967,18.506,14.934,18.5,14.9z"/>
	<path d="M11,0c-0.553,0-1,0.448-1,1v4.5c0,0.737-0.405,1.375-1,1.723V1c0-0.552-0.448-1-1-1C7.447,0,7,0.448,7,1v6.223
		C6.404,6.875,6,6.237,6,5.5V1c0-0.552-0.448-1-1-1C4.447,0,4,0.448,4,1v4.5c0,1.86,1.277,3.423,3,3.869v13.632c0,0.552,0.447,1,1,1
		c0.552,0,1-0.448,1-1V9.369c1.722-0.446,3-2.009,3-3.869V1C12,0.448,11.552,0,11,0z"/>
</g>
</svg>
