<?xml version="1.0" encoding="utf-8"?>
<!-- Generator: Adobe Illustrator 16.2.1, SVG Export Plug-In . SVG Version: 6.00 Build 0)  -->
<!DOCTYPE svg PUBLIC "-//W3C//DTD SVG 1.1//EN" "http://www.w3.org/Graphics/SVG/1.1/DTD/svg11.dtd">
<svg version="1.1" id="Filled_Version" xmlns="http://www.w3.org/2000/svg" xmlns:xlink="http://www.w3.org/1999/xlink" x="0px"
	 y="0px" width="24px" height="24px" viewBox="0 0 24 24" enable-background="new 0 0 24 24" xml:space="preserve">
<g>
	<circle cx="11.5" cy="10.5" r="1.5"/>
	<path d="M9.549,23.717C9.632,23.889,9.808,24,10,24h1V12.949c-1.14-0.232-2-1.242-2-2.449C9,9.121,10.122,8,11.5,8
		S14,9.121,14,10.5c0,1.207-0.86,2.217-2,2.449V24h1c0.192,0,0.368-0.111,0.451-0.283l6-12.5c0.074-0.154,0.064-0.334-0.025-0.479
		L15.895,5H7.105l-3.531,5.738c-0.089,0.145-0.099,0.324-0.025,0.479L9.549,23.717z"/>
	<path d="M15.809,4l1.638-3.276c0.077-0.155,0.069-0.339-0.022-0.485C17.334,0.09,17.173,0,17,0H5.5C5.318,0,5.151,0.1,5.063,0.258
		C4.975,0.416,4.98,0.611,5.076,0.766L7.098,4H15.809z"/>
</g>
</svg>
