<?xml version="1.0" encoding="utf-8"?>
<!-- Generator: Adobe Illustrator 16.2.1, SVG Export Plug-In . SVG Version: 6.00 Build 0)  -->
<!DOCTYPE svg PUBLIC "-//W3C//DTD SVG 1.1//EN" "http://www.w3.org/Graphics/SVG/1.1/DTD/svg11.dtd">
<svg version="1.1" id="Filled_Version" xmlns="http://www.w3.org/2000/svg" xmlns:xlink="http://www.w3.org/1999/xlink" x="0px"
	 y="0px" width="24px" height="24px" viewBox="0 0 24 24" enable-background="new 0 0 24 24" xml:space="preserve">
<g>
	<circle cx="11.5" cy="13" r="1"/>
	<path d="M13.5,6.351V5H14c0.229,0,0.429-0.156,0.485-0.379l1-4c0.038-0.149,0.004-0.307-0.091-0.429S15.154,0,15,0H8
		C7.846,0,7.701,0.07,7.606,0.192S7.478,0.472,7.515,0.621l1,4C8.57,4.844,8.771,5,9,5h0.5v1.351c-2.327,0.826-4,3.043-4,5.649
		c0,3.138,4.862,11.403,5.07,11.754C10.66,23.906,10.823,24,11,24v-9.071c-0.86-0.224-1.5-1-1.5-1.929c0-1.104,0.897-2,2-2
		c1.103,0,2,0.896,2,2c0,0.929-0.64,1.705-1.5,1.929V24c0.165,0,0.318-0.082,0.412-0.216C13.638,22.008,17.5,14.801,17.5,12
		C17.5,9.394,15.827,7.177,13.5,6.351z M12.5,6.09C12.174,6.035,11.841,6,11.5,6s-0.674,0.035-1,0.09V5h2V6.09z"/>
</g>
</svg>
