<?xml version="1.0" encoding="utf-8"?>
<!-- Generator: Adobe Illustrator 16.2.1, SVG Export Plug-In . SVG Version: 6.00 Build 0)  -->
<!DOCTYPE svg PUBLIC "-//W3C//DTD SVG 1.1//EN" "http://www.w3.org/Graphics/SVG/1.1/DTD/svg11.dtd">
<svg version="1.1" id="Filled_Version" xmlns="http://www.w3.org/2000/svg" xmlns:xlink="http://www.w3.org/1999/xlink" x="0px"
	 y="0px" width="24px" height="24px" viewBox="0 0 24 24" enable-background="new 0 0 24 24" xml:space="preserve">
<path d="M12,0C5.384,0,0,5.384,0,12c0,6.617,5.384,12,12,12c6.617,0,12-5.383,12-12C24,5.384,18.617,0,12,0z M18.737,8.668
	l1.848-0.765c0.255-0.104,0.548,0.016,0.653,0.271c0.105,0.255-0.016,0.547-0.271,0.652L19.12,9.592
	c-0.062,0.026-0.127,0.039-0.191,0.039c-0.196,0-0.382-0.117-0.462-0.31C18.361,9.066,18.482,8.774,18.737,8.668z M14.408,4.88
	l0.766-1.848c0.106-0.255,0.4-0.375,0.653-0.271c0.256,0.105,0.377,0.398,0.271,0.653l-0.766,1.848
	c-0.079,0.193-0.266,0.309-0.462,0.309c-0.063,0-0.129-0.013-0.191-0.038C14.424,5.428,14.303,5.135,14.408,4.88z M11.5,2.686
	c0-0.276,0.224-0.5,0.5-0.5c0.275,0,0.5,0.224,0.5,0.5v2c0,0.275-0.225,0.5-0.5,0.5c-0.276,0-0.5-0.225-0.5-0.5V2.686z M8.174,2.762
	c0.255-0.105,0.548,0.016,0.653,0.271L9.592,4.88c0.105,0.254-0.016,0.547-0.271,0.653C9.259,5.559,9.194,5.571,9.13,5.571
	c-0.196,0-0.382-0.116-0.462-0.31L7.903,3.414C7.798,3.159,7.919,2.867,8.174,2.762z M1.944,12.186c0-0.276,0.224-0.5,0.5-0.5h2
	c0.275,0,0.5,0.224,0.5,0.5c0,0.275-0.225,0.5-0.5,0.5h-2C2.168,12.686,1.944,12.461,1.944,12.186z M5.263,15.332l-1.849,0.766
	c-0.062,0.025-0.128,0.038-0.191,0.038c-0.196,0-0.383-0.116-0.462-0.309c-0.105-0.256,0.016-0.548,0.271-0.653l1.849-0.766
	c0.254-0.105,0.548,0.016,0.653,0.271C5.638,14.935,5.518,15.227,5.263,15.332z M5.533,9.323c-0.08,0.191-0.267,0.308-0.462,0.308
	c-0.064,0-0.129-0.012-0.191-0.039L3.032,8.827C2.777,8.72,2.656,8.428,2.762,8.172c0.106-0.255,0.4-0.375,0.653-0.27l1.848,0.766
	C5.518,8.774,5.639,9.066,5.533,9.323z M6.343,7.051L4.93,5.636c-0.195-0.195-0.195-0.512,0-0.707
	C5.125,4.734,5.441,4.734,5.637,4.93L7.05,6.344c0.195,0.196,0.195,0.512,0,0.707C6.952,7.148,6.824,7.197,6.696,7.197
	S6.44,7.148,6.343,7.051z M17,19.519c0,0.276-0.225,0.5-0.5,0.5h-9c-0.276,0-0.5-0.224-0.5-0.5v-3c0-0.276,0.224-0.5,0.5-0.5h9
	c0.275,0,0.5,0.224,0.5,0.5V19.519z M13.717,10.991C13.893,11.288,14,11.631,14,12c0,1.103-0.896,2-2,2c-1.103,0-2-0.897-2-2
	c0-1.102,0.897-2,2-2c0.37,0,0.712,0.108,1.01,0.283l4.646-4.646c0.195-0.195,0.512-0.195,0.707,0s0.195,0.512,0,0.707
	L13.717,10.991z M21.237,15.827c-0.079,0.192-0.266,0.31-0.461,0.31c-0.064,0-0.129-0.013-0.191-0.039l-1.848-0.766
	c-0.255-0.105-0.376-0.398-0.271-0.653c0.105-0.254,0.4-0.376,0.653-0.271l1.848,0.766C21.223,15.279,21.344,15.573,21.237,15.827z
	 M21.499,12.501L21.499,12.501L19.5,12.5c-0.276,0-0.5-0.224-0.5-0.5s0.225-0.5,0.5-0.5h0.001l1.998,0.001
	c0.276,0.001,0.5,0.225,0.5,0.501C21.999,12.277,21.775,12.501,21.499,12.501z"/>
</svg>
