<?xml version="1.0" encoding="utf-8"?>
<!-- Generator: Adobe Illustrator 16.2.1, SVG Export Plug-In . SVG Version: 6.00 Build 0)  -->
<!DOCTYPE svg PUBLIC "-//W3C//DTD SVG 1.1//EN" "http://www.w3.org/Graphics/SVG/1.1/DTD/svg11.dtd">
<svg version="1.1" id="Filled_Version" xmlns="http://www.w3.org/2000/svg" xmlns:xlink="http://www.w3.org/1999/xlink" x="0px"
	 y="0px" width="24px" height="24px" viewBox="0 0 24 24" enable-background="new 0 0 24 24" xml:space="preserve">
<g>
	<path d="M11.012,17.5c4.688,0,8.5-3.813,8.5-8.5c0-4.688-3.812-8.5-8.5-8.5s-8.5,3.812-8.5,8.5
		C2.512,13.687,6.324,17.5,11.012,17.5z"/>
	<path d="M19.144,17.132c4.364-4.365,4.468-11.386,0.335-15.893l0.373-0.372c0.195-0.195,0.195-0.512,0-0.707
		c-0.195-0.195-0.512-0.195-0.708,0L17.73,1.575c-0.195,0.195-0.195,0.512,0,0.708c0.098,0.098,0.225,0.146,0.354,0.146
		c0.127,0,0.256-0.048,0.353-0.146l0.335-0.336c3.744,4.116,3.639,10.504-0.335,14.478c-3.974,3.975-10.362,4.078-14.478,0.336
		l0.336-0.336c0.195-0.196,0.195-0.512,0-0.707c-0.195-0.195-0.512-0.195-0.707,0l-1.414,1.416c-0.196,0.195-0.196,0.511,0,0.707
		c0.098,0.098,0.225,0.147,0.354,0.147c0.127,0,0.256-0.049,0.354-0.147l0.371-0.372c1.93,1.77,4.312,2.768,6.76,2.98v0.605
		c-1.91,0.182-3.719,0.876-5.281,2.047c-0.172,0.129-0.242,0.354-0.176,0.559C4.623,23.862,4.814,24,5.029,24h11.965
		c0.215,0,0.406-0.138,0.475-0.341c0.066-0.206-0.004-0.43-0.176-0.559c-1.562-1.171-3.373-1.865-5.281-2.047v-0.605
		C14.615,20.221,17.156,19.119,19.144,17.132z"/>
</g>
</svg>
