<?xml version="1.0" encoding="utf-8"?>
<!-- Generator: Adobe Illustrator 16.2.1, SVG Export Plug-In . SVG Version: 6.00 Build 0)  -->
<!DOCTYPE svg PUBLIC "-//W3C//DTD SVG 1.1//EN" "http://www.w3.org/Graphics/SVG/1.1/DTD/svg11.dtd">
<svg version="1.1" id="Filled_Version" xmlns="http://www.w3.org/2000/svg" xmlns:xlink="http://www.w3.org/1999/xlink" x="0px"
	 y="0px" width="24px" height="24px" viewBox="0 0 24 24" enable-background="new 0 0 24 24" xml:space="preserve">
<path d="M23,13c0.552,0,1-0.447,1-1c0-0.552-0.448-1-1-1h-5V8h5c0.552,0,1-0.447,1-1c0-0.552-0.448-1-1-1h-5V1c0-0.552-0.448-1-1-1
	s-1,0.448-1,1v5h-3V1c0-0.552-0.448-1-1-1s-1,0.448-1,1v5H8V1c0-0.552-0.448-1-1-1S6,0.448,6,1v5H1C0.448,6,0,6.448,0,7
	c0,0.553,0.448,1,1,1h5v3H1c-0.552,0-1,0.448-1,1c0,0.553,0.448,1,1,1h5v3H1c-0.552,0-1,0.448-1,1c0,0.553,0.448,1,1,1h5v5
	c0,0.553,0.448,1,1,1s1-0.447,1-1v-5h3v5c0,0.553,0.448,1,1,1s1-0.447,1-1v-5h3v5c0,0.553,0.448,1,1,1s1-0.447,1-1v-5h5
	c0.552,0,1-0.447,1-1c0-0.552-0.448-1-1-1h-5v-3H23z M11,16H8v-3h3V16z M11,11H8V8h3V11z M16,16h-3v-3h3V16z M16,11h-3V8h3V11z"/>
</svg>
