<?xml version="1.0" encoding="utf-8"?>
<!-- Generator: Adobe Illustrator 16.2.1, SVG Export Plug-In . SVG Version: 6.00 Build 0)  -->
<!DOCTYPE svg PUBLIC "-//W3C//DTD SVG 1.1//EN" "http://www.w3.org/Graphics/SVG/1.1/DTD/svg11.dtd">
<svg version="1.1" id="Filled_Version" xmlns="http://www.w3.org/2000/svg" xmlns:xlink="http://www.w3.org/1999/xlink" x="0px"
	 y="0px" width="24px" height="24px" viewBox="0 0 24 24" enable-background="new 0 0 24 24" xml:space="preserve">
<g>
	<path d="M17,1.026V0.5C17,0.225,16.775,0,16.5,0C16.224,0,16,0.225,16,0.5V11H4.5C4.224,11,4,11.225,4,11.5
		c0,2.482,1.399,4.643,3.45,5.737l-0.944,6.188C6.46,23.724,6.689,24,7,24c0.243,0,0.456-0.177,0.494-0.425L8.039,20h4.591
		l0.009,0.203C11.968,20.526,11.5,21.207,11.5,22c0,1.104,0.896,2,2,2c1.103,0,2-0.896,2-2c0-1.058-0.828-1.917-1.868-1.986
		l-0.118-2.76c1.937-1.019,3.295-2.983,3.462-5.277C19.786,11.734,22,9.372,22,6.5C22,3.637,19.799,1.279,17,1.026z M9.5,13h2
		c0.275,0,0.5,0.225,0.5,0.5c0,0.276-0.225,0.5-0.5,0.5h-2C9.224,14,9,13.776,9,13.5C9,13.225,9.224,13,9.5,13z M8.192,19
		l0.206-1.354C9.059,17.872,9.764,18,10.5,18c0.709,0,1.391-0.118,2.031-0.329L12.588,19H8.192z"/>
	<path d="M5.5,10h9c0.275,0,0.5-0.224,0.5-0.5C15,9.225,14.775,9,14.5,9h-9C5.224,9,5,9.225,5,9.5C5,9.776,5.224,10,5.5,10z"/>
</g>
</svg>
