<?xml version="1.0" encoding="utf-8"?>
<!-- Generator: Adobe Illustrator 16.2.1, SVG Export Plug-In . SVG Version: 6.00 Build 0)  -->
<!DOCTYPE svg PUBLIC "-//W3C//DTD SVG 1.1//EN" "http://www.w3.org/Graphics/SVG/1.1/DTD/svg11.dtd">
<svg version="1.1" id="Filled_Version" xmlns="http://www.w3.org/2000/svg" xmlns:xlink="http://www.w3.org/1999/xlink" x="0px"
	 y="0px" width="24px" height="24px" viewBox="0 0 24 24" enable-background="new 0 0 24 24" xml:space="preserve">
<g>
	<path d="M19,9h-1.5V5.5C17.5,2.469,15.032,0,12,0C8.967,0,6.5,2.469,6.5,5.5V9H5c-2.758,0-5,2.243-5,5v4c3.027,0,6,2.973,6,6h12
		c0-3.027,2.972-6,6-6v-4C24,11.243,21.757,9,19,9z M7.5,5.5C7.5,3.019,9.519,1,12,1c2.48,0,4.5,2.019,4.5,4.5V9h-9V5.5z M5,17
		c0,0.276-0.225,0.5-0.5,0.5C4.224,17.5,4,17.276,4,17v-1c0-0.276,0.224-0.5,0.5-0.5C4.775,15.5,5,15.724,5,16V17z M21.5,15h-19
		C2.224,15,2,14.776,2,14.5S2.224,14,2.5,14h19c0.275,0,0.5,0.224,0.5,0.5S21.775,15,21.5,15z"/>
	<path d="M19,24h1.5c1.93,0,3.5-1.57,3.5-3.5V19C21.523,19,19,21.523,19,24z"/>
	<path d="M0,19v1.5C0,22.43,1.569,24,3.5,24H5C5,21.523,2.477,19,0,19z"/>
</g>
</svg>
