<?xml version="1.0" encoding="utf-8"?>
<!-- Generator: Adobe Illustrator 16.2.1, SVG Export Plug-In . SVG Version: 6.00 Build 0)  -->
<!DOCTYPE svg PUBLIC "-//W3C//DTD SVG 1.1//EN" "http://www.w3.org/Graphics/SVG/1.1/DTD/svg11.dtd">
<svg version="1.1" id="Filled_Version" xmlns="http://www.w3.org/2000/svg" xmlns:xlink="http://www.w3.org/1999/xlink" x="0px"
	 y="0px" width="24px" height="24px" viewBox="0 0 24 24" enable-background="new 0 0 24 24" xml:space="preserve">
<g>
	<path d="M0,14.5c0,0.814,0.396,1.531,1,1.987v-3.974C0.396,12.97,0,13.687,0,14.5z"/>
	<path d="M19.5,9h-0.025C19.215,5.098,15.967,2,12,2S4.785,5.098,4.525,9H4.5C3.122,9,2,10.122,2,11.5v6C2,18.879,3.122,20,4.5,20h2
		C6.776,20,7,19.776,7,19.5v-10C7,9.224,6.776,9,6.5,9H5.525C5.782,5.65,8.584,3,12,3s6.218,2.65,6.475,6H17.5
		C17.224,9,17,9.224,17,9.5v10c0,0.276,0.224,0.5,0.5,0.5h2c1.378,0,2.5-1.121,2.5-2.5v-6C22,10.122,20.878,9,19.5,9z"/>
	<path d="M23,12.514v3.974c0.604-0.456,1-1.173,1-1.987C24,13.687,23.604,12.97,23,12.514z"/>
</g>
</svg>
