<?xml version="1.0" encoding="utf-8"?>
<!-- Generator: Adobe Illustrator 16.2.1, SVG Export Plug-In . SVG Version: 6.00 Build 0)  -->
<!DOCTYPE svg PUBLIC "-//W3C//DTD SVG 1.1//EN" "http://www.w3.org/Graphics/SVG/1.1/DTD/svg11.dtd">
<svg version="1.1" id="Filled_Version" xmlns="http://www.w3.org/2000/svg" xmlns:xlink="http://www.w3.org/1999/xlink" x="0px"
	 y="0px" width="24px" height="24px" viewBox="0 0 24 24" enable-background="new 0 0 24 24" xml:space="preserve">
<path d="M17.407,0.106c-2.063,0-4.337,1.259-5.407,4.021C10.945,1.41,8.729,0.17,6.719,0.17C2.965,0.17,1,3.743,1,7.271
	c0,3.519,1.862,7.344,5.387,11.064c2.634,2.781,5.229,4.509,5.337,4.581C11.808,22.973,11.903,23,12,23
	c0.107,0,0.216-0.035,0.306-0.104C12.742,22.558,23,14.527,23,6.68C23,2.364,20.187,0.106,17.407,0.106z"/>
</svg>
