<?xml version="1.0" encoding="utf-8"?>
<!-- Generator: Adobe Illustrator 16.2.1, SVG Export Plug-In . SVG Version: 6.00 Build 0)  -->
<!DOCTYPE svg PUBLIC "-//W3C//DTD SVG 1.1//EN" "http://www.w3.org/Graphics/SVG/1.1/DTD/svg11.dtd">
<svg version="1.1" id="Filled_Version" xmlns="http://www.w3.org/2000/svg" xmlns:xlink="http://www.w3.org/1999/xlink" x="0px"
	 y="0px" width="24px" height="24px" viewBox="0 0 24 24" enable-background="new 0 0 24 24" xml:space="preserve">
<g>
	<path d="M20.147,7.354C20.243,7.449,20.371,7.5,20.5,7.5C20.776,7.5,21,7.276,21,7V2.5C21,2.224,20.777,2,20.5,2H16
		c-0.202,0-0.385,0.121-0.462,0.31c-0.078,0.186-0.035,0.4,0.108,0.544L20.147,7.354z"/>
	<polygon points="3,12.621 3,24 10,24 10,17 14,17 14,24 21,24 21,12.621 12,3.621 	"/>
	<path d="M23.864,12.662c-0.004-0.004-0.006-0.011-0.01-0.016l-11.5-11.5c-0.191-0.191-0.516-0.191-0.707,0l-11.5,11.5
		c-0.18,0.181-0.207,0.479-0.011,0.691c0.227,0.227,0.532,0.193,0.711,0.02c0.002-0.002,0.005-0.002,0.007-0.004L12,2.207
		l11.146,11.146c0.002,0.002,0.004,0.002,0.006,0.004c0.19,0.185,0.505,0.185,0.694,0c0.002-0.002,0.005-0.002,0.007-0.004
		C24.036,13.172,24.06,12.869,23.864,12.662z"/>
</g>
</svg>
