<?xml version="1.0" encoding="utf-8"?>
<!-- Generator: Adobe Illustrator 16.2.1, SVG Export Plug-In . SVG Version: 6.00 Build 0)  -->
<!DOCTYPE svg PUBLIC "-//W3C//DTD SVG 1.1//EN" "http://www.w3.org/Graphics/SVG/1.1/DTD/svg11.dtd">
<svg version="1.1" id="Filled_Version" xmlns="http://www.w3.org/2000/svg" xmlns:xlink="http://www.w3.org/1999/xlink" x="0px"
	 y="0px" width="24px" height="24px" viewBox="0 0 24 24" enable-background="new 0 0 24 24" xml:space="preserve">
<g>
	<path d="M16.157,2.026c0.48-0.481,1.063-0.823,1.699-1.008C16.888,0.345,15.911,0,14.939,0c-1.116,0-2.162,0.456-3.023,1.318
		L1.308,11.926c-1.371,1.37-1.952,3.733-0.304,5.959c0.181-0.63,0.518-1.223,1.012-1.718L16.157,2.026z"/>
	<path d="M22.825,5.97c-0.181,0.627-0.518,1.22-1.01,1.714L7.672,21.825c-0.487,0.487-1.079,0.831-1.724,1.016
		c0.867,0.66,1.833,1.01,2.835,1.01c1.169,0,2.282-0.466,3.133-1.317l10.606-10.607C23.929,10.519,24.479,8.206,22.825,5.97z"/>
	<path d="M21.107,6.976c1.169-1.17,1.169-3.072,0-4.242c-0.566-0.567-1.32-0.879-2.121-0.879c-0.801,0-1.556,0.312-2.122,0.879
		L2.723,16.875c-1.17,1.171-1.17,3.074,0,4.244c0.567,0.566,1.321,0.879,2.121,0.879c0.801,0,1.555-0.312,2.121-0.879L21.107,6.976z
		 M5.198,18.644c-0.095-0.095-0.22-0.147-0.354-0.147c-0.133,0-0.258,0.053-0.354,0.146c-0.095,0.095-0.146,0.22-0.146,0.354
		c0,0.133,0.052,0.259,0.146,0.354c0.195,0.195,0.195,0.512,0,0.707c-0.098,0.097-0.225,0.146-0.353,0.146
		c-0.129,0-0.256-0.05-0.354-0.147c-0.283-0.283-0.438-0.661-0.438-1.061c0-0.4,0.156-0.778,0.439-1.061
		c0.282-0.283,0.66-0.439,1.061-0.439h0.001c0.402,0,0.778,0.157,1.061,0.441c0.193,0.193,0.512,0.193,0.707-0.002
		c0.193-0.194,0.193-0.513-0.001-0.709c-0.282-0.28-0.439-0.656-0.439-1.058s0.156-0.778,0.44-1.062c0.583-0.584,1.536-0.584,2.12,0
		c0.191,0.192,0.519,0.19,0.708,0.001c0.096-0.095,0.147-0.22,0.147-0.354c0-0.133-0.051-0.259-0.146-0.352
		c-0.584-0.588-0.584-1.539,0-2.123c0.282-0.283,0.658-0.439,1.059-0.44H10.5c0.402,0,0.778,0.157,1.062,0.44
		c0.19,0.188,0.518,0.188,0.708,0c0.095-0.096,0.146-0.221,0.146-0.354c0-0.133-0.051-0.259-0.146-0.353
		c-0.585-0.586-0.584-1.537,0-2.121c0.584-0.584,1.536-0.584,2.121,0c0.095,0.094,0.22,0.146,0.354,0.146
		c0.134,0,0.259-0.052,0.353-0.146c0.196-0.195,0.196-0.514,0-0.709c-0.583-0.584-0.583-1.535,0-2.119
		c0.565-0.568,1.554-0.569,2.122-0.001c0.195,0.196,0.513,0.194,0.707,0c0.096-0.094,0.148-0.22,0.148-0.353
		c-0.001-0.134-0.053-0.259-0.148-0.352c-0.584-0.588-0.584-1.54,0-2.124c0.585-0.585,1.537-0.582,2.123,0.002
		c0.194,0.196,0.194,0.511,0,0.706c-0.195,0.195-0.512,0.195-0.708,0c-0.195-0.195-0.513-0.194-0.708,0
		c-0.195,0.194-0.194,0.512,0.001,0.708c0.282,0.282,0.439,0.658,0.44,1.058c0,0.401-0.157,0.779-0.44,1.062
		c-0.584,0.585-1.536,0.585-2.121,0c-0.189-0.188-0.519-0.188-0.707,0c-0.194,0.195-0.194,0.513,0,0.706
		c0.584,0.587,0.583,1.539,0,2.123c-0.282,0.283-0.659,0.439-1.06,0.439h-0.001c-0.401,0-0.778-0.156-1.062-0.439
		c-0.195-0.195-0.512-0.195-0.707,0c-0.195,0.195-0.195,0.512,0,0.707c0.283,0.281,0.438,0.658,0.439,1.059
		c0,0.401-0.156,0.779-0.439,1.062c-0.585,0.585-1.536,0.585-2.121,0c-0.095-0.095-0.221-0.147-0.355-0.147
		c-0.132,0-0.259,0.053-0.352,0.147c-0.196,0.195-0.196,0.512,0,0.708c0.283,0.281,0.439,0.659,0.439,1.06s-0.156,0.778-0.44,1.061
		c-0.565,0.566-1.555,0.567-2.121,0c-0.194-0.194-0.512-0.194-0.707,0c-0.096,0.095-0.147,0.221-0.147,0.354
		s0.051,0.258,0.146,0.353c0.583,0.586,0.583,1.537,0.001,2.121C6.733,19.227,5.781,19.227,5.198,18.644z"/>
</g>
</svg>
