<?xml version="1.0" encoding="utf-8"?>
<!-- Generator: Adobe Illustrator 16.2.1, SVG Export Plug-In . SVG Version: 6.00 Build 0)  -->
<!DOCTYPE svg PUBLIC "-//W3C//DTD SVG 1.1//EN" "http://www.w3.org/Graphics/SVG/1.1/DTD/svg11.dtd">
<svg version="1.1" id="Filled_Version" xmlns="http://www.w3.org/2000/svg" xmlns:xlink="http://www.w3.org/1999/xlink" x="0px"
	 y="0px" width="24px" height="24px" viewBox="0 0 24 24" enable-background="new 0 0 24 24" xml:space="preserve">
<g>
	<polygon points="3.5,18 0,18 0,24 24,24 24,18 22,18 	"/>
	<path d="M0,0v17h3.168C3.689,15.802,5.535,12,8,12c2.008,0,3.668,1.664,4.445,2.603l2.637-4.522C15.471,9.414,16.191,9,16.963,9
		c0.83,0,1.576,0.462,1.947,1.204L22.309,17H24V0H0z M9.5,9h-3c-1.103,0-2-0.896-2-2c0-1.162,1.014-2.096,2.176-1.991
		C7.088,3.818,8.203,3,9.5,3c1.654,0,3,1.346,3,3S11.154,9,9.5,9z"/>
</g>
</svg>
