<?xml version="1.0" encoding="utf-8"?>
<!-- Generator: Adobe Illustrator 16.2.1, SVG Export Plug-In . SVG Version: 6.00 Build 0)  -->
<!DOCTYPE svg PUBLIC "-//W3C//DTD SVG 1.1//EN" "http://www.w3.org/Graphics/SVG/1.1/DTD/svg11.dtd">
<svg version="1.1" id="Filled_Version" xmlns="http://www.w3.org/2000/svg" xmlns:xlink="http://www.w3.org/1999/xlink" x="0px"
	 y="0px" width="24px" height="24px" viewBox="0 0 24 24" enable-background="new 0 0 24 24" xml:space="preserve">
<g>
	<path d="M17.5,0h-11C5.121,0,4,1.122,4,2.5v19C4,22.879,5.121,24,6.5,24h11c1.378,0,2.5-1.121,2.5-2.5v-19
		C20,1.122,18.878,0,17.5,0z M12,22c-2.757,0-5-2.243-5-5s2.243-5,5-5s5,2.243,5,5S14.757,22,12,22z M18,11H6V2h12V11z"/>
	<circle cx="12" cy="17" r="3"/>
</g>
</svg>
