<?xml version="1.0" encoding="utf-8"?>
<!-- Generator: Adobe Illustrator 16.2.1, SVG Export Plug-In . SVG Version: 6.00 Build 0)  -->
<!DOCTYPE svg PUBLIC "-//W3C//DTD SVG 1.1//EN" "http://www.w3.org/Graphics/SVG/1.1/DTD/svg11.dtd">
<svg version="1.1" id="Filled_Version" xmlns="http://www.w3.org/2000/svg" xmlns:xlink="http://www.w3.org/1999/xlink" x="0px"
	 y="0px" width="24px" height="24px" viewBox="0 0 24 24" enable-background="new 0 0 24 24" xml:space="preserve">
<g>
	<polygon points="23,5.5 23,23 5.5,23 5.5,24 24,24 24,5.5 	"/>
	<polygon points="22,2.5 21,2.5 21,21 2.5,21 2.5,22 22,22 	"/>
	<path d="M7.071,10.243c0.083-0.139,0.229-0.229,0.39-0.241c0.164-0.01,0.32,0.054,0.424,0.178l2.07,2.486l3.629-5.443
		c0.104-0.155,0.285-0.242,0.473-0.219c0.188,0.022,0.346,0.146,0.412,0.32L17.347,15H20V0H0v15h4.217L7.071,10.243z M6,3
		c1.103,0,2,0.898,2,2c0,1.104-0.897,2-2,2S4,6.104,4,5C4,3.898,4.897,3,6,3z"/>
	<polygon points="20,16 17,16 4.5,16 0,16 0,20 20,20 	"/>
</g>
</svg>
