<?xml version="1.0" encoding="utf-8"?>
<!-- Generator: Adobe Illustrator 16.2.1, SVG Export Plug-In . SVG Version: 6.00 Build 0)  -->
<!DOCTYPE svg PUBLIC "-//W3C//DTD SVG 1.1//EN" "http://www.w3.org/Graphics/SVG/1.1/DTD/svg11.dtd">
<svg version="1.1" id="Filled_Version" xmlns="http://www.w3.org/2000/svg" xmlns:xlink="http://www.w3.org/1999/xlink" x="0px"
	 y="0px" width="24px" height="24px" viewBox="0 0 24 24" enable-background="new 0 0 24 24" xml:space="preserve">
<g>
	<path d="M2,18.5V10H0.5C0.225,10,0,10.225,0,10.5v11C0,21.777,0.225,22,0.5,22h17c0.275,0,0.5-0.223,0.5-0.5V19H2.5
		C2.225,19,2,18.777,2,18.5z"/>
	<path d="M5,14.5V6H3.5C3.225,6,3,6.225,3,6.5v11V18h0.5h17c0.275,0,0.5-0.223,0.5-0.5V15H5.5C5.225,15,5,14.777,5,14.5z"/>
	<path d="M23.5,2h-17C6.225,2,6,2.225,6,2.5v11V14h0.5h17c0.275,0,0.5-0.223,0.5-0.5v-11C24,2.225,23.775,2,23.5,2z"/>
</g>
</svg>
