<?xml version="1.0" encoding="utf-8"?>
<!-- Generator: Adobe Illustrator 16.2.1, SVG Export Plug-In . SVG Version: 6.00 Build 0)  -->
<!DOCTYPE svg PUBLIC "-//W3C//DTD SVG 1.1//EN" "http://www.w3.org/Graphics/SVG/1.1/DTD/svg11.dtd">
<svg version="1.1" id="Filled_Version" xmlns="http://www.w3.org/2000/svg" xmlns:xlink="http://www.w3.org/1999/xlink" x="0px"
	 y="0px" width="24px" height="24px" viewBox="0 0 24 24" enable-background="new 0 0 24 24" xml:space="preserve">
<g>
	<path d="M9.181,10.783c0.756-0.757,2.073-0.757,2.828,0l0.707,0.706c0.391,0.392,1.023,0.392,1.414,0
		c0.391-0.39,0.391-1.023,0-1.414l-0.706-0.706c-0.756-0.757-1.761-1.173-2.829-1.173S8.522,8.612,7.767,9.367L3.17,13.965
		c-1.56,1.559-1.56,4.097,0,5.656l0.707,0.706c0.756,0.757,1.76,1.173,2.829,1.173c1.068,0,2.072-0.418,2.827-1.172l2.173-2.172
		c0.391-0.391,0.391-1.023,0-1.413c-0.391-0.392-1.023-0.392-1.414,0l-2.173,2.171c-0.755,0.756-2.071,0.756-2.828,0l-0.707-0.707
		c-0.779-0.78-0.779-2.049,0-2.828L9.181,10.783z"/>
	<path d="M15.545,14.318l4.596-4.598c0.756-0.755,1.172-1.759,1.172-2.827c0-1.069-0.416-2.073-1.172-2.827l-0.707-0.709
		c-0.756-0.756-1.76-1.172-2.828-1.172s-2.073,0.416-2.828,1.172l-1.985,1.985c-0.391,0.392-0.391,1.024-0.001,1.413
		c0.391,0.393,1.024,0.393,1.415,0.001l1.985-1.985c0.378-0.378,0.88-0.586,1.414-0.586s1.036,0.208,1.414,0.586l0.707,0.708
		c0.378,0.377,0.586,0.879,0.586,1.414c0,0.534-0.208,1.036-0.586,1.413l-4.597,4.596c-0.755,0.757-2.072,0.757-2.827,0.001
		c-0.391-0.391-1.023-0.391-1.414-0.001c-0.391,0.392-0.391,1.023-0.001,1.414c0.756,0.756,1.76,1.173,2.828,1.173
		C13.785,15.489,14.789,15.072,15.545,14.318z"/>
</g>
</svg>
