<?xml version="1.0" encoding="utf-8"?>
<!-- Generator: Adobe Illustrator 16.2.1, SVG Export Plug-In . SVG Version: 6.00 Build 0)  -->
<!DOCTYPE svg PUBLIC "-//W3C//DTD SVG 1.1//EN" "http://www.w3.org/Graphics/SVG/1.1/DTD/svg11.dtd">
<svg version="1.1" id="Filled_Version" xmlns="http://www.w3.org/2000/svg" xmlns:xlink="http://www.w3.org/1999/xlink" x="0px"
	 y="0px" width="24px" height="24px" viewBox="0 0 24 24" enable-background="new 0 0 24 24" xml:space="preserve">
<g>
	<path d="M12,7c1.93,0,3.5-1.57,3.5-3.5S13.93,0,12,0S8.5,1.57,8.5,3.5S10.07,7,12,7z"/>
	<path d="M10,14.533V18.5c0,0.275,0.224,0.5,0.5,0.5h3c0.275,0,0.5-0.225,0.5-0.5v-3.967c1.951-0.934,3-3.734,3-6.033
		C17,8.224,16.775,8,16.5,8h-9C7.224,8,7,8.224,7,8.5C7,10.799,8.048,13.6,10,14.533z"/>
	<path d="M12,20.5c-4.015,0-6.366-0.821-6.502-1.239c0.035-0.11,0.574-0.603,2.581-0.953c0.271-0.047,0.454-0.307,0.406-0.579
		c-0.047-0.271-0.309-0.453-0.578-0.406C5.646,17.718,4.5,18.367,4.5,19.25c0,1.776,4.714,2.25,7.5,2.25c2.785,0,7.5-0.474,7.5-2.25
		c0-0.882-1.142-1.53-3.394-1.926c-0.271-0.048-0.531,0.133-0.579,0.406c-0.048,0.271,0.134,0.53,0.406,0.579
		c1.997,0.351,2.533,0.841,2.567,0.929C18.366,19.679,16.014,20.5,12,20.5z"/>
	<path d="M16.066,15.253c-0.275-0.035-0.523,0.158-0.56,0.433c-0.035,0.271,0.158,0.523,0.432,0.559
		C20.574,16.844,23,18.336,23,19.5c0,1.654-4.518,3.5-11,3.5S1,21.154,1,19.5c0-1.165,2.426-2.657,7.063-3.256
		c0.273-0.035,0.467-0.287,0.432-0.559c-0.036-0.274-0.285-0.469-0.56-0.433C4.099,15.748,0,17.123,0,19.5C0,21.682,4.205,24,12,24
		c7.794,0,12-2.318,12-4.5C24,17.123,19.901,15.748,16.066,15.253z"/>
</g>
</svg>
