<?xml version="1.0" encoding="utf-8"?>
<!-- Generator: Adobe Illustrator 16.2.1, SVG Export Plug-In . SVG Version: 6.00 Build 0)  -->
<!DOCTYPE svg PUBLIC "-//W3C//DTD SVG 1.1//EN" "http://www.w3.org/Graphics/SVG/1.1/DTD/svg11.dtd">
<svg version="1.1" id="Filled_Version" xmlns="http://www.w3.org/2000/svg" xmlns:xlink="http://www.w3.org/1999/xlink" x="0px"
	 y="0px" width="24px" height="24px" viewBox="0 0 24 24" enable-background="new 0 0 24 24" xml:space="preserve">
<path d="M22.057,8.307l-1.902-1.902l0.963-2.889c0.059-0.18,0.013-0.377-0.121-0.512c-0.135-0.135-0.332-0.181-0.512-0.119
	l-2.889,0.961l-1.902-1.902c-0.15-0.15-0.379-0.189-0.57-0.098c-0.191,0.094-0.305,0.295-0.281,0.506l0.317,2.852L12.268,6.81
	c-0.181,0.101-0.281,0.302-0.252,0.507s0.182,0.371,0.383,0.418l1.994,0.459l-12.1,12.1c-0.391,0.391-0.391,1.023,0,1.414
	C2.488,21.902,2.744,22,3,22s0.512-0.098,0.707-0.293l12.1-12.098l0.459,1.992c0.047,0.201,0.212,0.354,0.418,0.383
	c0.023,0.003,0.047,0.006,0.07,0.006c0.18,0,0.348-0.097,0.437-0.258l1.606-2.893l2.852,0.318c0.213,0.023,0.413-0.09,0.506-0.281
	C22.246,8.686,22.207,8.457,22.057,8.307z"/>
</svg>
