<?xml version="1.0" encoding="utf-8"?>
<!-- Generator: Adobe Illustrator 16.2.1, SVG Export Plug-In . SVG Version: 6.00 Build 0)  -->
<!DOCTYPE svg PUBLIC "-//W3C//DTD SVG 1.1//EN" "http://www.w3.org/Graphics/SVG/1.1/DTD/svg11.dtd">
<svg version="1.1" id="Filled_Version" xmlns="http://www.w3.org/2000/svg" xmlns:xlink="http://www.w3.org/1999/xlink" x="0px"
	 y="0px" width="24px" height="24px" viewBox="0 0 24 24" enable-background="new 0 0 24 24" xml:space="preserve">
<g>
	<path d="M23.491,12.525l-2.828-2.829c-0.188-0.188-0.52-0.188-0.707,0l-1.769,1.769L21.724,15l1.768-1.768
		c0.094-0.094,0.146-0.222,0.146-0.354C23.638,12.746,23.585,12.619,23.491,12.525z"/>
	<path d="M14.299,4.04c0.195-0.195,0.195-0.512,0-0.708l-2.828-2.828c-0.094-0.094-0.222-0.146-0.354-0.146
		c-0.133,0-0.26,0.053-0.354,0.146L8.995,2.271l3.536,3.537L14.299,4.04z"/>
	<path d="M12.531,17.121c-0.755,0.756-1.76,1.172-2.829,1.172c-1.068,0-2.072-0.416-2.828-1.172c-1.56-1.56-1.56-4.098,0-5.656
		l4.95-4.95L8.289,2.979L2.632,8.636c-3.509,3.509-3.509,9.22,0,12.728C4.332,23.064,6.592,24,8.996,24
		c2.403,0,4.664-0.936,6.363-2.637l5.657-5.656l-3.536-3.535L12.531,17.121z"/>
</g>
</svg>
