<?xml version="1.0" encoding="utf-8"?>
<!-- Generator: Adobe Illustrator 16.2.1, SVG Export Plug-In . SVG Version: 6.00 Build 0)  -->
<!DOCTYPE svg PUBLIC "-//W3C//DTD SVG 1.1//EN" "http://www.w3.org/Graphics/SVG/1.1/DTD/svg11.dtd">
<svg version="1.1" id="Filled_Version" xmlns="http://www.w3.org/2000/svg" xmlns:xlink="http://www.w3.org/1999/xlink" x="0px"
	 y="0px" width="24px" height="24px" viewBox="0 0 24 24" enable-background="new 0 0 24 24" xml:space="preserve">
<g>
	<path d="M16.25,1c-3.032,0-5.5,2.467-5.5,5.5s2.468,5.5,5.5,5.5c3.033,0,5.5-2.467,5.5-5.5S19.283,1,16.25,1z M16.25,10
		c-0.276,0-0.5-0.224-0.5-0.5c0-0.275,0.224-0.5,0.5-0.5c1.379,0,2.5-1.121,2.5-2.5c0-0.275,0.224-0.5,0.5-0.5s0.5,0.225,0.5,0.5
		C19.75,8.432,18.18,10,16.25,10z"/>
	<circle cx="23.5" cy="6" r="0.5"/>
	<path d="M23.498,6.939c-0.276,0-0.5,0.224-0.5,0.5v16c0,0.277,0.224,0.5,0.5,0.5c0.275,0,0.5-0.223,0.5-0.5v-16
		C23.998,7.163,23.773,6.939,23.498,6.939z"/>
	<path d="M19.394,19.898c-0.228-0.126-0.511-0.059-0.656,0.154c-0.386,0.566-1.021,0.902-1.702,0.902
		c-1.136,0-2.059-0.924-2.059-2.06c0-1.991-1.532-3.032-3.046-3.032c-0.719,0-1.399,0.226-1.934,0.631
		c-0.533-0.405-1.214-0.631-1.933-0.631c-1.514,0-3.045,1.041-3.045,3.032c0,1.136-0.924,2.06-2.06,2.06
		c-0.682,0-1.317-0.336-1.701-0.902c-0.146-0.213-0.431-0.28-0.656-0.154c-0.227,0.125-0.319,0.403-0.214,0.64
		c0.938,2.107,2.764,3.315,5.008,3.315c1.779,0,3.513-0.777,4.601-2.026c1.088,1.249,2.822,2.026,4.602,2.026
		c2.244,0,4.069-1.208,5.008-3.315C19.712,20.302,19.62,20.023,19.394,19.898z"/>
</g>
</svg>
