<?xml version="1.0" encoding="utf-8"?>
<!-- Generator: Adobe Illustrator 16.2.1, SVG Export Plug-In . SVG Version: 6.00 Build 0)  -->
<!DOCTYPE svg PUBLIC "-//W3C//DTD SVG 1.1//EN" "http://www.w3.org/Graphics/SVG/1.1/DTD/svg11.dtd">
<svg version="1.1" id="Filled_Version" xmlns="http://www.w3.org/2000/svg" xmlns:xlink="http://www.w3.org/1999/xlink" x="0px"
	 y="0px" width="24px" height="24px" viewBox="0 0 24 24" enable-background="new 0 0 24 24" xml:space="preserve">
<g>
	<path d="M22.75,6c-0.701,0-1.25,0.659-1.25,1.5v3c0,0.498,0.196,0.932,0.5,1.201V19c0,1.103-0.897,2-2,2c-1.104,0-2-0.897-2-2V5
		c0-1.102-0.897-2-2-2h-2V2c0-1.102-0.897-2-2-2H2C0.896,0,0,0.898,0,2v12.5V15v7c0,1.103,0.896,2,2,2h10c1.103,0,2-0.897,2-2v-7
		v-0.5V4h2c0.551,0,1,0.448,1,1v14c0,1.654,1.346,3,3,3s3-1.346,3-3v-7.029c0.577-0.136,1-0.732,1-1.471v-3
		C24,6.659,23.451,6,22.75,6z M7,22c-1.654,0-3-1.346-3-3s1.346-3,3-3s3,1.346,3,3S8.654,22,7,22z M13,14H1V2c0-0.552,0.448-1,1-1
		h10c0.551,0,1,0.448,1,1V14z"/>
	<path d="M20.5,10.5H21v-3h-0.5c-1.327,0-2,0.505-2,1.5S19.173,10.5,20.5,10.5z"/>
	<rect x="3" y="5" width="2" height="1"/>
	<rect x="3" y="7" width="2" height="1"/>
	<rect x="3" y="9" width="2" height="1"/>
	<rect x="3" y="11" width="2" height="1"/>
	<rect x="9" y="7" width="2" height="1"/>
	<rect x="9" y="9" width="2" height="1"/>
	<rect x="9" y="11" width="2" height="1"/>
	<rect x="6" y="9" width="2" height="1"/>
	<rect x="6" y="11" width="2" height="1"/>
</g>
</svg>
