<?xml version="1.0" encoding="utf-8"?>
<!-- Generator: Adobe Illustrator 16.2.1, SVG Export Plug-In . SVG Version: 6.00 Build 0)  -->
<!DOCTYPE svg PUBLIC "-//W3C//DTD SVG 1.1//EN" "http://www.w3.org/Graphics/SVG/1.1/DTD/svg11.dtd">
<svg version="1.1" id="Filled_Version" xmlns="http://www.w3.org/2000/svg" xmlns:xlink="http://www.w3.org/1999/xlink" x="0px"
	 y="0px" width="24px" height="24px" viewBox="0 0 24 24" enable-background="new 0 0 24 24" xml:space="preserve">
<g>
	<path d="M1.5,18h21c0.275,0,0.5-0.224,0.5-0.5v-13c0-1.102-0.897-2-2-2H3c-1.104,0-2,0.898-2,2v13C1,17.776,1.224,18,1.5,18z
		 M3,4.5h18v11H3V4.5z"/>
	<path d="M23.5,19h-9c-0.276,0-0.5,0.224-0.5,0.5V20h-4v-0.5c0-0.276-0.225-0.5-0.5-0.5h-9C0.224,19,0,19.224,0,19.5v1
		C0,21.327,0.673,22,1.5,22h21c0.826,0,1.5-0.673,1.5-1.5v-1C24,19.224,23.775,19,23.5,19z"/>
</g>
</svg>
