<?xml version="1.0" encoding="utf-8"?>
<!-- Generator: Adobe Illustrator 16.2.1, SVG Export Plug-In . SVG Version: 6.00 Build 0)  -->
<!DOCTYPE svg PUBLIC "-//W3C//DTD SVG 1.1//EN" "http://www.w3.org/Graphics/SVG/1.1/DTD/svg11.dtd">
<svg version="1.1" id="Filled_Version" xmlns="http://www.w3.org/2000/svg" xmlns:xlink="http://www.w3.org/1999/xlink" x="0px"
	 y="0px" width="24px" height="24px" viewBox="0 0 24 24" enable-background="new 0 0 24 24" xml:space="preserve">
<g>
	<path d="M20,10h-5.023c-0.166,0-0.321-0.082-0.414-0.221c-0.093-0.137-0.112-0.311-0.05-0.465C14.836,8.507,15,7.656,15,6.784V3
		c0-1.655-1.346-3-3-3S9,1.345,9,3v3.784c0,0.87,0.164,1.722,0.487,2.53c0.062,0.155,0.043,0.329-0.05,0.465
		C9.344,9.917,9.189,10,9.023,10H4c-1.103,0-2,0.896-2,2v2.5h20V12C22,10.896,21.103,10,20,10z M12,4c-0.551,0-1-0.449-1-1
		c0-0.552,0.449-1,1-1c0.552,0,1,0.448,1,1C13,3.551,12.552,4,12,4z"/>
	<path d="M20.5,15.5h-17C3.224,15.5,3,15.724,3,16v7.5C3,23.776,3.224,24,3.5,24H6c0.189,0,0.363-0.106,0.447-0.276L7.5,21.619V23.5
		C7.5,23.776,7.724,24,8,24h6v-2.604c0-0.276,0.224-0.5,0.5-0.5c0.276,0,0.5,0.224,0.5,0.5V24h1v-4.341c0-0.277,0.224-0.5,0.5-0.5
		c0.276,0,0.5,0.223,0.5,0.5V24h1v-5.5c0-0.276,0.224-0.5,0.5-0.5c0.276,0,0.5,0.224,0.5,0.5V24h1.5c0.276,0,0.5-0.224,0.5-0.5V16
		C21,15.724,20.776,15.5,20.5,15.5z"/>
</g>
</svg>
