<?xml version="1.0" encoding="utf-8"?>
<!-- Generator: Adobe Illustrator 16.2.1, SVG Export Plug-In . SVG Version: 6.00 Build 0)  -->
<!DOCTYPE svg PUBLIC "-//W3C//DTD SVG 1.1//EN" "http://www.w3.org/Graphics/SVG/1.1/DTD/svg11.dtd">
<svg version="1.1" id="Filled_Version" xmlns="http://www.w3.org/2000/svg" xmlns:xlink="http://www.w3.org/1999/xlink" x="0px"
	 y="0px" width="24px" height="24px" viewBox="0 0 24 24" enable-background="new 0 0 24 24" xml:space="preserve">
<path d="M20.479,4.514C18.213,2.248,15.2,1,11.994,1C8.789,1,5.775,2.248,3.509,4.514c-4.679,4.681-4.679,12.293,0,16.973
	c0.472,0.471,1.1,0.73,1.768,0.73c0.667,0,1.295-0.26,1.768-0.73c0.974-0.976,0.974-2.562,0-3.537c-0.195-0.195-0.195-0.513,0-0.708
	c0.188-0.188,0.518-0.188,0.707,0l4.242,4.245c1.134,1.133,2.64,1.757,4.243,1.757c1.603,0,3.109-0.624,4.242-1.757
	C25.158,16.807,25.158,9.194,20.479,4.514z M11.287,8.049c-0.585,0.588-1.535,0.588-2.121,0c-0.586-0.586-0.586-1.535,0-2.121
	c0.586-0.586,1.535-0.586,2.121,0C11.873,6.514,11.873,7.463,11.287,8.049z M15.177,6.99c0.585-0.586,1.536-0.586,2.121,0
	c0.585,0.584,0.585,1.535,0,2.121c-0.585,0.585-1.536,0.585-2.121,0C14.591,8.525,14.591,7.574,15.177,6.99z M17.651,19.363
	c-0.781,0.781-2.048,0.781-2.828,0c-0.781-0.78-0.781-2.045,0-2.828c0.78-0.781,2.047-0.781,2.828,0
	C18.432,17.318,18.432,18.583,17.651,19.363z M19.702,13.707c-0.391,0.389-1.024,0.389-1.414,0c-0.391-0.389-0.391-1.023,0-1.414
	c0.39-0.391,1.023-0.391,1.414,0S20.092,13.318,19.702,13.707z"/>
</svg>
