<?xml version="1.0" encoding="utf-8"?>
<!-- Generator: Adobe Illustrator 16.2.1, SVG Export Plug-In . SVG Version: 6.00 Build 0)  -->
<!DOCTYPE svg PUBLIC "-//W3C//DTD SVG 1.1//EN" "http://www.w3.org/Graphics/SVG/1.1/DTD/svg11.dtd">
<svg version="1.1" id="Filled_Version" xmlns="http://www.w3.org/2000/svg" xmlns:xlink="http://www.w3.org/1999/xlink" x="0px"
	 y="0px" width="24px" height="24px" viewBox="0 0 24 24" enable-background="new 0 0 24 24" xml:space="preserve">
<g>
	<path d="M19.462,12.691c0.077-0.188,0.034-0.402-0.108-0.546l-9-9C10.256,3.049,10.128,3,10,3V2.5C10,1.121,8.879,0,7.5,0
		S5,1.121,5,2.5v5.293l-3.854,3.853c-0.975,0.976-0.975,2.562,0,3.536l4.672,4.672c0.473,0.473,1.1,0.732,1.768,0.732
		s1.295-0.26,1.768-0.732L16.207,13H19C19.202,13,19.385,12.878,19.462,12.691z M9,3.793l-3,3V2.5C6,1.672,6.673,1,7.5,1
		S9,1.672,9,2.5V3.793z"/>
	<path d="M20.428,15.24c-0.182-0.299-0.674-0.299-0.855,0C19.31,15.674,17,19.521,17,21c0,1.654,1.346,3,3,3s3-1.346,3-3
		C23,19.521,20.691,15.674,20.428,15.24z"/>
</g>
</svg>
