<?xml version="1.0" encoding="utf-8"?>
<!-- Generator: Adobe Illustrator 16.2.1, SVG Export Plug-In . SVG Version: 6.00 Build 0)  -->
<!DOCTYPE svg PUBLIC "-//W3C//DTD SVG 1.1//EN" "http://www.w3.org/Graphics/SVG/1.1/DTD/svg11.dtd">
<svg version="1.1" id="Filled_Version" xmlns="http://www.w3.org/2000/svg" xmlns:xlink="http://www.w3.org/1999/xlink" x="0px"
	 y="0px" width="24px" height="24px" viewBox="0 0 24 24" enable-background="new 0 0 24 24" xml:space="preserve">
<g>
	<path d="M2.381,17.442c-0.97,0.971-1.691,4.489-1.856,5.352l2.938-2.938c0.195-0.194,0.512-0.194,0.707,0.001
		c0.195,0.196,0.195,0.513,0,0.708L1.232,23.5c0.863-0.164,4.382-0.885,5.352-1.856c0.561-0.561,0.87-1.308,0.87-2.1
		c0-0.796-0.31-1.54-0.87-2.102s-1.307-0.87-2.102-0.87C3.689,16.572,2.943,16.881,2.381,17.442z"/>
	<path d="M5.512,15.686l2.828,2.83c0.094,0.093,0.221,0.146,0.354,0.146s0.26-0.053,0.354-0.146l8.857-8.858L14.311,6.18
		l-8.799,8.799C5.316,15.174,5.316,15.49,5.512,15.686z"/>
	<path d="M18.611,8.951l5.242-5.244C23.947,3.615,24,3.486,24,3.354C24,3.223,23.947,3.095,23.854,3l-2.828-2.828
		c-0.195-0.194-0.512-0.194-0.707,0l-0.391,0.39c-0.404-0.269-0.88-0.413-1.378-0.413c-0.668,0-1.296,0.259-1.768,0.73l-5.657,5.658
		c-0.195,0.195-0.195,0.512,0,0.706c0.197,0.196,0.511,0.196,0.707,0l5.658-5.657c0.442-0.442,1.142-0.533,1.697-0.283l-4.17,4.169
		L18.611,8.951z"/>
</g>
</svg>
