<?xml version="1.0" encoding="utf-8"?>
<!-- Generator: Adobe Illustrator 16.2.1, SVG Export Plug-In . SVG Version: 6.00 Build 0)  -->
<!DOCTYPE svg PUBLIC "-//W3C//DTD SVG 1.1//EN" "http://www.w3.org/Graphics/SVG/1.1/DTD/svg11.dtd">
<svg version="1.1" id="Filled_Version" xmlns="http://www.w3.org/2000/svg" xmlns:xlink="http://www.w3.org/1999/xlink" x="0px"
	 y="0px" width="24px" height="24px" viewBox="0 0 24 24" enable-background="new 0 0 24 24" xml:space="preserve">
<g>
	<path d="M1.146,23.066c0.195,0.196,0.512,0.196,0.707,0l1.768-1.768l0.354,0.354c0.195,0.195,0.512,0.195,0.707,0l1.768-1.768
		l0.354,0.354c0.098,0.098,0.226,0.146,0.354,0.146s0.256-0.049,0.354-0.146l9.404-9.404l-3.535-3.535l-9.404,9.404
		c-0.094,0.093-0.146,0.221-0.146,0.354s0.053,0.26,0.146,0.353l0.354,0.354l-1.768,1.769c-0.195,0.194-0.195,0.51,0,0.707
		l0.354,0.353l-1.768,1.769C0.951,22.555,0.951,22.871,1.146,23.066z"/>
	<path d="M17.621,10.127l5.445-5.445c0.094-0.094,0.146-0.221,0.146-0.353c0-0.133-0.053-0.261-0.146-0.354l-2.828-2.828
		c-0.195-0.195-0.512-0.195-0.707,0l-0.39,0.389c-0.405-0.269-0.881-0.414-1.378-0.414c-0.668,0-1.296,0.26-1.769,0.732L10.339,7.51
		c-0.195,0.195-0.195,0.512,0,0.707c0.195,0.195,0.512,0.195,0.707,0l5.656-5.656c0.444-0.443,1.144-0.535,1.699-0.284l-4.315,4.315
		L17.621,10.127z"/>
</g>
</svg>
