<?xml version="1.0" encoding="utf-8"?>
<!-- Generator: Adobe Illustrator 16.2.1, SVG Export Plug-In . SVG Version: 6.00 Build 0)  -->
<!DOCTYPE svg PUBLIC "-//W3C//DTD SVG 1.1//EN" "http://www.w3.org/Graphics/SVG/1.1/DTD/svg11.dtd">
<svg version="1.1" id="Filled_Version" xmlns="http://www.w3.org/2000/svg" xmlns:xlink="http://www.w3.org/1999/xlink" x="0px"
	 y="0px" width="24px" height="24px" viewBox="0 0 24 24" enable-background="new 0 0 24 24" xml:space="preserve">
<g>
	<rect x="5" y="19" width="5" height="1"/>
	<rect x="8" y="8.5" width="2" height="9.5"/>
	<path d="M7.957,3.298C7.877,3.116,7.697,3,7.5,3S7.123,3.116,7.043,3.298L5.176,7.5h4.648L7.957,3.298z"/>
	<path d="M5,21.5C5,22.878,6.121,24,7.5,24s2.5-1.122,2.5-2.5V21H5V21.5z"/>
	<rect x="5" y="8.5" width="2" height="9.5"/>
	<path d="M18.5,0h-6C12.225,0,12,0.224,12,0.5V3h2.5C14.775,3,15,3.224,15,3.5C15,3.777,14.775,4,14.5,4H12v3h2.5
		C14.775,7,15,7.224,15,7.5C15,7.777,14.775,8,14.5,8H12v3h2.5c0.275,0,0.5,0.224,0.5,0.5c0,0.277-0.225,0.5-0.5,0.5H12v3h2.5
		c0.275,0,0.5,0.224,0.5,0.5c0,0.277-0.225,0.5-0.5,0.5H12v3h2.5c0.275,0,0.5,0.224,0.5,0.5c0,0.277-0.225,0.5-0.5,0.5H12v3.5
		c0,0.277,0.225,0.5,0.5,0.5h6c0.275,0,0.5-0.223,0.5-0.5v-23C19,0.224,18.775,0,18.5,0z"/>
</g>
</svg>
