<?xml version="1.0" encoding="utf-8"?>
<!-- Generator: Adobe Illustrator 16.2.1, SVG Export Plug-In . SVG Version: 6.00 Build 0)  -->
<!DOCTYPE svg PUBLIC "-//W3C//DTD SVG 1.1//EN" "http://www.w3.org/Graphics/SVG/1.1/DTD/svg11.dtd">
<svg version="1.1" id="Filled_Version" xmlns="http://www.w3.org/2000/svg" xmlns:xlink="http://www.w3.org/1999/xlink" x="0px"
	 y="0px" width="24px" height="24px" viewBox="0 0 24 24" enable-background="new 0 0 24 24" xml:space="preserve">
<g>
	<path d="M18.183,5l-5.199-4.381c-0.188-0.16-0.465-0.158-0.651,0.003L7.312,5H0v19h24V5H18.183z M12.667,1.659L16.631,5H8.834
		L12.667,1.659z M23,23H1V6h22V23z"/>
	<path d="M7.522,17.5h2.955C9.902,16.289,9.367,14.961,9,13.607C8.633,14.961,8.098,16.289,7.522,17.5z"/>
	<path d="M8.5,10.213c0-0.276,0.225-0.5,0.5-0.5s0.5,0.224,0.5,0.5c0,4.759,3.947,10.633,4.758,11.787H16v-4
		c0-0.276,0.225-0.5,0.5-0.5H18V15c0-0.276,0.225-0.5,0.5-0.5H22V7H2v15h1.742C4.552,20.845,8.5,14.967,8.5,10.213z"/>
	<path d="M7.029,18.5C6.25,20.004,5.465,21.243,4.957,22h8.086c-0.508-0.757-1.293-1.996-2.071-3.5H7.029z"/>
	<rect x="17" y="18.5" width="1" height="3.5"/>
	<polygon points="19,18 19,22 22,22 22,15.5 19,15.5 	"/>
</g>
</svg>
