<?xml version="1.0" encoding="utf-8"?>
<!-- Generator: Adobe Illustrator 16.2.1, SVG Export Plug-In . SVG Version: 6.00 Build 0)  -->
<!DOCTYPE svg PUBLIC "-//W3C//DTD SVG 1.1//EN" "http://www.w3.org/Graphics/SVG/1.1/DTD/svg11.dtd">
<svg version="1.1" id="Filled_Version" xmlns="http://www.w3.org/2000/svg" xmlns:xlink="http://www.w3.org/1999/xlink" x="0px"
	 y="0px" width="24px" height="24px" viewBox="0 0 24 24" enable-background="new 0 0 24 24" xml:space="preserve">
<g>
	<path d="M0.002,23.462c-0.011,0.14,0.037,0.275,0.131,0.378C0.229,23.941,0.361,24,0.5,24h13.074c0.139,0,0.271-0.059,0.367-0.16
		c0.094-0.103,0.143-0.238,0.131-0.378C13.841,20.381,12.18,18.613,9,18.069V17h0.5c0.275,0,0.5-0.225,0.5-0.5v-2
		c0-0.276-0.225-0.5-0.5-0.5h-5C4.225,14,4,14.224,4,14.5v2C4,16.775,4.225,17,4.5,17H5v1.069
		C1.871,18.608,0.234,20.376,0.002,23.462z"/>
	<path d="M23.268,0.428c-0.195-0.195-0.512-0.195-0.706,0L20,2.986V0.5c0-0.173-0.09-0.334-0.236-0.425
		c-0.146-0.092-0.33-0.101-0.485-0.024c-1.054,0.521-2.731,1.632-4.286,3.187c-3.012,3.011-4.334,6.334-3.295,8.049l-1.275,1.274
		c-0.195,0.195-0.195,0.512,0,0.707c0.191,0.193,0.509,0.197,0.707,0l1.266-1.265c0.502,0.333,1.121,0.499,1.814,0.499
		c1.666,0,3.75-0.926,5.628-2.633c0.151-0.139,0.204-0.357,0.13-0.55S19.707,9,19.5,9h-4.102l1-1H21c0.275,0,0.5-0.225,0.5-0.5
		C21.5,7.224,21.275,7,21,7h-3.6l1-1h4.055c0.178,0,0.345-0.097,0.434-0.252c1.281-2.235,1.43-4.195,0.415-5.266
		C23.289,0.465,23.283,0.443,23.268,0.428z"/>
</g>
</svg>
