<?xml version="1.0" encoding="utf-8"?>
<!-- Generator: Adobe Illustrator 16.2.1, SVG Export Plug-In . SVG Version: 6.00 Build 0)  -->
<!DOCTYPE svg PUBLIC "-//W3C//DTD SVG 1.1//EN" "http://www.w3.org/Graphics/SVG/1.1/DTD/svg11.dtd">
<svg version="1.1" id="Filled_Version" xmlns="http://www.w3.org/2000/svg" xmlns:xlink="http://www.w3.org/1999/xlink" x="0px"
	 y="0px" width="24px" height="24px" viewBox="0 0 24 24" enable-background="new 0 0 24 24" xml:space="preserve">
<g>
	<path d="M23.866,14.725l-2.42-4.186c-0.041-0.069-0.086-0.134-0.141-0.189c-0.168-0.186-0.397-0.305-0.65-0.327
		c-0.326-0.024-0.644,0.104-0.854,0.354l-3.213,3.832c-0.355,0.423-0.3,1.054,0.123,1.408c0.423,0.355,1.055,0.3,1.408-0.123
		l1.456-1.735c-0.553,2.833-2.817,5.341-5.802,6.041c-2.528,0.594-5.143-0.146-6.994-1.977c-0.393-0.389-1.025-0.386-1.414,0.008
		c-0.389,0.393-0.385,1.025,0.008,1.414C7.185,21.035,9.572,22,12.042,22c0.727,0,1.461-0.084,2.189-0.255
		c3.605-0.845,6.378-3.801,7.214-7.212l0.689,1.192c0.186,0.321,0.521,0.5,0.866,0.5c0.17,0,0.343-0.043,0.5-0.135
		C23.979,15.814,24.143,15.203,23.866,14.725z"/>
	<path d="M7.415,10.389c-0.424-0.354-1.054-0.3-1.408,0.124l-1.723,2.055c0.032-1.282,0.396-2.549,1.085-3.697
		c1.111-1.854,2.928-3.194,4.983-3.676c2.695-0.633,5.508,0.267,7.342,2.345c0.365,0.414,0.996,0.454,1.411,0.089
		c0.414-0.365,0.454-0.997,0.089-1.411c-2.322-2.633-5.885-3.772-9.299-2.969C7.316,3.852,5.041,5.526,3.653,7.842
		c-0.624,1.041-1.029,2.162-1.229,3.312L1.858,10.21C1.573,9.737,0.959,9.584,0.485,9.868c-0.473,0.284-0.627,0.898-0.342,1.372
		l2.561,4.262c0.166,0.277,0.456,0.457,0.778,0.482c0.026,0.002,0.052,0.003,0.078,0.003c0.294,0,0.575-0.13,0.767-0.357
		l3.212-3.831C7.894,11.373,7.839,10.743,7.415,10.389z"/>
</g>
</svg>
