<?xml version="1.0" encoding="utf-8"?>
<!-- Generator: Adobe Illustrator 16.2.1, SVG Export Plug-In . SVG Version: 6.00 Build 0)  -->
<!DOCTYPE svg PUBLIC "-//W3C//DTD SVG 1.1//EN" "http://www.w3.org/Graphics/SVG/1.1/DTD/svg11.dtd">
<svg version="1.1" id="Filled_Version" xmlns="http://www.w3.org/2000/svg" xmlns:xlink="http://www.w3.org/1999/xlink" x="0px"
	 y="0px" width="24px" height="24px" viewBox="0 0 24 24" enable-background="new 0 0 24 24" xml:space="preserve">
<g>
	<path d="M22,1H2C0.896,1,0,1.898,0,3v13c0,1.103,0.896,2,2,2h8v-2H2V3h20v13h-3v2h3c1.103,0,2-0.897,2-2V3C24,1.898,23.103,1,22,1z
		"/>
	<path d="M11,24h7V13h-7V24z M15.5,15.5c0.275,0,0.5,0.224,0.5,0.5c0,0.275-0.225,0.5-0.5,0.5c-0.276,0-0.5-0.225-0.5-0.5
		C15,15.724,15.224,15.5,15.5,15.5z M15.5,17.5c0.275,0,0.5,0.224,0.5,0.5c0,0.275-0.225,0.5-0.5,0.5c-0.276,0-0.5-0.225-0.5-0.5
		C15,17.724,15.224,17.5,15.5,17.5z M15.5,19.5c0.275,0,0.5,0.224,0.5,0.5c0,0.275-0.225,0.5-0.5,0.5c-0.276,0-0.5-0.225-0.5-0.5
		C15,19.724,15.224,19.5,15.5,19.5z M13.5,15.5c0.275,0,0.5,0.224,0.5,0.5c0,0.275-0.225,0.5-0.5,0.5c-0.276,0-0.5-0.225-0.5-0.5
		C13,15.724,13.224,15.5,13.5,15.5z M13.5,17.5c0.275,0,0.5,0.224,0.5,0.5c0,0.275-0.225,0.5-0.5,0.5c-0.276,0-0.5-0.225-0.5-0.5
		C13,17.724,13.224,17.5,13.5,17.5z M13.5,19.5c0.275,0,0.5,0.224,0.5,0.5c0,0.275-0.225,0.5-0.5,0.5c-0.276,0-0.5-0.225-0.5-0.5
		C13,19.724,13.224,19.5,13.5,19.5z"/>
	<path d="M18.154,7.537c-2.147-1.319-4.85-1.377-7.053-0.152c-0.242,0.135-0.328,0.438-0.194,0.681
		c0.134,0.24,0.438,0.327,0.681,0.193c1.887-1.05,4.203-1,6.043,0.13c0.081,0.049,0.172,0.074,0.261,0.074
		c0.168,0,0.332-0.085,0.427-0.238C18.463,7.989,18.39,7.681,18.154,7.537z"/>
	<path d="M16.849,10.166c0.168,0,0.333-0.084,0.427-0.238c0.145-0.235,0.07-0.543-0.165-0.688c-1.534-0.94-3.465-0.983-5.038-0.108
		c-0.241,0.133-0.328,0.438-0.194,0.679c0.135,0.241,0.439,0.328,0.68,0.195c1.259-0.7,2.802-0.666,4.03,0.086
		C16.67,10.143,16.76,10.166,16.849,10.166z"/>
	<path d="M13.048,10.887c-0.241,0.134-0.328,0.438-0.194,0.681c0.134,0.242,0.439,0.327,0.68,0.194
		c0.629-0.35,1.398-0.335,2.008,0.039c0.082,0.05,0.172,0.073,0.261,0.073c0.168,0,0.333-0.084,0.427-0.239
		c0.145-0.234,0.07-0.542-0.165-0.688C15.147,10.386,13.991,10.362,13.048,10.887z"/>
</g>
</svg>
