<?xml version="1.0" encoding="utf-8"?>
<!-- Generator: Adobe Illustrator 16.2.1, SVG Export Plug-In . SVG Version: 6.00 Build 0)  -->
<!DOCTYPE svg PUBLIC "-//W3C//DTD SVG 1.1//EN" "http://www.w3.org/Graphics/SVG/1.1/DTD/svg11.dtd">
<svg version="1.1" id="Filled_Version" xmlns="http://www.w3.org/2000/svg" xmlns:xlink="http://www.w3.org/1999/xlink" x="0px"
	 y="0px" width="24px" height="24px" viewBox="0 0 24 24" enable-background="new 0 0 24 24" xml:space="preserve">
<path d="M24,4.5C24,3.448,23.854,1,22.5,1H10.025C8.845,1,8.512,2.303,8.5,3.007C8.501,3.094,8.594,11.542,7.586,17H3
	c-0.436,0-0.792,0.138-1.061,0.408c-0.582,0.585-0.574,1.623-0.566,2.719c0.007,0.981,0.015,2.095-0.461,2.573
	C0.711,22.902,0.413,23,0,23v1h12.475c0.685,0,1.23-0.199,1.623-0.596c0.364-0.366,0.551-0.861,0.648-1.404h3.729
	c0.426,0,0.816-0.177,1.162-0.524C21.713,19.385,22.018,10.478,22,5h2V4.5z M12,5h2c0.275,0,0.5,0.224,0.5,0.5S14.275,6,14,6h-2
	c-0.276,0-0.5-0.224-0.5-0.5S11.724,5,12,5z M11.5,9H18c0.275,0,0.5,0.224,0.5,0.5S18.275,10,18,10h-6.5C11.224,10,11,9.776,11,9.5
	S11.224,9,11.5,9z M14.843,21c0.009-0.296,0.008-0.593,0.006-0.88c-0.006-0.805-0.013-1.717,0.276-2.008
	C15.173,18.064,15.261,18,15.475,18c0.158,0,0.368,0.021,0.468,0.122c0.169,0.172,0.165,0.654,0.159,1.122
	c-0.006,0.581-0.008,1.222,0.277,1.756H14.843z M18,16h-7c-0.276,0-0.5-0.224-0.5-0.5S10.724,15,11,15h7c0.275,0,0.5,0.224,0.5,0.5
	S18.275,16,18,16z M11,13.5c0-0.276,0.224-0.5,0.5-0.5h6c0.275,0,0.5,0.224,0.5,0.5S17.775,14,17.5,14h-6
	C11.224,14,11,13.776,11,13.5z M18.5,12h-7c-0.276,0-0.5-0.224-0.5-0.5s0.224-0.5,0.5-0.5h7c0.275,0,0.5,0.224,0.5,0.5
	S18.775,12,18.5,12z M18.5,8H13c-0.276,0-0.5-0.224-0.5-0.5S12.724,7,13,7h5.5C18.775,7,19,7.224,19,7.5S18.775,8,18.5,8z M21.992,4
	c-0.007-0.619-0.017-0.985-0.018-0.99c0.002-0.03,0.051-0.999,0.52-1.008c0.197,0.104,0.43,0.963,0.49,1.998H21.992z"/>
</svg>
