<?xml version="1.0" encoding="utf-8"?>
<!-- Generator: Adobe Illustrator 16.2.1, SVG Export Plug-In . SVG Version: 6.00 Build 0)  -->
<!DOCTYPE svg PUBLIC "-//W3C//DTD SVG 1.1//EN" "http://www.w3.org/Graphics/SVG/1.1/DTD/svg11.dtd">
<svg version="1.1" id="Filled_Version" xmlns="http://www.w3.org/2000/svg" xmlns:xlink="http://www.w3.org/1999/xlink" x="0px"
	 y="0px" width="24px" height="24px" viewBox="0 0 24 24" enable-background="new 0 0 24 24" xml:space="preserve">
<g>
	<path d="M12,1C6.393,1,2,2.977,2,5.5C2,7.085,6.461,9,12,9c4.579,0,8.625-1.261,10-2.578V5.5C22,2.977,17.607,1,12,1z"/>
	<path d="M2,7.362V10c0,1.585,4.46,3.5,10,3.5c4.578,0,8.625-1.261,10-2.579V7.669C19.864,9.106,15.783,10,12,10
		C8.035,10,3.862,8.992,2,7.362z"/>
	<path d="M2,11.862V14.5C2,16.085,6.46,18,12,18c4.578,0,8.625-1.261,10-2.578v-3.253c-2.137,1.437-6.218,2.331-10,2.331
		C8.035,14.5,3.862,13.492,2,11.862z"/>
	<path d="M2,16.362V18.5C2,21.023,6.393,23,12,23s10-1.977,10-4.5v-1.831C19.863,18.106,15.782,19,12,19
		C8.035,19,3.862,17.992,2,16.362z"/>
</g>
</svg>
