<?xml version="1.0" encoding="utf-8"?>
<!-- Generator: Adobe Illustrator 16.2.1, SVG Export Plug-In . SVG Version: 6.00 Build 0)  -->
<!DOCTYPE svg PUBLIC "-//W3C//DTD SVG 1.1//EN" "http://www.w3.org/Graphics/SVG/1.1/DTD/svg11.dtd">
<svg version="1.1" id="Filled_Version" xmlns="http://www.w3.org/2000/svg" xmlns:xlink="http://www.w3.org/1999/xlink" x="0px"
	 y="0px" width="24px" height="24px" viewBox="0 0 24 24" enable-background="new 0 0 24 24" xml:space="preserve">
<path d="M22.5,0h-22C0.22,0,0,0.22,0,0.5v23C0,23.781,0.22,24,0.5,24h22c0.28,0,0.5-0.219,0.5-0.5v-23C23,0.22,22.78,0,22.5,0z
	 M5.5,21c-1.1,0-2-0.9-2-2s0.9-2,2-2s2,0.9,2,2S6.6,21,5.5,21z M8,10.5C8,10.781,7.78,11,7.5,11H6v3.5C6,14.781,5.78,15,5.5,15
	S5,14.781,5,14.5V11H3.5C3.22,11,3,10.781,3,10.5v-2C3,8.22,3.22,8,3.5,8H5V3.5C5,3.22,5.22,3,5.5,3S6,3.22,6,3.5V8h1.5
	C7.78,8,8,8.22,8,8.5V10.5z M11.5,21c-1.1,0-2-0.9-2-2s0.9-2,2-2s2,0.9,2,2S12.6,21,11.5,21z M14,7.5C14,7.781,13.78,8,13.5,8H12
	v6.5c0,0.281-0.22,0.5-0.5,0.5S11,14.781,11,14.5V8H9.5C9.22,8,9,7.781,9,7.5v-2C9,5.22,9.22,5,9.5,5H11V3.5C11,3.22,11.22,3,11.5,3
	S12,3.22,12,3.5V5h1.5C13.78,5,14,5.22,14,5.5V7.5z M17.54,21c-1.1,0-2-0.9-2-2s0.9-2,2-2s2,0.9,2,2S18.64,21,17.54,21z M20,12.5
	c0,0.281-0.22,0.5-0.5,0.5H18v1.5c0,0.281-0.22,0.5-0.5,0.5c-0.28,0-0.5-0.219-0.5-0.5V13h-1.5c-0.28,0-0.5-0.219-0.5-0.5v-2
	c0-0.28,0.22-0.5,0.5-0.5H17V3.5C17,3.22,17.22,3,17.5,3C17.78,3,18,3.22,18,3.5V10h1.5c0.28,0,0.5,0.22,0.5,0.5V12.5z"/>
</svg>
