<?xml version="1.0" encoding="utf-8"?>
<!-- Generator: Adobe Illustrator 16.2.1, SVG Export Plug-In . SVG Version: 6.00 Build 0)  -->
<!DOCTYPE svg PUBLIC "-//W3C//DTD SVG 1.1//EN" "http://www.w3.org/Graphics/SVG/1.1/DTD/svg11.dtd">
<svg version="1.1" id="Filled_Version" xmlns="http://www.w3.org/2000/svg" xmlns:xlink="http://www.w3.org/1999/xlink" x="0px"
	 y="0px" width="24px" height="24px" viewBox="0 0 24 24" enable-background="new 0 0 24 24" xml:space="preserve">
<path d="M21.73,0.079c-0.165-0.086-0.364-0.075-0.517,0.033c-1.768,1.234-3.226,1.784-4.727,1.784c-1.787,0-3.46-0.805-4.59-2.209
	c-0.19-0.235-0.606-0.235-0.796,0.001C9.973,1.09,8.3,1.896,6.513,1.896c-1.503,0-2.961-0.55-4.727-1.784
	C1.633,0.004,1.435-0.008,1.269,0.079C1.104,0.164,1,0.335,1,0.522l0.018,14.945c0,0,1.626,5.57,10.348,8.016
	c0.044,0.012,0.089,0.018,0.135,0.018c0.045,0,0.091-0.006,0.135-0.018c8.722-2.445,10.347-8.016,10.347-8.016L22,0.522
	C22,0.335,21.896,0.164,21.73,0.079z M16,12h-2.5c-0.276,0-0.5,0.225-0.5,0.5V15h-3v-2.5c0-0.275-0.224-0.5-0.5-0.5H7V9h2.5
	C9.776,9,10,8.776,10,8.5V6h3v2.5C13,8.776,13.224,9,13.5,9H16V12z"/>
</svg>
