<?xml version="1.0" encoding="utf-8"?>
<!-- Generator: Adobe Illustrator 16.2.1, SVG Export Plug-In . SVG Version: 6.00 Build 0)  -->
<!DOCTYPE svg PUBLIC "-//W3C//DTD SVG 1.1//EN" "http://www.w3.org/Graphics/SVG/1.1/DTD/svg11.dtd">
<svg version="1.1" id="Filled_Version" xmlns="http://www.w3.org/2000/svg" xmlns:xlink="http://www.w3.org/1999/xlink" x="0px"
	 y="0px" width="24px" height="24px" viewBox="0 0 24 24" enable-background="new 0 0 24 24" xml:space="preserve">
<g>
	<path d="M13.854,7.854C13.766,7.942,13.639,8,13.5,8c-0.128,0-0.254-0.049-0.354-0.146l-3-3c-0.195-0.195-0.195-0.512,0-0.707
		s0.512-0.195,0.707,0L13,6.293V0.5C13,0.224,13.225,0,13.5,0C13.776,0,14,0.224,14,0.5v5.793l2.146-2.146
		c0.195-0.195,0.512-0.195,0.707,0s0.195,0.512,0,0.707L13.854,7.854z"/>
	<path d="M0.5,3H4c0.232,0,0.434,0.16,0.487,0.386L5.809,9H23.5c0.161,0,0.312,0.077,0.406,0.208s0.119,0.299,0.068,0.451l-3,9
		C20.906,18.862,20.716,19,20.5,19H8.161l0.235,1H19c1.104,0,2,0.898,2,2c0,1.104-0.896,2-2,2c-1.103,0-2-0.896-2-2
		c0-0.365,0.106-0.704,0.278-1H9.723C9.895,21.296,10,21.635,10,22c0,1.104-0.896,2-2,2c-1.103,0-2-0.896-2-2
		c0-0.89,0.588-1.637,1.394-1.896L3.604,4H0.5C0.225,4,0,3.776,0,3.5S0.225,3,0.5,3z"/>
</g>
</svg>
