<?xml version="1.0" encoding="utf-8"?>
<!-- Generator: Adobe Illustrator 16.2.1, SVG Export Plug-In . SVG Version: 6.00 Build 0)  -->
<!DOCTYPE svg PUBLIC "-//W3C//DTD SVG 1.1//EN" "http://www.w3.org/Graphics/SVG/1.1/DTD/svg11.dtd">
<svg version="1.1" id="Filled_Version" xmlns="http://www.w3.org/2000/svg" xmlns:xlink="http://www.w3.org/1999/xlink" x="0px"
	 y="0px" width="24px" height="24px" viewBox="0 0 24 24" enable-background="new 0 0 24 24" xml:space="preserve">
<g>
	<path d="M16.5,16c1.378,0,2.5-1.122,2.5-2.5c0-1.379-1.122-2.5-2.5-2.5S14,12.121,14,13.5C14,14.878,15.122,16,16.5,16z"/>
	<path d="M7.5,11C6.122,11,5,12.121,5,13.5C5,14.878,6.122,16,7.5,16s2.5-1.122,2.5-2.5C10,12.121,8.878,11,7.5,11z"/>
	<path d="M20.992,10c-1.954,0-3.933-1.393-3.933-4.5c0-0.277,0.224-0.5,0.5-0.5c0.276,0,0.5,0.223,0.5,0.5
		C18.059,8.08,19.578,9,21,9l0.8,0.012C20.876,4.447,16.833,1,12,1C7.171,1,3.131,4.441,2.202,9H3c1.422,0,2.941-0.92,2.941-3.5
		c0-0.277,0.224-0.5,0.5-0.5c0.276,0,0.5,0.223,0.5,0.5C6.941,8.607,4.961,10,3,10H2.051C2.018,10.329,2,10.662,2,11v2.5
		c0,2.865,2.201,5.223,5,5.478V24h3v-5.5c0-0.277,0.224-0.5,0.5-0.5s0.5,0.223,0.5,0.5V24h2v-5.5c0-0.277,0.224-0.5,0.5-0.5
		s0.5,0.223,0.5,0.5V24h3v-5.022c2.799-0.254,5-2.613,5-5.478V11c0-0.333-0.018-0.662-0.05-0.985L20.992,10z M7.5,17
		C5.57,17,4,15.43,4,13.5C4,11.569,5.57,10,7.5,10s3.5,1.569,3.5,3.5C11,15.43,9.43,17,7.5,17z M12.51,17c-0.004,0-0.007,0-0.01,0
		h-1c-0.372,0-0.613-0.393-0.447-0.724l0.5-1c0.169-0.34,0.725-0.34,0.895,0l0.46,0.919C13.159,16.53,12.92,17,12.51,17z M13,13.5
		c0-1.931,1.57-3.5,3.5-3.5s3.5,1.569,3.5,3.5c0,1.93-1.57,3.5-3.5,3.5S13,15.43,13,13.5z"/>
</g>
</svg>
