<?xml version="1.0" encoding="utf-8"?>
<!-- Generator: Adobe Illustrator 16.2.1, SVG Export Plug-In . SVG Version: 6.00 Build 0)  -->
<!DOCTYPE svg PUBLIC "-//W3C//DTD SVG 1.1//EN" "http://www.w3.org/Graphics/SVG/1.1/DTD/svg11.dtd">
<svg version="1.1" id="Filled_Version" xmlns="http://www.w3.org/2000/svg" xmlns:xlink="http://www.w3.org/1999/xlink" x="0px"
	 y="0px" width="24px" height="24px" viewBox="0 0 24 24" enable-background="new 0 0 24 24" xml:space="preserve">
<path d="M18.5,0h-13C4.121,0,3,1.122,3,2.5v19C3,22.878,4.121,24,5.5,24h13c1.378,0,2.5-1.122,2.5-2.5v-19C21,1.122,19.878,0,18.5,0
	z M12,1.5c0.276,0,0.5,0.224,0.5,0.5S12.276,2.5,12,2.5S11.5,2.276,11.5,2S11.724,1.5,12,1.5z M12,22.5c-0.553,0-1-0.447-1-1
	s0.447-1,1-1c0.552,0,1,0.447,1,1S12.552,22.5,12,22.5z M19,19.5c0,0.276-0.224,0.5-0.5,0.5h-13C5.224,20,5,19.776,5,19.5v-16
	C5,3.224,5.224,3,5.5,3h13C18.776,3,19,3.224,19,3.5V19.5z"/>
</svg>
