<?xml version="1.0" encoding="utf-8"?>
<!-- Generator: Adobe Illustrator 16.2.1, SVG Export Plug-In . SVG Version: 6.00 Build 0)  -->
<!DOCTYPE svg PUBLIC "-//W3C//DTD SVG 1.1//EN" "http://www.w3.org/Graphics/SVG/1.1/DTD/svg11.dtd">
<svg version="1.1" id="Filled_Version" xmlns="http://www.w3.org/2000/svg" xmlns:xlink="http://www.w3.org/1999/xlink" x="0px"
	 y="0px" width="24px" height="24px" viewBox="0 0 24 24" enable-background="new 0 0 24 24" xml:space="preserve">
<g>
	<path d="M23.5,4h-23C0.224,4,0,4.224,0,4.5V6h24V4.5C24,4.224,23.776,4,23.5,4z"/>
	<path d="M20.05,7H12.5c0,1.104-0.897,2-2,2h-3c-0.413,0-0.486,0.904-0.498,1.354l2.164,0.772l1.48-1.479
		c0.195-0.195,0.512-0.195,0.707,0s0.195,0.513,0,0.707l-1.146,1.145l0.841,0.301c0.024-0.054,0.055-0.105,0.099-0.148l1.498-1.502
		c0.195-0.197,0.512-0.196,0.707-0.002c0.196,0.194,0.196,0.512,0.001,0.707l-1.301,1.304l2.279,0.813
		c0.157,0.056,0.324,0.029,0.456-0.062C14.921,12.815,15,12.663,15,12.5c0-0.403,0.953-1,3-1c1.703,0,3,0.667,3,1
		c0,0.276,0.224,0.5,0.5,0.5h1c0.827,0,1.5-0.673,1.5-1.5V10C22.272,10,20.364,8.748,20.05,7z"/>
	<path d="M6.021,10.003C6.154,8.278,6.986,8,7.5,8h3c0.551,0,1-0.447,1-1H0.016c0.076,0.549,0.449,1.02,0.979,1.208L6.021,10.003z"
		/>
	<path d="M24,9V7h-2.928C21.402,8.144,22.809,9,24,9z"/>
	<path d="M13.5,18c-0.552,0-1,0.449-1,1h11.483c-0.075-0.547-0.448-1.018-0.979-1.207l-5.026-1.795C17.845,17.723,17.014,18,16.5,18
		H13.5z"/>
	<path d="M0,17v2h2.928C2.598,17.856,1.19,17,0,17z"/>
	<path d="M3.95,19h7.55c0-1.102,0.896-2,2-2h3c0.412,0,0.486-0.904,0.497-1.352l-2.164-0.773l-1.479,1.479
		C13.256,16.451,13.128,16.5,13,16.5s-0.256-0.049-0.354-0.146c-0.195-0.195-0.195-0.512,0-0.707l1.145-1.145l-0.841-0.3
		c-0.023,0.054-0.055,0.105-0.099,0.149l-1.498,1.502C11.256,15.951,11.128,16,11,16s-0.256-0.049-0.354-0.146
		c-0.195-0.195-0.195-0.512-0.001-0.706l1.301-1.305l-2.278-0.814c-0.152-0.054-0.323-0.031-0.456,0.062S9,13.338,9,13.5
		c0,0.403-0.954,1-3,1c-1.703,0-3-0.666-3-1C3,13.224,2.776,13,2.5,13h-1C0.673,13,0,13.673,0,14.5V16
		C1.727,16,3.636,17.254,3.95,19z"/>
	<path d="M0,21.5C0,21.776,0.224,22,0.5,22h23c0.276,0,0.5-0.224,0.5-0.5V20H0V21.5z"/>
</g>
</svg>
