<?xml version="1.0" encoding="utf-8"?>
<!-- Generator: Adobe Illustrator 16.2.1, SVG Export Plug-In . SVG Version: 6.00 Build 0)  -->
<!DOCTYPE svg PUBLIC "-//W3C//DTD SVG 1.1//EN" "http://www.w3.org/Graphics/SVG/1.1/DTD/svg11.dtd">
<svg version="1.1" id="Filled_Version" xmlns="http://www.w3.org/2000/svg" xmlns:xlink="http://www.w3.org/1999/xlink" x="0px"
	 y="0px" width="24px" height="24px" viewBox="0 0 24 24" enable-background="new 0 0 24 24" xml:space="preserve">
<g>
	<circle cx="12" cy="9" r="1"/>
	<path d="M4.307,11.339c1.694,0.658,2.943,2.216,3.16,4.083c1.271-0.28,2.792-0.421,4.533-0.421c1.743,0,3.266,0.142,4.538,0.421
		c0.227-1.863,1.45-3.398,3.11-4.064l0.78-3.87c0.289-1.876-0.254-3.779-1.49-5.22C17.701,0.827,15.903,0,14.005,0H9.992
		C8.094,0,6.295,0.827,5.059,2.269C3.821,3.71,3.278,5.614,3.571,7.506L4.307,11.339z M8.646,8.354
		c-0.195-0.195-0.195-0.512,0-0.707c0.195-0.196,0.512-0.196,0.707,0l0.749,0.75C10.36,7.59,11.108,7,12,7
		c0.891,0,1.639,0.59,1.896,1.397l0.75-0.75c0.195-0.196,0.512-0.196,0.707,0c0.195,0.195,0.195,0.512,0,0.707L14.707,9l0.646,0.647
		c0.195,0.195,0.195,0.512,0,0.707C15.256,10.451,15.128,10.5,15,10.5s-0.256-0.049-0.354-0.146l-0.75-0.75
		C13.639,10.411,12.891,11,12,11c-0.892,0-1.64-0.589-1.897-1.396l-0.749,0.75C9.256,10.451,9.128,10.5,9,10.5
		s-0.256-0.049-0.354-0.146c-0.195-0.195-0.195-0.512,0-0.707L9.293,9L8.646,8.354z"/>
	<path d="M21.5,12c-2.206,0-4,1.795-4,4.001v0.655l-0.632-0.123c-0.891-0.243-2.459-0.532-4.868-0.532
		c-2.41,0-3.978,0.289-4.869,0.532L6.5,16.706v-0.655c0-2.115-1.577-3.824-3.592-4.03C2.773,12.006,2.638,12,2.5,12
		C1.121,12,0,13.123,0,14.501c0,0.141,0.014,0.28,0.037,0.415c0.119,0.718,0.543,1.348,1.167,1.725
		c0.082,0.05,0.171,0.092,0.261,0.133c0.025,0.011,0.048,0.025,0.073,0.037c0.013,0.005,0.021,0.015,0.033,0.02
		C1.831,16.955,2,17.211,2,17.501v2C2,21.431,3.57,23,5.5,23v0.5C5.5,23.776,5.724,24,6,24s0.5-0.224,0.5-0.5V23h11v0.5
		c0,0.276,0.224,0.5,0.5,0.5s0.5-0.224,0.5-0.5V23c1.93,0,3.5-1.569,3.5-3.499v-2c0-0.076,0.011-0.15,0.032-0.22
		c0.001,0,0.002-0.002,0.002-0.004c0.043-0.138,0.125-0.261,0.236-0.354c0.014-0.012,0.032-0.018,0.047-0.029
		c0.045-0.03,0.09-0.063,0.143-0.085c0.818-0.341,1.384-1.077,1.512-1.935C23.99,14.752,24,14.627,24,14.501
		C24,13.123,22.878,12,21.5,12z"/>
</g>
</svg>
