<?xml version="1.0" encoding="utf-8"?>
<!-- Generator: Adobe Illustrator 16.2.1, SVG Export Plug-In . SVG Version: 6.00 Build 0)  -->
<!DOCTYPE svg PUBLIC "-//W3C//DTD SVG 1.1//EN" "http://www.w3.org/Graphics/SVG/1.1/DTD/svg11.dtd">
<svg version="1.1" id="Filled_Version" xmlns="http://www.w3.org/2000/svg" xmlns:xlink="http://www.w3.org/1999/xlink" x="0px"
	 y="0px" width="24px" height="24px" viewBox="0 0 24 24" enable-background="new 0 0 24 24" xml:space="preserve">
<path d="M21.5,16.033h-4.846c-3.285-2.285-1.775-5.65-0.561-8.333C16.6,6.584,17,5.702,17,5c0-3.261-2.516-4.967-5.002-4.967
	C9.514,0.033,7,1.739,7,5c0,0.705,0.402,1.59,0.91,2.707c1.217,2.678,2.728,6.036-0.564,8.326H2.5c-1.379,0-2.5,1.088-2.5,2.467v3
	C0,21.777,0.225,22,0.5,22H1v1.5C1,23.777,1.225,24,1.5,24h21c0.275,0,0.5-0.223,0.5-0.5V22h0.5c0.275,0,0.5-0.223,0.5-0.5v-3
	C24,17.121,22.879,16.033,21.5,16.033z M22,23.033H2V22h20V23.033z"/>
</svg>
