<?xml version="1.0" encoding="utf-8"?>
<!-- Generator: Adobe Illustrator 16.2.1, SVG Export Plug-In . SVG Version: 6.00 Build 0)  -->
<!DOCTYPE svg PUBLIC "-//W3C//DTD SVG 1.1//EN" "http://www.w3.org/Graphics/SVG/1.1/DTD/svg11.dtd">
<svg version="1.1" id="Filled_Version" xmlns="http://www.w3.org/2000/svg" xmlns:xlink="http://www.w3.org/1999/xlink" x="0px"
	 y="0px" width="24px" height="24px" viewBox="0 0 24 24" enable-background="new 0 0 24 24" xml:space="preserve">
<g>
	<path d="M21.597,17.355C22.516,15.712,23,13.869,23,12s-0.484-3.712-1.403-5.354l1.524-1.523C23.688,4.555,24,3.802,24,3
		c0-0.801-0.312-1.555-0.879-2.121S21.801,0,21,0s-1.555,0.312-2.121,0.879l-1.524,1.524C15.713,1.484,13.87,1,12,1
		S8.287,1.484,6.646,2.403L5.121,0.879C4.555,0.312,3.801,0,3,0S1.445,0.312,0.879,0.879C0.312,1.445,0,2.199,0,3
		c0,0.802,0.312,1.555,0.879,2.122l1.523,1.523C1.484,8.287,1,10.13,1,12c0,1.871,0.484,3.715,1.402,5.355l-1.523,1.523
		c-1.17,1.17-1.17,3.073,0,4.243C1.445,23.688,2.199,24,3,24s1.555-0.312,2.121-0.878l1.525-1.524C8.287,22.518,10.129,23,12,23
		s3.713-0.482,5.354-1.402l1.524,1.524C19.445,23.688,20.199,24,21,24s1.555-0.312,2.121-0.878c1.17-1.17,1.17-3.073,0-4.243
		L21.597,17.355z M21,2c0.553,0,1,0.448,1,1c0,0.553-0.447,1-1,1s-1-0.447-1-1C20,2.448,20.447,2,21,2z M2,3c0-0.552,0.447-1,1-1
		s1,0.448,1,1c0,0.553-0.447,1-1,1S2,3.553,2,3z M3,22c-0.553,0-1-0.447-1-1c0-0.552,0.447-1,1-1s1,0.448,1,1
		C4,21.553,3.553,22,3,22z M12,20c-4.41,0-8-3.589-8-8s3.59-8,8-8c4.412,0,8,3.589,8,8S16.412,20,12,20z M21,22
		c-0.553,0-1-0.447-1-1c0-0.552,0.447-1,1-1s1,0.448,1,1C22,21.553,21.553,22,21,22z"/>
	<path d="M12,9.5c-1.378,0-2.5,1.122-2.5,2.5c0,1.379,1.122,2.5,2.5,2.5c1.379,0,2.5-1.121,2.5-2.5C14.5,10.622,13.379,9.5,12,9.5z"
		/>
</g>
</svg>
