<?xml version="1.0" encoding="utf-8"?>
<!-- Generator: Adobe Illustrator 16.2.1, SVG Export Plug-In . SVG Version: 6.00 Build 0)  -->
<!DOCTYPE svg PUBLIC "-//W3C//DTD SVG 1.1//EN" "http://www.w3.org/Graphics/SVG/1.1/DTD/svg11.dtd">
<svg version="1.1" id="Filled_Version" xmlns="http://www.w3.org/2000/svg" xmlns:xlink="http://www.w3.org/1999/xlink" x="0px"
	 y="0px" width="24px" height="24px" viewBox="0 0 24 24" enable-background="new 0 0 24 24" xml:space="preserve">
<path d="M18,5h-4.5V1H15c0.276,0,0.5-0.224,0.5-0.5S15.276,0,15,0H8C7.724,0,7.5,0.224,7.5,0.5S7.724,1,8,1h1.5v4H5
	C4.724,5,4.5,5.224,4.5,5.5S4.724,6,5,6h2.5v2H10c0.276,0,0.5,0.224,0.5,0.5S10.276,9,10,9H7.5v1H10c0.276,0,0.5,0.224,0.5,0.5
	S10.276,11,10,11H7.5v1H10c0.276,0,0.5,0.224,0.5,0.5S10.276,13,10,13H7.5v2.5c0,2.29,1.529,4.183,3.5,4.461V23.5
	c0,0.276,0.224,0.5,0.5,0.5s0.5-0.224,0.5-0.5v-3.539c1.97-0.278,3.5-2.171,3.5-4.461V6H18c0.276,0,0.5-0.224,0.5-0.5S18.276,5,18,5
	z"/>
</svg>
