<?xml version="1.0" encoding="utf-8"?>
<!-- Generator: Adobe Illustrator 16.2.1, SVG Export Plug-In . SVG Version: 6.00 Build 0)  -->
<!DOCTYPE svg PUBLIC "-//W3C//DTD SVG 1.1//EN" "http://www.w3.org/Graphics/SVG/1.1/DTD/svg11.dtd">
<svg version="1.1" id="Filled_Version" xmlns="http://www.w3.org/2000/svg" xmlns:xlink="http://www.w3.org/1999/xlink" x="0px"
	 y="0px" width="24px" height="24px" viewBox="0 0 24 24" enable-background="new 0 0 24 24" xml:space="preserve">
<g>
	<path d="M9.774,12.105l1.536-1.535C10.618,10.208,9.833,10,9,10c-2.757,0-5,2.243-5,5c0,2.757,2.243,5,5,5s5-2.243,5-5
		c0-0.833-0.208-1.618-0.569-2.309l-1.536,1.535C11.961,14.474,12,14.732,12,15c0,1.654-1.346,3-3,3s-3-1.346-3-3s1.346-3,3-3
		C9.268,12,9.526,12.039,9.774,12.105z"/>
	<path d="M8.865,13.014C7.826,13.084,7,13.943,7,15c0,1.103,0.897,2,2,2c1.057,0,1.916-0.826,1.986-1.865l-0.926,0.926
		C9.777,16.344,9.4,16.5,9,16.5s-0.777-0.156-1.061-0.439C7.656,15.777,7.5,15.401,7.5,15s0.156-0.777,0.439-1.06L8.865,13.014z"/>
	<path d="M23.903,2.704C23.809,2.576,23.659,2.5,23.5,2.5h-1.091H21.5V1.601V0.5c0-0.159-0.076-0.309-0.204-0.403
		c-0.128-0.094-0.293-0.121-0.445-0.074C20.772,0.047,19.967,0.307,19,0.778V4.5C19,4.776,18.776,5,18.5,5S18,4.776,18,4.5V1.321
		c-1.138,0.688-2.248,1.638-2.542,2.834c-0.164,0.664-0.07,1.331,0.274,1.992c0.146,0.281,0.339,0.561,0.576,0.838l0,0l-1.317,1.317
		l-2.121,2.12v0l-0.708,0.708l-1.427,1.427l0,0l-0.726,0.726l0,0l-1.363,1.363C8.551,14.743,8.5,14.865,8.5,15
		c0,0.136,0.051,0.258,0.146,0.354c0.191,0.191,0.516,0.191,0.707,0l1.363-1.363l0,0l0.726-0.726l0,0l1.427-1.427l0.708-0.708l0,0
		l2.121-2.12l1.317-1.318h0c0.278,0.236,0.558,0.427,0.84,0.574c0.45,0.234,0.903,0.354,1.356,0.354
		c3.021,0,4.695-5.247,4.765-5.471C24.025,2.998,23.997,2.832,23.903,2.704z"/>
	<path d="M16.328,9.794l-2.165,2.165C14.691,12.852,15,13.889,15,15c0,3.309-2.691,6-6,6s-6-2.691-6-6c0-3.308,2.691-6,6-6
		c1.111,0,2.148,0.309,3.042,0.837l2.165-2.165C12.735,6.624,10.94,6,9,6c-4.962,0-9,4.038-9,9c0,2.302,0.876,4.398,2.302,5.991
		l-2.156,2.156c-0.195,0.195-0.195,0.512,0,0.707C0.244,23.951,0.372,24,0.5,24s0.256-0.049,0.354-0.146l2.156-2.156
		C4.603,23.124,6.698,24,9,24s4.397-0.876,5.991-2.302l2.156,2.156C17.244,23.951,17.372,24,17.5,24s0.256-0.049,0.354-0.146
		c0.195-0.195,0.195-0.512,0-0.707l-2.156-2.156C17.124,19.398,18,17.302,18,15C18,13.06,17.376,11.265,16.328,9.794z"/>
</g>
</svg>
