<?xml version="1.0" encoding="utf-8"?>
<!-- Generator: Adobe Illustrator 16.2.1, SVG Export Plug-In . SVG Version: 6.00 Build 0)  -->
<!DOCTYPE svg PUBLIC "-//W3C//DTD SVG 1.1//EN" "http://www.w3.org/Graphics/SVG/1.1/DTD/svg11.dtd">
<svg version="1.1" id="Filled_Version" xmlns="http://www.w3.org/2000/svg" xmlns:xlink="http://www.w3.org/1999/xlink" x="0px"
	 y="0px" width="24px" height="24px" viewBox="0 0 24 24" enable-background="new 0 0 24 24" xml:space="preserve">
<g>
	<path d="M13.618,6.166C13.855,5.837,14,5.437,14,5c0-1.102-0.897-2-2-2c-1.104,0-2,0.898-2,2c0,0.437,0.144,0.837,0.381,1.166
		C8.527,6.549,6.909,7.576,5.765,9h12.47C17.09,7.576,15.472,6.549,13.618,6.166z M12,6c-0.552,0-1-0.447-1-1c0-0.551,0.448-1,1-1
		c0.551,0,1,0.449,1,1C13,5.553,12.551,6,12,6z"/>
	<path d="M20.5,9.5c-0.751,0-2,0.5-2,0.5H5.082c-0.598,1.029-0.969,2.201-1.055,3.453C2.874,13.231,2,12.217,2,11V9.5
		C2,8.674,1.327,8,0.5,8C0.224,8,0,8.225,0,8.5C0,8.776,0.224,9,0.5,9C0.775,9,1,9.225,1,9.5V11c0,1.767,1.316,3.228,3.019,3.463
		c0.09,1.572,0.633,3.063,1.593,4.338C5.706,18.927,5.854,19,6.011,19H17.99c0.157,0,0.306-0.073,0.399-0.199
		c0.558-0.741,0.971-1.556,1.241-2.415c0.283,0.073,0.573,0.114,0.869,0.114c1.93,0,3.5-1.568,3.5-3.5C24,11.07,22.43,9.5,20.5,9.5z
		 M20.5,15.5c-0.215,0-0.424-0.035-0.629-0.09C19.954,14.948,20,14.478,20,14c0-1.139-0.244-2.222-0.675-3.203
		c0.359-0.194,0.759-0.297,1.175-0.297c1.378,0,2.5,1.122,2.5,2.5C23,14.379,21.878,15.5,20.5,15.5z"/>
</g>
</svg>
