<?xml version="1.0" encoding="utf-8"?>
<!-- Generator: Adobe Illustrator 16.2.1, SVG Export Plug-In . SVG Version: 6.00 Build 0)  -->
<!DOCTYPE svg PUBLIC "-//W3C//DTD SVG 1.1//EN" "http://www.w3.org/Graphics/SVG/1.1/DTD/svg11.dtd">
<svg version="1.1" id="Filled_Version" xmlns="http://www.w3.org/2000/svg" xmlns:xlink="http://www.w3.org/1999/xlink" x="0px"
	 y="0px" width="24px" height="24px" viewBox="0 0 24 24" enable-background="new 0 0 24 24" xml:space="preserve">
<path d="M20.67,6.082c-2.172-2.271-5.059-3.569-8.174-3.695V0.875c0-0.276-0.223-0.5-0.5-0.5c-0.275,0-0.5,0.224-0.5,0.5v1.512
	c-3.115,0.127-6,1.425-8.17,3.695c-2.283,2.385-3.461,5.516-3.314,8.814c0.012,0.268,0.232,0.476,0.5,0.476c0.002,0,0.006,0,0.008,0
	c0.27-0.004,0.488-0.226,0.492-0.496c0.002-0.154,0.072-1.501,1.986-1.501c2.059,0,2.498,1.559,2.516,1.621
	c0.055,0.223,0.254,0.379,0.484,0.379c0.229,0,0.43-0.156,0.484-0.379c0.004-0.017,0.43-1.621,2.516-1.621
	c1.879,0,2.406,1.293,2.498,1.568v7.432c0,1.066,0.881,1.625,1.75,1.625s1.75-0.559,1.75-1.625c0-0.276-0.223-0.5-0.5-0.5
	c-0.275,0-0.5,0.224-0.5,0.5c0,0.607-0.674,0.625-0.75,0.625s-0.75-0.018-0.75-0.625v-7.367c0.211-0.355,1.066-1.633,2.502-1.633
	c1.658,0,2.545,1.707,2.553,1.724c0.084,0.169,0.258,0.274,0.445,0.274c0.189-0.002,0.363-0.105,0.447-0.273
	c0.01-0.018,0.896-1.725,2.555-1.725c1.566,0,1.982,1.544,2.002,1.62c0.055,0.225,0.258,0.38,0.484,0.38
	c0.016,0,0.033-0.002,0.049-0.003c0.248-0.022,0.439-0.227,0.451-0.476C24.131,11.599,22.953,8.467,20.67,6.082z"/>
</svg>
