<?xml version="1.0" encoding="utf-8"?>
<!-- Generator: Adobe Illustrator 16.2.1, SVG Export Plug-In . SVG Version: 6.00 Build 0)  -->
<!DOCTYPE svg PUBLIC "-//W3C//DTD SVG 1.1//EN" "http://www.w3.org/Graphics/SVG/1.1/DTD/svg11.dtd">
<svg version="1.1" id="Filled_Version" xmlns="http://www.w3.org/2000/svg" xmlns:xlink="http://www.w3.org/1999/xlink" x="0px"
	 y="0px" width="24px" height="24px" viewBox="0 0 24 24" enable-background="new 0 0 24 24" xml:space="preserve">
<g>
	<path d="M19.677,18.318L15,16.648v-2.306c1.433-1.175,2.375-3.13,2.375-5.343c0-0.071-0.007-0.142-0.009-0.213
		C17.055,8.9,16.708,9,16.375,9c-1.655,0-2.799-0.266-3.761-1.554C11.76,8.345,10.251,9,8.875,9c-0.649,0-1.722-0.416-2.46-0.748
		C6.391,8.498,6.375,8.748,6.375,9c0,2.338,1.053,4.385,2.625,5.531v2.117l-4.678,1.67C2.933,18.814,2,20.139,2,21.615V24h20v-2.385
		C22,20.139,21.066,18.814,19.677,18.318z"/>
	<path d="M12.197,6.34l0.423-0.812l0.454,0.794C13.895,7.758,14.756,8,16.375,8c0.259,0,0.613-0.129,0.896-0.247
		C16.777,4.764,14.546,2.5,11.875,2.5c-2.514,0-4.634,2.006-5.288,4.732C7.357,7.596,8.427,8,8.875,8
		C10.183,8,11.736,7.225,12.197,6.34z"/>
</g>
</svg>
