<?xml version="1.0" encoding="utf-8"?>
<!-- Generator: Adobe Illustrator 16.2.1, SVG Export Plug-In . SVG Version: 6.00 Build 0)  -->
<!DOCTYPE svg PUBLIC "-//W3C//DTD SVG 1.1//EN" "http://www.w3.org/Graphics/SVG/1.1/DTD/svg11.dtd">
<svg version="1.1" id="Filled_Version" xmlns="http://www.w3.org/2000/svg" xmlns:xlink="http://www.w3.org/1999/xlink" x="0px"
	 y="0px" width="24px" height="24px" viewBox="0 0 24 24" enable-background="new 0 0 24 24" xml:space="preserve">
<g>
	<path d="M8,0v5.821c2.332,0.048,4.307,1.78,5.039,4.179H15.5v4.743L20.054,10H24V0H8z M13.584,5.083H12.5V4h1.084V5.083z
		 M17.041,5.083h-1.082V4h1.082V5.083z M20.5,5.083h-1.084V4H20.5V5.083z"/>
	<path d="M14.109,19.31L10.5,18.018v-0.484v-1.239c1.117-0.953,1.849-2.497,1.849-4.241c0-0.01-0.001-0.018-0.001-0.026
		c-0.277,0.04-0.717,0.106-0.801,0.122c-0.266,0.052-0.52,0.078-0.76,0.078c-0.939,0-1.685-0.398-2.318-1.237
		c-0.707,0.682-1.871,1.169-2.936,1.169c-0.459,0-1.373-0.216-2.064-0.441c-0.006,0.111-0.015,0.222-0.015,0.336
		c0,1.846,0.817,3.468,2.046,4.4v1.189v0.375L1.891,19.31C0.76,19.715,0,20.799,0,22.012V24h16v-1.988
		C16,20.799,15.24,19.715,14.109,19.31z"/>
	<path d="M8.062,9.903l0.424-0.812l0.454,0.795c0.656,1.147,1.313,1.495,2.42,1.281c0.115-0.022,0.619-0.099,0.902-0.139
		c-0.405-2.398-2.205-4.212-4.359-4.212c-2.059,0-3.789,1.655-4.295,3.893c0.589,0.207,1.549,0.449,1.926,0.449
		C6.514,11.158,7.72,10.56,8.062,9.903z"/>
</g>
</svg>
