<?xml version="1.0" encoding="utf-8"?>
<!-- Generator: Adobe Illustrator 16.2.1, SVG Export Plug-In . SVG Version: 6.00 Build 0)  -->
<!DOCTYPE svg PUBLIC "-//W3C//DTD SVG 1.1//EN" "http://www.w3.org/Graphics/SVG/1.1/DTD/svg11.dtd">
<svg version="1.1" id="Filled_Version" xmlns="http://www.w3.org/2000/svg" xmlns:xlink="http://www.w3.org/1999/xlink" x="0px"
	 y="0px" width="24px" height="24px" viewBox="0 0 24 24" enable-background="new 0 0 24 24" xml:space="preserve">
<g>
	<path d="M21.5,3h-19C1.121,3,0,4.121,0,5.5V8h24V5.5C24,4.121,22.878,3,21.5,3z M4,7C3.448,7,3,6.552,3,6c0-0.552,0.448-1,1-1
		c0.551,0,1,0.448,1,1C5,6.552,4.551,7,4,7z M7,7C6.448,7,6,6.552,6,6c0-0.552,0.448-1,1-1c0.551,0,1,0.448,1,1C8,6.552,7.551,7,7,7
		z M10,7C9.448,7,9,6.552,9,6c0-0.552,0.448-1,1-1c0.551,0,1,0.448,1,1C11,6.552,10.551,7,10,7z"/>
	<path d="M0,19.5C0,20.879,1.121,22,2.5,22h19c1.378,0,2.5-1.121,2.5-2.5V9H0V19.5z"/>
</g>
</svg>
