<?xml version="1.0" encoding="utf-8"?>
<!-- Generator: Adobe Illustrator 16.2.1, SVG Export Plug-In . SVG Version: 6.00 Build 0)  -->
<!DOCTYPE svg PUBLIC "-//W3C//DTD SVG 1.1//EN" "http://www.w3.org/Graphics/SVG/1.1/DTD/svg11.dtd">
<svg version="1.1" id="Filled_Version" xmlns="http://www.w3.org/2000/svg" xmlns:xlink="http://www.w3.org/1999/xlink" x="0px"
	 y="0px" width="24px" height="24px" viewBox="0 0 24 24" enable-background="new 0 0 24 24" xml:space="preserve">
<path d="M22.68,16.316c-1.22-1.221-3-1.627-4.618-1.082l-3.163-3.164l3.164-3.164c0.462,0.156,0.944,0.234,1.438,0.234
	c1.2,0,2.329-0.467,3.178-1.316c1.307-1.307,1.675-3.17,0.959-4.863c-0.065-0.154-0.204-0.265-0.369-0.297
	c-0.167-0.029-0.335,0.025-0.452,0.146l-1.766,1.836h-1.408V3.083l1.769-1.769c0.118-0.118,0.169-0.286,0.137-0.447
	c-0.032-0.164-0.143-0.301-0.296-0.367c-0.559-0.236-1.15-0.354-1.759-0.354c-1.202,0-2.331,0.467-3.18,1.315
	c-1.221,1.221-1.629,3-1.083,4.618L12.07,9.242L8.906,6.079c0.547-1.618,0.14-3.397-1.082-4.618C6.517,0.152,4.653-0.216,2.962,0.5
	C2.807,0.566,2.696,0.704,2.665,0.871c-0.03,0.164,0.024,0.333,0.146,0.451l1.834,1.766v1.558H3.088L1.322,2.81
	C1.205,2.688,1.035,2.635,0.87,2.664C0.705,2.696,0.566,2.807,0.501,2.961c-0.711,1.682-0.335,3.605,0.96,4.901
	c1.214,1.213,2.995,1.613,4.618,1.062l3.158,3.15l-3.159,3.159C5.616,15.079,5.134,15,4.64,15c-1.202,0-2.331,0.467-3.179,1.316
	c-1.301,1.303-1.679,3.239-0.96,4.938c0.064,0.153,0.201,0.264,0.364,0.296c0.164,0.032,0.332-0.021,0.45-0.138l1.767-1.767h1.562
	v1.407l-1.834,1.767c-0.121,0.116-0.176,0.286-0.146,0.451c0.031,0.165,0.142,0.304,0.297,0.37c0.559,0.236,1.146,0.355,1.749,0.355
	l0,0c1.184,0,2.302-0.467,3.151-1.316c1.208-1.206,1.601-2.986,1.045-4.617l3.164-3.164l3.165,3.166
	c-0.546,1.615-0.139,3.396,1.082,4.617C17.18,23.543,18.323,24,19.49,24c0.593,0,1.192-0.117,1.765-0.359
	c0.153-0.065,0.264-0.202,0.296-0.365s-0.02-0.332-0.137-0.449l-1.77-1.768v-1.413h1.415l1.768,1.767
	c0.117,0.117,0.285,0.171,0.449,0.138c0.164-0.032,0.3-0.143,0.365-0.296C24.358,19.556,23.982,17.619,22.68,16.316z"/>
</svg>
