<?xml version="1.0" encoding="utf-8"?>
<!-- Generator: Adobe Illustrator 16.2.1, SVG Export Plug-In . SVG Version: 6.00 Build 0)  -->
<!DOCTYPE svg PUBLIC "-//W3C//DTD SVG 1.1//EN" "http://www.w3.org/Graphics/SVG/1.1/DTD/svg11.dtd">
<svg version="1.1" id="Filled_Version" xmlns="http://www.w3.org/2000/svg" xmlns:xlink="http://www.w3.org/1999/xlink" x="0px"
	 y="0px" width="24px" height="24px" viewBox="0 0 24 24" enable-background="new 0 0 24 24" xml:space="preserve">
<g>
	<path d="M15.357,10.641c-0.038,0.038-0.082,0.069-0.13,0.094l-2.583,1.292c-0.187,0.093-0.423,0.062-0.577-0.095
		c-0.152-0.15-0.19-0.383-0.094-0.576l1.291-2.583c0.024-0.049,0.056-0.093,0.094-0.13C16.344,5.658,20.001,2,20.001,2H20H0.5
		C0.224,2,0,2.224,0,2.5v21C0,23.776,0.224,24,0.5,24H20c0.276,0,0.5-0.224,0.5-0.5V5.498l-1,1L15.357,10.641z M19.5,22.5
		c0,0.276-0.224,0.5-0.5,0.5H1.5C1.224,23,1,22.776,1,22.5v-19C1,3.224,1.224,3,1.5,3h14.609c0.276,0,0.5,0.224,0.5,0.5
		c0,0.277-0.224,0.5-0.5,0.5H2v18h16.5V11.086c0-0.275,0.224-0.5,0.5-0.5s0.5,0.225,0.5,0.5V22.5z"/>
	<path d="M23.471,0.8c-0.112-0.271-0.448-0.409-0.689-0.167l-0.938,0.938l0.584,0.584l0.938-0.937
		C23.498,1.086,23.532,0.948,23.471,0.8z"/>
	<polygon points="14.124,9.292 13.54,10.461 14.708,9.876 21.721,2.862 21.137,2.278 	"/>
</g>
</svg>
